<mxfile host="Electron" agent="Mozilla/5.0 (Windows NT 10.0; Win64; x64) AppleWebKit/537.36 (KHTML, like Gecko) draw.io/28.1.2 Chrome/138.0.7204.243 Electron/37.4.0 Safari/537.36" version="28.1.2">
  <diagram name="Page-1" id="PpmiTgmdwnHcv11DCD9S">
    <mxGraphModel dx="1426" dy="841" grid="1" gridSize="10" guides="1" tooltips="1" connect="1" arrows="1" fold="1" page="1" pageScale="1" pageWidth="850" pageHeight="1100" math="0" shadow="0">
      <root>
        <mxCell id="0" />
        <mxCell id="1" parent="0" />
        <mxCell id="fYESKVRvRu58Ykt4SPlZ-1" value="&lt;font style=&quot;font-size: 30px;&quot;&gt;&lt;b&gt;High Level Architecture&lt;/b&gt;&lt;/font&gt;" style="text;strokeColor=none;align=center;fillColor=none;html=1;verticalAlign=middle;whiteSpace=wrap;rounded=0;" parent="1" vertex="1">
          <mxGeometry x="31.75" y="40" width="340" height="30" as="geometry" />
        </mxCell>
        <mxCell id="fYESKVRvRu58Ykt4SPlZ-2" value="" style="rounded=0;whiteSpace=wrap;html=1;fillColor=none;strokeColor=#000000;" parent="1" vertex="1">
          <mxGeometry x="30" y="133" width="151" height="617" as="geometry" />
        </mxCell>
        <mxCell id="fYESKVRvRu58Ykt4SPlZ-3" value="&lt;b&gt;Source&lt;/b&gt;" style="rounded=1;whiteSpace=wrap;html=1;fillColor=default;gradientColor=none;" parent="1" vertex="1">
          <mxGeometry x="65" y="120" width="81" height="30" as="geometry" />
        </mxCell>
        <mxCell id="fYESKVRvRu58Ykt4SPlZ-4" value="" style="rounded=0;whiteSpace=wrap;html=1;fillColor=none;strokeColor=#000000;dashed=1;" parent="1" vertex="1">
          <mxGeometry x="190" y="133" width="610" height="617" as="geometry" />
        </mxCell>
        <mxCell id="fYESKVRvRu58Ykt4SPlZ-5" value="&lt;b&gt;&lt;font style=&quot;font-size: 16px;&quot;&gt;Data Warehouse&lt;/font&gt;&lt;/b&gt;" style="rounded=1;whiteSpace=wrap;html=1;fillColor=default;align=center;strokeColor=#000000;" parent="1" vertex="1">
          <mxGeometry x="430" y="120" width="130" height="30" as="geometry" />
        </mxCell>
        <mxCell id="fYESKVRvRu58Ykt4SPlZ-6" value="" style="rounded=0;whiteSpace=wrap;html=1;fillColor=none;strokeColor=#1A1A1A;" parent="1" vertex="1">
          <mxGeometry x="863.85" y="133" width="140" height="617" as="geometry" />
        </mxCell>
        <mxCell id="fYESKVRvRu58Ykt4SPlZ-7" value="&lt;b&gt;Consume&lt;/b&gt;" style="rounded=1;whiteSpace=wrap;html=1;fillColor=default;" parent="1" vertex="1">
          <mxGeometry x="893.35" y="120" width="81" height="30" as="geometry" />
        </mxCell>
        <mxCell id="fYESKVRvRu58Ykt4SPlZ-8" value="Bronze Layer" style="rounded=0;whiteSpace=wrap;html=1;fillColor=#a0522d;fontColor=#ffffff;strokeColor=#6D1F00;" parent="1" vertex="1">
          <mxGeometry x="239.75" y="170" width="115" height="30" as="geometry" />
        </mxCell>
        <mxCell id="fYESKVRvRu58Ykt4SPlZ-9" value="" style="rounded=0;whiteSpace=wrap;html=1;fillColor=none;fontColor=#ffffff;strokeColor=#6D1F00;dashed=1;" parent="1" vertex="1">
          <mxGeometry x="207.25" y="210" width="180" height="530" as="geometry" />
        </mxCell>
        <mxCell id="fYESKVRvRu58Ykt4SPlZ-10" value="Silver Layer" style="rounded=0;whiteSpace=wrap;html=1;fillColor=#647687;fontColor=#ffffff;strokeColor=#314354;" parent="1" vertex="1">
          <mxGeometry x="440" y="170" width="120" height="30" as="geometry" />
        </mxCell>
        <mxCell id="fYESKVRvRu58Ykt4SPlZ-11" value="" style="rounded=0;whiteSpace=wrap;html=1;fillColor=none;fontColor=#ffffff;strokeColor=#314354;dashed=1;" parent="1" vertex="1">
          <mxGeometry x="410" y="210" width="180" height="530" as="geometry" />
        </mxCell>
        <mxCell id="fYESKVRvRu58Ykt4SPlZ-12" value="Gold Layer" style="rounded=0;whiteSpace=wrap;html=1;fillColor=#f0a30a;fontColor=#000000;strokeColor=#BD7000;" parent="1" vertex="1">
          <mxGeometry x="635" y="170" width="130" height="30" as="geometry" />
        </mxCell>
        <mxCell id="fYESKVRvRu58Ykt4SPlZ-13" value="" style="rounded=0;whiteSpace=wrap;html=1;fillColor=none;fontColor=#000000;strokeColor=#BD7000;dashed=1;" parent="1" vertex="1">
          <mxGeometry x="610" y="210" width="180" height="530" as="geometry" />
        </mxCell>
        <mxCell id="fYESKVRvRu58Ykt4SPlZ-14" value="" style="sketch=0;aspect=fixed;pointerEvents=1;shadow=0;dashed=0;html=1;strokeColor=none;labelPosition=center;verticalLabelPosition=bottom;verticalAlign=top;align=center;fillColor=#00188D;shape=mxgraph.mscae.enterprise.folder" parent="1" vertex="1">
          <mxGeometry x="76.25" y="190" width="50" height="43" as="geometry" />
        </mxCell>
        <mxCell id="fYESKVRvRu58Ykt4SPlZ-15" value="" style="sketch=0;outlineConnect=0;fontColor=#232F3E;gradientColor=none;strokeColor=#ffffff;fillColor=#232F3E;dashed=0;verticalLabelPosition=middle;verticalAlign=bottom;align=center;html=1;whiteSpace=wrap;fontSize=10;fontStyle=1;spacing=3;shape=mxgraph.aws4.productIcon;prIcon=mxgraph.aws4.elastic_file_system;" parent="1" vertex="1">
          <mxGeometry x="97.75" y="220" width="28.5" height="20" as="geometry" />
        </mxCell>
        <mxCell id="fYESKVRvRu58Ykt4SPlZ-16" value="" style="sketch=0;aspect=fixed;pointerEvents=1;shadow=0;dashed=0;html=1;strokeColor=none;labelPosition=center;verticalLabelPosition=bottom;verticalAlign=top;align=center;fillColor=#00188D;shape=mxgraph.mscae.enterprise.folder" parent="1" vertex="1">
          <mxGeometry x="78.75" y="330" width="50" height="43" as="geometry" />
        </mxCell>
        <mxCell id="fYESKVRvRu58Ykt4SPlZ-17" value="" style="sketch=0;outlineConnect=0;fontColor=#232F3E;gradientColor=none;strokeColor=#ffffff;fillColor=#232F3E;dashed=0;verticalLabelPosition=middle;verticalAlign=bottom;align=center;html=1;whiteSpace=wrap;fontSize=10;fontStyle=1;spacing=3;shape=mxgraph.aws4.productIcon;prIcon=mxgraph.aws4.elastic_file_system;" parent="1" vertex="1">
          <mxGeometry x="102.75" y="360" width="26" height="20" as="geometry" />
        </mxCell>
        <mxCell id="fYESKVRvRu58Ykt4SPlZ-18" value="ERP" style="text;strokeColor=none;align=center;fillColor=none;html=1;verticalAlign=middle;whiteSpace=wrap;rounded=0;" parent="1" vertex="1">
          <mxGeometry x="76.25" y="250" width="61" height="20" as="geometry" />
        </mxCell>
        <mxCell id="fYESKVRvRu58Ykt4SPlZ-19" value="CRM" style="text;strokeColor=none;align=center;fillColor=none;html=1;verticalAlign=middle;whiteSpace=wrap;rounded=0;" parent="1" vertex="1">
          <mxGeometry x="81.25" y="390" width="56" height="20" as="geometry" />
        </mxCell>
        <mxCell id="fYESKVRvRu58Ykt4SPlZ-24" value="&lt;b&gt;&amp;nbsp; object Type&lt;/b&gt; : Csv Files&lt;div&gt;&lt;br&gt;&lt;div&gt;&lt;b&gt;&amp;nbsp; Interface &lt;/b&gt;: files in folder&lt;/div&gt;&lt;/div&gt;" style="text;strokeColor=none;align=left;fillColor=none;html=1;verticalAlign=middle;whiteSpace=wrap;rounded=0;" parent="1" vertex="1">
          <mxGeometry x="31.75" y="450" width="150" height="50" as="geometry" />
        </mxCell>
        <mxCell id="fYESKVRvRu58Ykt4SPlZ-26" value="" style="html=1;verticalLabelPosition=bottom;align=center;labelBackgroundColor=#ffffff;verticalAlign=top;strokeWidth=2;strokeColor=#6D1F00;shadow=0;dashed=0;shape=mxgraph.ios7.icons.data;fillColor=#a0522d;fontColor=#ffffff;" parent="1" vertex="1">
          <mxGeometry x="265" y="257" width="50" height="59.1" as="geometry" />
        </mxCell>
        <mxCell id="fYESKVRvRu58Ykt4SPlZ-27" value="" style="html=1;verticalLabelPosition=bottom;align=center;labelBackgroundColor=#ffffff;verticalAlign=top;strokeWidth=2;strokeColor=#36393d;shadow=0;dashed=0;shape=mxgraph.ios7.icons.data;fillColor=#cce5ff;" parent="1" vertex="1">
          <mxGeometry x="475" y="257" width="50" height="59.1" as="geometry" />
        </mxCell>
        <mxCell id="fYESKVRvRu58Ykt4SPlZ-28" value="" style="html=1;verticalLabelPosition=bottom;align=center;labelBackgroundColor=#ffffff;verticalAlign=top;strokeWidth=2;strokeColor=#d6b656;shadow=0;dashed=0;shape=mxgraph.ios7.icons.data;fillColor=#fff2cc;gradientColor=#ffd966;" parent="1" vertex="1">
          <mxGeometry x="675" y="257" width="50" height="59.1" as="geometry" />
        </mxCell>
        <mxCell id="fYESKVRvRu58Ykt4SPlZ-35" value="&lt;font style=&quot;font-size: 18px;&quot;&gt;Raw Data&lt;/font&gt;" style="text;strokeColor=none;align=center;fillColor=none;html=1;verticalAlign=middle;whiteSpace=wrap;rounded=0;" parent="1" vertex="1">
          <mxGeometry x="240" y="328.9" width="100" height="30" as="geometry" />
        </mxCell>
        <mxCell id="fYESKVRvRu58Ykt4SPlZ-36" value="Cleaned , Standradized Data" style="text;strokeColor=none;align=center;fillColor=none;html=1;verticalAlign=middle;whiteSpace=wrap;rounded=0;fontSize=17;" parent="1" vertex="1">
          <mxGeometry x="410" y="333.5" width="180" height="30" as="geometry" />
        </mxCell>
        <mxCell id="fYESKVRvRu58Ykt4SPlZ-37" value="&lt;font style=&quot;font-size: 18px;&quot;&gt;B-Ready Data&lt;/font&gt;" style="text;strokeColor=none;align=center;fillColor=none;html=1;verticalAlign=middle;whiteSpace=wrap;rounded=0;" parent="1" vertex="1">
          <mxGeometry x="622.5" y="327" width="155" height="30" as="geometry" />
        </mxCell>
        <mxCell id="fYESKVRvRu58Ykt4SPlZ-41" value="&lt;div&gt;&lt;b&gt;&lt;br&gt;&lt;/b&gt;&lt;/div&gt;&lt;b&gt;object Type:&amp;nbsp;&lt;/b&gt;Tables&lt;div&gt;&lt;b style=&quot;background-color: transparent; color: light-dark(rgb(0, 0, 0), rgb(255, 255, 255));&quot;&gt;&lt;br&gt;&lt;/b&gt;&lt;/div&gt;&lt;div&gt;&lt;b style=&quot;background-color: transparent; color: light-dark(rgb(0, 0, 0), rgb(255, 255, 255));&quot;&gt;Load:&lt;/b&gt;&lt;/div&gt;&lt;div&gt;&lt;div&gt;&lt;ul&gt;&lt;li&gt;&lt;b style=&quot;background-color: transparent; color: light-dark(rgb(0, 0, 0), rgb(255, 255, 255));&quot;&gt;&amp;nbsp;Batch Processing&lt;/b&gt;&lt;/li&gt;&lt;li&gt;&lt;b style=&quot;background-color: transparent; color: light-dark(rgb(0, 0, 0), rgb(255, 255, 255));&quot;&gt;Full Load&lt;/b&gt;&lt;/li&gt;&lt;li&gt;&lt;b style=&quot;background-color: transparent; color: light-dark(rgb(0, 0, 0), rgb(255, 255, 255));&quot;&gt;Truncate &amp;amp; insert&lt;/b&gt;&lt;/li&gt;&lt;/ul&gt;&lt;/div&gt;&lt;/div&gt;" style="text;strokeColor=none;align=left;fillColor=none;html=1;verticalAlign=middle;whiteSpace=wrap;rounded=0;" parent="1" vertex="1">
          <mxGeometry x="212.25" y="380" width="170" height="107" as="geometry" />
        </mxCell>
        <mxCell id="fYESKVRvRu58Ykt4SPlZ-43" value="&lt;div&gt;&lt;b style=&quot;background-color: transparent; color: light-dark(rgb(0, 0, 0), rgb(255, 255, 255));&quot;&gt;object Type:&amp;nbsp;&lt;/b&gt;&lt;span style=&quot;background-color: transparent; color: light-dark(rgb(0, 0, 0), rgb(255, 255, 255));&quot;&gt;Tables&lt;/span&gt;&lt;/div&gt;&lt;div&gt;&lt;b style=&quot;background-color: transparent; color: light-dark(rgb(0, 0, 0), rgb(255, 255, 255));&quot;&gt;&lt;br&gt;&lt;/b&gt;&lt;/div&gt;&lt;div&gt;&lt;b style=&quot;background-color: transparent; color: light-dark(rgb(0, 0, 0), rgb(255, 255, 255));&quot;&gt;Load:&lt;/b&gt;&lt;/div&gt;&lt;div&gt;&lt;div&gt;&lt;ul&gt;&lt;li&gt;&lt;b style=&quot;background-color: transparent; color: light-dark(rgb(0, 0, 0), rgb(255, 255, 255));&quot;&gt;&amp;nbsp;Batch Processing&lt;/b&gt;&lt;/li&gt;&lt;li&gt;&lt;b style=&quot;background-color: transparent; color: light-dark(rgb(0, 0, 0), rgb(255, 255, 255));&quot;&gt;Full Load&lt;/b&gt;&lt;/li&gt;&lt;li&gt;&lt;b style=&quot;background-color: transparent; color: light-dark(rgb(0, 0, 0), rgb(255, 255, 255));&quot;&gt;Truncate &amp;amp; insert&lt;/b&gt;&lt;/li&gt;&lt;/ul&gt;&lt;div&gt;&lt;b&gt;Transform:&lt;/b&gt;&lt;/div&gt;&lt;/div&gt;&lt;/div&gt;&lt;div&gt;&lt;ul&gt;&lt;li&gt;&lt;b&gt;Data cleaning&lt;/b&gt;&lt;/li&gt;&lt;li&gt;&lt;b&gt;standarization&lt;/b&gt;&lt;/li&gt;&lt;li&gt;&lt;b&gt;Normalization&lt;/b&gt;&lt;/li&gt;&lt;li&gt;&lt;b&gt;derived columns&lt;/b&gt;&lt;/li&gt;&lt;li&gt;&lt;b&gt;encrichment&lt;/b&gt;&lt;/li&gt;&lt;/ul&gt;&lt;/div&gt;" style="text;strokeColor=none;align=left;fillColor=none;html=1;verticalAlign=middle;whiteSpace=wrap;rounded=0;" parent="1" vertex="1">
          <mxGeometry x="417.5" y="380" width="165" height="230" as="geometry" />
        </mxCell>
        <mxCell id="fYESKVRvRu58Ykt4SPlZ-44" value="&lt;div&gt;&lt;b style=&quot;background-color: transparent; color: light-dark(rgb(0, 0, 0), rgb(255, 255, 255));&quot;&gt;object Type:&amp;nbsp;&lt;/b&gt;&lt;span style=&quot;background-color: transparent; color: light-dark(rgb(0, 0, 0), rgb(255, 255, 255));&quot;&gt;Views&lt;/span&gt;&lt;/div&gt;&lt;div&gt;&lt;br&gt;&lt;/div&gt;&lt;div&gt;&lt;div&gt;&lt;div&gt;&lt;b&gt;Transform:&lt;/b&gt;&lt;/div&gt;&lt;/div&gt;&lt;/div&gt;&lt;div&gt;&lt;ul&gt;&lt;li&gt;&lt;b&gt;integration&lt;/b&gt;&lt;/li&gt;&lt;li&gt;&lt;b&gt;Aggregation&lt;/b&gt;&lt;/li&gt;&lt;li&gt;&lt;b&gt;B logic&lt;/b&gt;&lt;/li&gt;&lt;/ul&gt;&lt;div&gt;&lt;b&gt;Data Model:&lt;/b&gt;&lt;/div&gt;&lt;/div&gt;&lt;div&gt;&lt;ul&gt;&lt;li&gt;&lt;b&gt;Star Schema&lt;/b&gt;&lt;/li&gt;&lt;li&gt;&lt;b&gt;Flat Table&lt;/b&gt;&lt;/li&gt;&lt;li&gt;&lt;b&gt;Aggregated Table&lt;/b&gt;&lt;/li&gt;&lt;/ul&gt;&lt;/div&gt;" style="text;strokeColor=none;align=left;fillColor=none;html=1;verticalAlign=middle;whiteSpace=wrap;rounded=0;" parent="1" vertex="1">
          <mxGeometry x="620" y="380" width="180" height="200" as="geometry" />
        </mxCell>
        <mxCell id="fYESKVRvRu58Ykt4SPlZ-45" value="" style="image;aspect=fixed;html=1;points=[];align=center;fontSize=12;image=img/lib/azure2/power_platform/PowerBI.svg;" parent="1" vertex="1">
          <mxGeometry x="880" y="210" width="51" height="68" as="geometry" />
        </mxCell>
        <mxCell id="fYESKVRvRu58Ykt4SPlZ-48" value="Bi &amp;amp; Reporting" style="text;strokeColor=none;align=center;fillColor=none;html=1;verticalAlign=middle;whiteSpace=wrap;rounded=0;" parent="1" vertex="1">
          <mxGeometry x="894" y="297" width="90" height="30" as="geometry" />
        </mxCell>
        <mxCell id="fYESKVRvRu58Ykt4SPlZ-50" value="AD-Hoc&lt;div&gt;SQL Queries&lt;/div&gt;" style="text;strokeColor=none;align=center;fillColor=none;html=1;verticalAlign=middle;whiteSpace=wrap;rounded=0;" parent="1" vertex="1">
          <mxGeometry x="888.85" y="450" width="90" height="30" as="geometry" />
        </mxCell>
        <mxCell id="fYESKVRvRu58Ykt4SPlZ-52" value="Machine Learning" style="text;strokeColor=none;align=center;fillColor=none;html=1;verticalAlign=middle;whiteSpace=wrap;rounded=0;" parent="1" vertex="1">
          <mxGeometry x="885" y="597" width="90" height="30" as="geometry" />
        </mxCell>
        <mxCell id="fYESKVRvRu58Ykt4SPlZ-60" value="" style="line;strokeWidth=1;rotatable=0;dashed=0;labelPosition=right;align=left;verticalAlign=middle;spacingTop=0;spacingLeft=6;points=[];portConstraint=eastwest;" parent="1" vertex="1">
          <mxGeometry x="610" y="366.5" width="180" height="10" as="geometry" />
        </mxCell>
        <mxCell id="fYESKVRvRu58Ykt4SPlZ-61" value="" style="line;strokeWidth=1;rotatable=0;dashed=0;labelPosition=right;align=left;verticalAlign=middle;spacingTop=0;spacingLeft=6;points=[];portConstraint=eastwest;" parent="1" vertex="1">
          <mxGeometry x="410" y="366.5" width="180" height="10" as="geometry" />
        </mxCell>
        <mxCell id="fYESKVRvRu58Ykt4SPlZ-62" value="" style="line;strokeWidth=1;rotatable=0;dashed=0;labelPosition=right;align=left;verticalAlign=middle;spacingTop=0;spacingLeft=6;points=[];portConstraint=eastwest;" parent="1" vertex="1">
          <mxGeometry x="205.88" y="366.5" width="182.75" height="10" as="geometry" />
        </mxCell>
        <mxCell id="fYESKVRvRu58Ykt4SPlZ-63" value="" style="shape=singleArrow;whiteSpace=wrap;html=1;fillColor=#647687;fontColor=#ffffff;strokeColor=#314354;" parent="1" vertex="1">
          <mxGeometry x="137.25" y="270" width="90" height="37" as="geometry" />
        </mxCell>
        <mxCell id="fYESKVRvRu58Ykt4SPlZ-64" value="" style="shape=singleArrow;whiteSpace=wrap;html=1;fillColor=#647687;fontColor=#ffffff;strokeColor=#314354;" parent="1" vertex="1">
          <mxGeometry x="360" y="268.05" width="90" height="37" as="geometry" />
        </mxCell>
        <mxCell id="fYESKVRvRu58Ykt4SPlZ-65" value="" style="shape=singleArrow;whiteSpace=wrap;html=1;fillColor=#647687;fontColor=#ffffff;strokeColor=#314354;" parent="1" vertex="1">
          <mxGeometry x="560" y="268.05" width="90" height="37" as="geometry" />
        </mxCell>
        <mxCell id="fYESKVRvRu58Ykt4SPlZ-66" value="" style="shape=singleArrow;whiteSpace=wrap;html=1;fillColor=#647687;fontColor=#ffffff;strokeColor=#314354;" parent="1" vertex="1">
          <mxGeometry x="777.5" y="270" width="90" height="37" as="geometry" />
        </mxCell>
        <mxCell id="fYESKVRvRu58Ykt4SPlZ-68" value="" style="line;strokeWidth=1;rotatable=0;dashed=0;labelPosition=right;align=left;verticalAlign=middle;spacingTop=0;spacingLeft=6;points=[];portConstraint=eastwest;" parent="1" vertex="1">
          <mxGeometry x="30" y="436.5" width="150" height="10" as="geometry" />
        </mxCell>
        <mxCell id="fmKW4fnp1R0cMEkp2_Lg-1" value="" style="shape=image;verticalLabelPosition=bottom;labelBackgroundColor=default;verticalAlign=top;aspect=fixed;imageAspect=0;image=data:image/png,iVBORw0KGgoAAAANSUhEUgAAAgAAAAIACAYAAAD0eNT6AAAQAElEQVR4AeydB2Ac1bX3z2zfVe+WZNmWe8U2Di0EAwZsagglJCEN0oEkLyEP8vheCikvEEh4CcmDNBLSSAIkhN4xmN5Nce9NstW7tHW+e9aWkWWV3Z12Z+YPO9rZmXvvOed3xnPP3DYewn8gAAIgAAIgAAKuI4AAwHUuh8EgAAIgAAIgQIQAAFcBCIAACIAACLiQAAIAFzodJoMACIAACLibAFuPAIApYAMBEAABEAABlxFAAOAyh8NcEAABEAABtxPYbz8CgP0c8BcEQAAEQAAEXEUAAYCr3A1jQQAEQAAE3E5g0H4EAIMk8A0CIAACIAACLiKAAMBFzoapIAACIAACbifwnv0IAN5jgT0QAAEQAAEQcA0BBACucTUMBQEQAAEQcDuBofYjABhKA/sgAAIgAAIg4BICCABc4miYCQIgAAIg4HYCh9qPAOBQHvgFAiAAAiAAAq4ggADAFW6GkSAAAiAAAm4nMNx+BADDieA3CIAACIAACLiAAAIAFzgZJoIACIAACLidwOH2IwA4nAmOgAAIgAAIgIDjCSAAcLyLYSAIgAAIgIDbCYxkPwKAkajgGAiAAAiAAAg4nAACAIc7GOaBAAiAAAi4ncDI9iMAGJkLjoIACIAACICAowkgAHC0e2EcCIAACICA2wmMZj8CgNHI4DgIgAAIgIC0BNQ/TCmO/2HCVbHbq58TW5PYVPtuNbH47dW7Yn+ofknYcGvijxPOUG+eHjQaPgIAowmjfBAAARAAAV0JRG+v+VhciW5RFeUGUfDxYqsQm40/ql8lmkgKHSOM+FJKVR6KF/Y2xG+vuVq9c2JYHNPwGT0rAoDR2eAMCIAACICAZATit0/4hkLqX4VapWJz8qdUJfXHib7kpvifJpxohKEIAIygijJBAARAAAR0JxD/U/UKldJP/YruhUtaoEpUq6Y8j4vugS/louJYeRAAjEUH50AABEAABKQgoN5JXjVFNwllXFhvqX7RPXBr7PYJlwn7dfu4EKRu7FAQCIAACICASQQSPVXcDD7XJHGSivH8PP7HCSdnrtzYKREAjM0HZ0EABEAABCQgkFI8p0ighsUqiJYAVfmzXgMDEQBY7E6IBwEQAAEQGJ+AotDk8VM5PwWPCUj0pb6SiaXjpUEAMB4hnAcBEAABEJCBgKj7ZFDDeh1UUr+p/mFKSKsmCAC0EkR+EAABEAABwwmoKu00XIh9BJQmPQPjjAUY3xgEAOMzQgoQAAEQAAGLCXg86hMWqyCV+JTqOUerQggAtBJEfhAAARAAAcMJ+MJ7Vwkha8SGT5qAuiT9NcqfTA4jAMiEEtKAAAiAAAhYSkC5iJIKKVcKJVJiw4eoWisEBABaCSI/CIAACICAKQT8lzQ8JoKAa0wRJr0QZcLoKmZ2BgFAZpyQCgRAAARAQAICIgi4QVGU/5JAFYtVUP1aFUAAoJUg8oMACIAACJhKwP/phh8jCBgdeaZnEABkSgrpQAAEQAAEpCGAIEC7KxAAaGeIEkAABEAABCwggCBgJOiZH0MAkDkrpAQBEAABEJCMAIKA3B2CACB3dsgJAiAAAiAgAQEEAe85IZs9BADZ0EJaEAABEAABKQkgCMjeLQgAsmeGHCAAAiAAAhISQBCQnVMQAGTHC6lBAARAAAQkJoAgIHPnIADInBVSggAIgAAI2ICAW4OAbF2DACBbYkgPAiAAAiAgPQEEAeO7CAHA+IyQAgRAAARAwIYE3BUEZO8gBADZM0MOEAABEAABmxBAEDC6oxAAjM4GZ0AABEAABBxAwA1BQC5uQgCQCzXkAQEQAAEQsBUBDgJIpV/bSmmDlUUAYDBgFA8CIAACIGA9gdgfaheRQhdar4kRGuRWJgKA3LghFwiAAAiAgE0I7K/8U08IdcvEhs8BAggADoDAFwiAAAiAgPMIuKHyz9VrCAByJSdRvpPuaCg/+b6d5y57cM+1Kx5r+sfpTzSvPGtl2+qzVrVv++ALXS3nvdLbd+Eb0diFbwzEL3o7nuLtI+8m1IvXqento2JfHFN5u+D1fvWC1/rVc1/sVs96pk1d/niTesqDe9QT79mhHvf3zeqS369R5//ydXXGDc+r0657Vpdt6nXP9oiy2vZvz20T31umXf/s69N+9Owj03/07F+n/ei5m0Wa706/7tnLp16/6qzpP1o1d+JNL4T1cMHmvd2V6xs7LlzX2PnddY0df1vX0PG62LaKrU1sMbGp2DqkZrBp1wZ1z5bb1Lb1V6g97y5Xo6tnqok3KtTUG5H0xvt8jM9xmj1bf69ynnUNctsF/bT7Z8v6F+PJQMEb4l6BJ38BYfgHAcBwIhL/PumebYtOebDhmhVPND1w9jPtW897ubf7ordiyZrF1c3VM+r+PWFqzXfL6iouKq0tP6loQsnCooriKfklBWXhgkg4EA74A+Ggz+f3Kbx5vd6Dlnq8XhLH0lswEqJgXojyivOpqLKEyidWUNXUGqqdPYnqF06jWcfNpSNOOZKOOuf9dOQZx9D8ExfStCUzqXrGRJG+mAKhwMFyM91RiPJE2pL9mzpFfE8llY4U/XUrVIUuJkX9ikhzrUr0f4qqPKAqyppgNNknAoW9IjB4SXz/adp1q66aft3zyyf/z6pqkX/Mz4bGzqPWNXTetK6h4514KrlXVekuUtVrhcyPioxHiq1ebKyPX3zjIyEBb6qNSnp/Q1NaTqPpTfOppuNL6d950ZUUSG4jr9ohLpt4euN9PsbnOE9N+xfTeaa0LKeSvt8SlyWhiVBJI4Fg93qqef0zPm+8U9w+NBYmdfbclUMAkDs7Q3Mu++vWyac80vht8TT/rHgab/3I2/Fkzewpb1ZNrf5RWW3FWYWVxfXhwki+L+C3zIf+oJ/ySgqovK6SJs2bQrPfP58Wn340LRGBwezj59PEOZOpqKqEvH4fGfRflfiXfYwo+5NEyg0qpR71eZSGadc92yS2x6ddt+r706579vSp1z9etKm1tVA84f/n2oaOtSlVfYVI/ToRzRebKEL8xccWBHypRqrq+m+a1rQo/R2Kr85Z71D8Tarq/H+irMVU2fUt8qX25lwWMspFgCv/6tcuJW+8Qy7FJNPGsspDMg6Wq7P0zu31pz6y93/PfLptzfmv9vdXLa7fXjV5wvfF0/wHxNN4qahEbeMrnwgMiiqKqXZWHc0+bh4tOfNYWrBsMU0RLQjCnnRLg8HAK0T5pxIp3yaihz0Uav/CnVvbbn2x4cbnt3fO6Y0lxWF87ERAUePpJ/ypTcelvz1qv27qe9Q+Ku39NU1tOprKe24UDU9R3cpGQeYTcFvlr4WwbSoVLUbKmpf77Vc80fzQuS90tdbOn7S1cnLV14qrSuaG8kMhxUHPpWxLpDCPquqracZRs+nIM4+h+SctojrRalBQVkh8ngz8T1VJ2dkx4H1wQytd/8xOuvjv6+hrD2ym21/fS2ua+iilGigcRWsmEEhsTjf185O/R+3VXN5oBXhEUFHefQNNbj5ddCNsGS0ZjktMAJV/ds5BAJAdL82pudI/Y2Xrix9+M5aoFv32ZbXlZ4hm9FJFcVCNPw4lRVFItGpQzYyJNPeEI2jR8qNp8oKpxMHAOFl1OZ0UEcHm1n66+91m+ubDW+jSu9fRb15pTAcDiAV0QaxbIQUDD4jK/1QKJtboVuZ4BYUS76ZlFgw8NF5SnJeIgDsrf20OQACgjV9GuZc9uPPS059qef3Db0bTlX7JhNJj/SH/e6PwMirFuYkC4QBNmFazPxhYcRRNml+fDhDMsri1L0H3rWtJBwOfuXs93fZaI20SAYJZ8iFnZAJFfX+nmo7Pk5FP/SNLJvKkeqi24zNU3Hf7aElwXCICqPxzcwYCgNy4jZtr6aOb6057dN+fz3u1r2/C1Lrfl1aXHekPBVDpj0MuGA5S9fTadBfBwlOOTLcS+AK+cXLpd7q5N073rGmhr4sugsv+vSndStAdxZgB/QhnVlJx3x+puvMrpKiJzDIYkUpN0oTOq9IzBYwoHmXqQ8DNlb9WgggAtBIclv+U+xuv4Cl6NbX1OysmVX4inB8OD0uCnxkSCBVE0uMEFq84Oj3V0KwugkH1dnUOpMcJXHLXOrrpuV20tsm4/udBmfgm4mb/CV3flAZFVde3hU4PS6MPFHmPQLBrLVW/dglG+7+HJKs9BABZ4Ro58UkrVd+pDzf84EMvdXdXTZ/wy8LK4nqPF2hHppX9UWbJUw15vMCCkxelpx0aPnJwiJrRpEpPbemgqx/eSl+9f3N6P4WRg0MI6bfL8/WrO79KJJ6+9StVY0lCl+qOyyiQ2KSxIGTXk0C68n/9M6Ly79SzWBuVpV1V1FIaGK54ZHv1aY/t+1d5Uay/ckr1tyJF+fkaikPWDAgIxunWgEWnLdnfPWDcGgMjarO1rT/dGvD5ezamuwcwpXBETDkdVChGtW2Xiv737pzyG5mJxyHUdHxRdEnEjRSDsjMkgMo/Q1DjJEMAMA6gkU5zxX/6k81PFNXW7qmoqzwvEDaxk3okhVx4jFcs5GmEC5e/j2pm1pHHZ+7win09sXT3wOf+uYHufKeJBuIpF3pBX5NLe241dbR/ttqH4u+k1yDINh/S60sAlf9+nnr8RQCQBcWT7mgo5yf+ouqa3aU15af4fD4li+xIagABXsK4bu5kWrz8KOJphV6Tu166Y0n60xv76NJ/rk+3CEQTmEiYi5t5Fb6ynptyyWpqHl4oyJfEioGmQh8iDJX/EBg67CIAyADiOfc3RJY/1nRX5bzyffzE7wtYt/xuBuq6Mokv4EsPGDzitPdRZX01mTlGgMR/PFOAFxb6/D0b6KH1rYQxAgJKFp+ynl+QR+3LIoc1SbkroLT3FmuEu1xqerT/659Fn3/6OtDnDwKAcTiecv+eq/0TSlrL6you9KHiH4eW9af5ZUT80iJ+YVFxFb/Px1yd2vridMvLDXT5vZvotd3y9WWbSyMzafwynqK+P2eWWIJUPEWRdZZAFdeokK78sba/7v5GADAK0hPv3XHa2avad1VNr/lxKD8UGiUZDktKIJwfplnHzSN+KVG4IGK6lru7onTtk9vpW49to10dA6bLt5PAwv67xdN/v21U5paKwv57bKOv3RVF5X+4B/U6ggBgGMnjHtlVesYTTS/WzKh7rLCieOKw0/hpMwJFFcW04OTFxG8m5OmEZqu/urGHvnL/ZvrLm/solsRAwZH4F/XfNdJhqY8VDdwptX5OUQ6Vv7GeRAAwhO/JD+y5vKa8vLGktuJYRcH4viFobL2reJT0mwmPWHYkiaDOdFsSKZX+/nYTXSG6Bd4SAYHpCkgskAfUheJvSazhyKqFYm+SL9k08kkc1YUAKv/RMOp3HAGAYMnL9p75VOvqCVNr/i+YFwqIQ/g4kIDwLc05fn56HQGfyesHMM7G7li6S+Cnz+0mnj3Ax9y+RWLPCwR2nDmhUiT+gtAdHyMIoPI3gurhZbo+AOBBfpWVdduKTJ/72QAAEABJREFUq0sX4qH/8AvEiUd4VcEFyxZb0hrAVd3KLe30FbQGpC+tcPyN9Lcd/4Rir9lRbel1Tk/1e81ey/sm/UXUNfEiU9jqKcS1AQBP7Tv9yeanK6fV/DiAl/ToeU3ZoqxAOJhuDZi8YCopHvP/GbT0xdOtAb95pZHiKfeODbDz8rrBxBZbXOt2UjL95G+zqX5JXwE1Hvlbap77PWqb+Q074Sbz73wS4Dn5gd1n+aqKWkpryk9U0NUvgUesU4FfQzz/pEUUKcwzXQluDeDXEH/tgc20vd2dMwUCya2mc9dLoB8BgF4o0+WkK3+bTfVLV/5LbqNo0YK0De1TPmdwEJAWo9sf1wUApz229/dVU6ofCBdE8JY+3S4jexcUKYzQ3BMXUsWkSksM2dEepW88tJme3NxhiXwrhXpSXVaK1yTbq9pXd02GG5DZCZX/IBYOAronXrBq8LfM364JAI55aFMhD/SrqKu61GPycrEyXwDQbT8BXkJ46pEzqX7RdOJZA/uPmveXlxD+3+d30S9f3EM8a8A8ydZK8qTs+4plT6rHWngOke6kyn/QJc1zf1ioKMp/Df7W61vvclwRACx/oGFJdemEPcXVpQv1BojynEWgcsoEmrd0IQUjQUsMe2RjG1310BZq6nHLW+e4I8QS1DoIde/YDR3gpYtwYuXPhomreuHW09bfJnsQ4PgA4JT7G68orit/JYJX9fJ1iS0DAnnF+TRPdAkUlBVmkFr/JJta+0WXwBZa22Tfp+NMqPDNn1I2rkSTKQp2vpOJqUgzAgH2f7XN+/xHMGvwkJKi5FL/pxt+rF8QMFi0ft+ODgBOfbjhpor6yl9iDX/9Lhi3lOQPBtKzBMrrKiwxub0/Tv/96HZaudWZ4wIGb/5k57cnJomqX/8sgoAc/oUM+t8bt8/1PXzA33hmq4pnHqeROQhwbABw2mP7/lUxufrr6O/nSxBbLgQUj4emLZlFtbMn5ZJdc564eDq+6dlddMdbzlpx7pCbf8ynmZNlBUS95E10IwjI0gGH+D/LvFYlz7byZz0VNTWLv3nTIwjgcvTePHoXaHV5J/1hW+jMp9vWVNRVnqdgip/V7nCE/IkiAKhfPIMUxfwLShUE71i9j25+fjclU/xLHLDxZ/giL6qoRO1qzqDu6SDgjc8T22ZXW8zSmxlV23CRn8b33X5wql/mrJSZQ9NyEKCqyveGHtO4r/mG4KgAgF/kUzCjbGdxVclcjWCRHQQOIVA5uYpmHjOHrGpRemxzO/3Pyh22fqFQ+slPNJl7450H2ap9voP7dttR+/wHVWabuGLDmICDSA7bGcn/hyWS7ED6yf/I31K0MKcqpXy4OcFLG65VcpodMLyk9O/m9F8NfxwTACz/1+bKysKiTQVlBdZ02mpwArLag0DxhFKafdw88vq8lij8yu5u+s4T26k/br+Bc6M9+aV63qtELYGqQWiq99DgBS0Bo8Mczf+j57D+DC/vm9uT/0HdCw7uDdnRsSVgw5Bic9p1RACw7K9bJ0dqqjbnlRSU5kQBmUAgQwIF5UU0+/gFZMXLhFjFd/f20n8/tpXs9DKh9M3/9c8QPyWzDYdsCQ+pNmwFSOssdD/EFvGDbawWtrLN4ic+ggCzYCbMRvy0xSdd+S/5fa5P/oM2jhgA8EluCcimO4DzDN8UVb1/+LFsf9s+ADjlwd0zC2dMWBspyh8VdrZQkB4ExiKQX5IvgoD55Asc+gQ4Vh49z21s6advP7aNuqNJPYs1pKxMmn1TndasuaDF4FR7aNTsXNGhO2A/nkz8vz+lPH81NvsPNWTMC5uDAA3dAe2+QOB3Q4Xlsm/rAIBf41tUUfpGpCAcycV45AGBXAnkFefTHAtbAja39tP/Ey0BPTF5g4D0k99r47/VLdUu7pMp8wdY5up7ErqmOgNjZkd3AKUHRXIg5LXTVD9/EWls9h/zuhh+MrPugOG5SBWtB5crH9/ZftiZLA/YNgA46Y6G8pLiqndCBWHz3+KSJWSrk/sVlQo9KZrgTVK9L5Hepovvuf448cb7g8c5DaflPFbrLbv8SFEezTpuHnksGhOwrW2Arn1iOw1IOCYgXfmLpnDvkAF/o/oz6aFU2+hP1KPms+hEWleh83ji2XZu+mYW46V12nm2mW1nBnaxTadm/6zNTbcEqOrVImMmg3tE+KleJfL8XaTX/LFlAMCj/YvqCzbmFeYXaSbggAL42alUVPCzRYV+QjBKZ4f76ZN5vXRFQTddU9RJ/1XYRf8h9j+f30OfEMd5+5j4viDSR7zxPh/jjdNwWs7DebkMPs5lfiAYpVlCBstimQ5Ap9mE/NICS2cHrG/uox9INjsgl5t/qiVM/GSt2SFGFyBuv8lmoWuGcrgC5IqQmWSYxfbJ2Fa2mW23izFWVf6DfPyX7r1RIeUM8Xut2A75DPmxRlGV0/2X7P3pkGOadm0XAJxzf0OkPL9ovWiCLdFkuY0zFygpmiMq4hWhAbo0v4euFhX8FaKC/7Co0E8SxxYHYjTFlyCuqLX0UnNeLoNbB7jMk0XZFwkZLItlsuzl4hjrku/RPCXVth4pqiimGUfNJlIUsuK/txp76Pqnd1JKgnUCcr35q3EPJZsyr1it4Mwyk/tEb+MIg//43GgbV4RcITKb0dI45TjbyLayzXaxyerKf5CT/5KGx/yRxiMURV2mqvQjUujPvIk76//wMXFuof/ShscH0+vx7dGjEDPLSBaEXnXbVD+fotIMf4LOCPXTl0VF/7XCbrpQVMRHiyfyiaJZPyDOm+kDlsUyWfYxQgfW5esFXekWh9NF68N0oSvrzOncsvEUwamLpltmLk8R/MVLeyyTz4K1DvhKtURIHeCwk0uTb1P7fZRqzS1I4QqR+8OdvE6AVv9b4XEdB/zpor5yESX9n967Mnhp438HPt34qcCnGz8VvKTxW3yMz+kiZEghtgoATn+i+Um3LPITFJX6EeIp/yN5fXSVeML/aKSX3heMUYlo6h/iP6l2ubXgKNH68DGhK+vMui8QNnCwIJWiBilTMbmKamZMNKj08Yt9fFM73f2u5rVBxhc0Qor0zV/ri13Eo05yR4GcXQHc9L9L6CZ0HMH8jA6lBwa+7sx3B+ji/4wo6pcoXfkvuY2iRQv0K9RmJdkmADjtob0/K60tX2Yzvlmpy87gJ31uZr9SVPrniqf8mb44yftMNLp5rDPr/iFhwzeELdxKwC0DbOPouex/pm7eFCq36AVCTO+Pr+81/QVCet781ZiXklzRsjESbazT4NK/WtRyYhCgp/+1sM0mr10q/2xsyiWtLe7Hpz6w5yvlkyv+IxcD7ZCH+/RPDA7QV0TzPj/pzxJPzVyB2kH3THRkW3icALcMsI1LQ1FimzPJa8c09YtmUH5poSWqq0LqL17YQ+uae8We8R8jbv6prgAl9+Qbr3yGEpK784l1yjD5uMmcFAQY4f9xAWpMkPQVUKPLn/wHEUofAJx0z7ZFJRPLf8ZvZhtU2infVZ4knSX6zL8s+vS5UuTpd06xbTQ72EYOdr4qgh2egVDjlXce+2g2jHec3xfA7w0IhMeeKz5eObmejyVT9D8rd1JrXyLXIjLKZ+TNn6faJXeLJveMNDEuEQciYy36k6tkJwQBRvo/V67j5UvaqvIfzxrt56UOAHjEf1F1xTP+YEBqPbN1Q52o9D6e10tfKOihI0WfOT8hZ1uG3dN7FEqvQfCZ/B66WLCo9TkrEPAH/TTj6DmksKEWOKujP0E/enoHJQyaGWDGzZ8XCEruEC0pov/ddIRCJsvmQMQo2XYOAszwv97cUfkfTlTqijVZEHo9ryhP3AEOV9yORypFxc9PvZeISm+qz9inM7vwEXEATRMsPpO3f40CJ7UI5JcU0OT5Uy1zxYbmPvrdq426yzfz5s9N74nNxabODuDR/olNxbo2+4/mBDsGAWb6fzRu2R63Y+WfrY25pPfkksmMPKc9vPdXxVUls82QZbQM7u/+ULiPviAqfl55z2h5di2f1xvgFgEOkooknu2QDd+qqdVUMbkqmyy6pn1gfSs9vrldtzKtuPnz4DuukJMNecbOEBBP/ammCCW2FBEPRtQN2jgF2SkIsML/4+Ab9zQq/9ERSRkALPv3nnPK6iq+OLra9jjDc+G5v/vLoql/QSBO/LRrD82t05IZcZB0mQiWeFVDJ3SPTD5iGoULcps/rocnfvXyHtrVGdVclNU3f56DH99QQrqvGsgVf0uYuOz0Qj8qX4WacWVVgB2CAKv9nxXQA4ntW/kfMMDgL+kCgGMe2lRYVFvyDx5IZbDthhZfJ5q1+YmfB/dxIGCoMAcWzu8i4FUNv1jQTbyqoZ1N9Ho9NG3JLMvGA0QTKv3k2V2axgOkV3h7bfwX+xjup4SHko15FF9fQtwiwM31ucpU+3yijPz9ZYkySZSda1l65EsHAW98npi1HuXpWQbrxAsZeeMdehZraFnpFf7ed7ur5/mPB9gzXgKzz5eES54K54ete1zSaDAv4HNOuJ8+nddLZQ5pxtaIRFN2XlyI30XAsyVCCk9y01ScZZnzivNp4pzJlsnf0tpPf31zX07y009+r3+WvPHOnPIbkinpIW4R4PEB8XWllNxZQNwyoHYHiLsM1JSXVPLv33g/Kn6Lc5yG03KexJZiSrWGiERZhuiYQ6HMmCtamVYMlNL/47BNP/kf+VuKFs4dJ6Wcp83SymOWoEzknHL/nqtLqsqWZJJWxjQ8up+f+hcFYmju19FB3CDLsyW+KLoFJouWFR2LNrWo6ukTqbCi2FSZQ4X9c00z8XsDhh4bbz9989e6wt94QrSeF0/uqc4gcctAYnshRbdOou35j9OG6ob0tr3waYpuqyc+x2k4rdVP+2OZnG4JEAGXDEGALfw/DGa68sc8/2FURv4pTQCw7K9bJ5dMLP+Rwnf7kXWV9ijP9OK+/k+JCqoYT/2G+YnXEOC3HK4QLSxew6QYVzBf29OOnEFevzXa84zA/31+N/XFMnnrKJFTbv7RgtnU+L4/UNJvXfCV7VUlQxDgFP9ny9769OZpIE0AEKotfiQQCnjNM10fSTzC/5JID3FfvzQw9TFNylI4PjxatLDwVEoOCKRUcgylAuEgTZo7ZYwUxp5q6Y3T7W/uHVeI027+CALGdfkhCZzm/0OMw4+DBKSos055sOGrxTac8jdJNEd/Tjz1O20Rm4NXh8Q7vF4As68XPpBYzRFVq5hSTQVlhSOeM+PgIxtaaU1T36iinHrzRxAwqssPOeFU/x9ipMQ/zFTN8gCAR/2Lyv9GM43WQxa/9e6TkV7K99h3YJoeHKwsI09R6WLhgyWiRcBKPbKVzV0B9YtnkFUzXbgr4BeiK4CXDB6uu9Nv/ggChnv80N9O9/+h1uKX5QFAaaDo0WBeKGAXV3ATNPf3nx7uJ+77t4veTtWTfXCm8AWPC2Df2MXOcH6YambWWabu7q4o3flO8yHy3XLzRxBwiFn8jVwAABAASURBVNsP/nCL/w8aLOWOuUpZGgAsvX/XmcU15ceaa3Lu0nhS0Ycjfen+/txLQU4jCPC4AF5B0GdE4QaVWTNjIoXyrJvxercIABq69y8Q5LabP4KAQy9qt/n/UOvd+8vSAKCopOh2RbHHcxsvTPORvD7iV/W693KR23J+5TC/WCggugbk1nS/dopovpg037oBgfyioN+/ttcxo/33U838L4KA/axQ+e/nIMNfs3WwLADgOf8FZQUVZhucizxegIbf3mfHAWe52GvnPLxOAE8VDNskCCipLqOiSuump720s4u2PfcT8sZttMKbr4AadZrn7fYgAJW/ne922nW3JAA46Q/bQkXVJd/Xrr7xJfDKfrwSHS/yY7w0SNCDAM8Q4JYADtz0KM/oMiYvmEpkYUvYj9suoKRqjxm4Rizy4tYgAJU/Sfaf+epYEgAEavP+LPo+g+abm51EXsP/Y6LPv9qbzC4jUltOgIOAj+X1kh26A8IFEaqaYt0bA7ckJtJd/adY7rPxFDCi8h+U6bYgAJX/oOfd/W16ALD8X5sri6uKz5cdOw/448qfX+oju67Qb2QCE0Xg9hERwNlhYGDNrElk1bRApndrzwU0oMo7GcfIyp/t580tQQAqf/a2fJsVGpkeAHjyC//gC/hNl5sNXEUk/lCkn+z+Fjphhus/7MMPiSCAfSozjEAoIFoBJlimYlOyhP7Rd5pl8scSbEblPyjf6UEAKv9BT+ObCXj4j1nbKffuqyqsKj7dLHm5ylkeGqDZ/niu2ZFPMgI8O+AU4VPJ1DpMHV4XwOuzri/+Nz3nUa9q3bTEw4CIA2ZW/kJc+uPUIACVf9q9kv6xRi1TAwB/nucO2Z/+eYW/o4P750Zb4xJINYLAccKnsq8Y6Av6qaq+2gjzMyqzLVVId/QuzyitGYmsqPwH7XJaEIDKf9Cz+B5KwLQAYNn9u2oLq4pPHipctn1uLl4e6pdNLeijE4HThW/5/Q06FWdIMdUzJpLHa10rwO97P0j9qvXjc62s/Acd65QgAJX/oEfl/bZKM9MCgEAweKvP55O2K5bX9D8v3GfY8r4eRaHCsJ8mFIVpSnk+zagqpFnVRemN9/kYn+M0nNaqC8LJcj3i6rtQ+Jjf4Cirnb6AjyotnBHQkSqgu/uWWYpHhsp/EIAtggBfijzFUfLW9JKvvouC03bSlO7TaFZjdXqb0nkSBaduS5/jNJyWRJ5BG2X7lsn/srHRWx9TAgCe959fUXSG3srrVR4/b10UNubFPgGfh6qLwjS9qoBqiiNUHAlQyO8lr6iNRH1EvPE+H+NznIbTcjDAeQn/6Uogz6PSBXl9hgV6eig7YVoNkQgYyaL//th7tmXrAiT9RdT4vtspWrTAIusPF5sOApbcRqzb4WctOuIVlX5ZP/mmd5B/Tht567rJI34r+TFSAklSvGKjBCm88T4fE+c4DaflPL5pHeQp7ycSZVlkxWFimbFs/j9MSd0PWFegxwzR/urITwIh8WhjhrAcZJwcGqBaXzKHnKNnURSFKgtDVF9RQEWRgKhwlNETDzvjEXk5GOC8XIb4OSwFfmohwIs6LQ0OaCnC0LzBSIhKa8oMlTFW4XuSFfR49JixkhhyLv3kd+RvKVo415DytRTKOnHFlPRbt2oj66/4U+knff/s9vS3Ek7w4Zw2JZIgb3UvpcsS31x2TgXplElm/+tkonTFmBIA5BXnXyKd5QcU4nn+xwT1HfTHT+5TyvOoNC8oIvADgnL4UkQeLmNSWT75PPxLHMBHFwIfED7nZYN1KcyAQmpmTDSg1MyLvK3nnMwT65AyffMXT9kyPfkPNyvdEvC+P4iWAAuCAPHPn5/efTPb00/6JFqyhuuX829RFrcEcNneqj7StewMlbKD/zM0JetkVmbwGC38lPsbr4gURfKMlpNL+bzM7/nhftITAjflTxYVdlDH6Vxhv5d4jEBQfOdiJ/IcTkARh84Vvpd1uWARNFNBWaHQ0prPu/Fp9EZslinC7XTztyIIUIJJ4uZ67r83tHLmQKCyj3xTO4llmuJ8IcRO/hfqOuqjZ903IphwYegbI56Q4ODy8AAVelK6acJP/nWleen+fd0KPVCQz+uhupIIWgIO8NDjq0j4fpno/tGjLCPKqJg8wYhiMy7TjOWB7XjzNzMI8BTF0v38Wpr6M3b4gYQsi8cWeApjB44Y92VH/+tLw9rSDA0Alv116+S8soJ6a00cWTo3/y7063eBcz99bXHEkMp/0AIOAiaKAENR+Pl18Ci+tRA4MhAjWd/yWFZbTj6/dQsZP9L/fupM5WnBO2ZeO9/8zQgCPCVR8k7qIkOf+kfzkGgN8E7uEt0NA6Ol0Hzczv7XbLwkBRgaAPgr8m7yWjineTTG/JKfc0TzrzJaghyOVxSEKOjn+QQ5ZM4iC3cxlOUHs8iBpGMR4GvgDHEtWFfNjq6dR7T6lE607o3Z/G6Ah/o/MLqCGs444eZvZBDgKR0g78RuDYT1yeqt6dk/U0Cf4g6W4gT/HzRGw47VWQ0NACLFBVJO/Ts+EKUS0fyrF3xu+i/JM69SLs0LoCtAL+eJcsrEtcArBYpd6T5VU6ztBvhHv/7vB3DSzd+IIICb/b21PdJcizxTQM/uACf5Xxon5aiIYQHAsgd3XhouCIdz1MuwbIVKio4L6tf0z4qWicqfnyR534zNoyhULloczJDlFhk8K0DP8SB6cYsU5REPCNSrvGzL2RCfRGvj+vXiOfHmr2cQwHP4ZXjyH36d8NoBegwMdKL/h7PK/Lf1KQ0LAALhyJetN+9wDU4JD5BfUQ8/keMRrowLwv4cc+eeDSsG5s5upJzcLXRyMDrSKcuP8VgAK5V4qP94XcQ7+eavSxAg7kveSaLZX/S/6wJcz0KETmndNDzpONn/eqI2syxjAgBV9eSXFBxhpiGZyKr2Jmmezm/5yw/5iIOATOTrmYZlsmw9y3R7WQsCMaoS14hsHMosHAfALB4cOJ5UTStaELnh5q81COC5+DwCn5nLuCmhBPFaBLno5gb/Z8tFhvSGBAAnP9jwJRlX/jspNKDxNna4yyIB3+EHTTpipWyTTDRVDD/cnBSSrxUgEA5SXkmBqSyGCtubLKN3YtOHHspq3003/1yDAF6Fz1vZnxVXKxKnFwrK8j0CbvK/FT7RItOjJfNoeSN54S+Mds6q47z863Rf7stmjqZ3yISR/6PJNmPWwWiynXp8pi9Oei8LrQer8tpyPYrJuYyHo8fllNeNN/9cggBPhaj8RTN7TpDNzCR09LKuGcp0o/8zQyNHKv0DANH8HynOny+Hee9psVQ8/b/3S789v1d/hJlqF7BQdqY62jHd0sCAdGqXWhwAPNJ/XNbdAG6++WcVBHhT5CmR75ob7R8BT1HM5AVCbvb/aOxkO6577XXKg7sv9lv5WDwC4SpPkoxa7MWjcMPxCEJNOGSlbBPMs0zEdH+C+JqxTIERBKe7AYryRjhjziHuBtiQmJSxMNz8iTINAjzFottJPFlnDNfqhEJXT3FsTC3g/zHxkCxndQ8A/OGQdC/+OVb061pXTcviauiRDYGjQ2Pf4LIpS6+0RZUlehWVUzmrooszyoeb/3uYMgkCPCUiAHgviy32PGO0WMD/tnBhWkndA4BQXujodMmS/ClQUqT3yP+hpqVUdehPU/etlG2qoRYIW+CPEV87FogeVWRxlbUBwHPRRaPqNngCN/9BEu99jxkE+FIk88j/96w4dC+ts9D90KNE8P9wIiP9lueYrgHA0ju310cK86wbrjwCV17r3cgFeuPJ1AhSzTkUs1C2ORZaJ4WvmUXBuHUKjCCZ3w7otfDdAPx2wG41MoJm+w/h5r+fw0h/RwsCPPlyXWMj6T7aMU/eobrD/6ORkve4rgFAMD/0H2Rhn/hwzNzsvyhw6EU6PI3W3wPxpNYics4ftVB2zkrbKOORohVA138gWm0X/7aKKoq0lpJz/qTqpZeiC0bMj5v/iFgOOThSEKBEEoeksdOPobrD/5l7TqaUut7f/JHAcpmM48FcRi/v2hez7h9wb9Q62TL52Shd+NqZYsDUUS36FlYUa8muOe9L0XmHlYGb/2FIRj0wPAjQY3ndUYUZfGJQd/jfYNAGFq9rABDKD001UNesi14snuCyzpRlhp6BBFnRF88yEQBk6awcki8KyDUYsKC0MAcr9MvyRnz2IYXh5n8Ijox+HBIEBGwcxAeT6PPPyONDE8m1r1sAsOyvWycHI2HzXok3DseAotI0nZf9HUkkV8Rd/cZ2M4wkl2Wy7JHO4Zh+BGaJFgC+lvQrUVtJ4cIIWTkOYFN8Eg2OA0Dln7svB4MA8nFHZe7lWJrTS9S45DaKFo3cLWSpbhCeEQHdAgAqDl4iuigzEmpGoln+BJm1SG9bb5TMnAvAEw9ae6JmYHS9DH5J0AwRBMgCQlEUyi/Jt0ydJHno7dgMPPnp4AEOAsij3y1YB5WyK8LrQeWfHTGSLbluV18wFDhNJuPm+cxruo0lUtQuggCz7OeAw8rZB2bZKYscI6eR5mIjzwbIJZ9eeV5PHIEnP71gko1bAEQwqBsGFGQJAd0CgEAkNMcSC0YQyq/7rRctACOcMuxQc/cA9ZswKr8/lqSWHvssG2oYcBMLniquJb+pbTxjG5dv8TiAV4Ln4MlvbBdlfDblycs4rWwJUx7rWqJkY5GZPvKl0i0ACEVC1g5PHsJ2ii9pWvP/oFhult/T1ktGPpknkina09FHLGtQLr6NJ8CVf524poyXlJmEvEJrK43N3WZ1rmXGw86pUh7rpnVq5ZZUrB2QqlV/5Cd92nBOfWjPYm/Ap1swodUx073mD8pjnRMplXa39xFX1Pxbz40Di11txpStp55OLcuIN0nmysoX9JNfbLnm15qvcyBBHf0JrcUgvyAQ89aLv/b8xH3T7Km4RVrLKFaXSjulqmfJZNw00WRrlT68OM+2lh7Sc30AbvbfIcqMJqxbdMgqnrLInWrCjJJsbI1Y3AqwrQPdUNn4a7S0Md+M0U5JfzyKAEB6H42noC4BQMAfOG48QWad5/XbSzwps8SNKCcpWgJ2ie6Alp6opjUCuKmfR/vvbOshbl0YURgOmkKgQlxT+R7VFFmZCAlb+GZA1m9HGwIA5qB16w8s0VqEZfn7/UdZJtt+guXUWJcAwBvyH7o6iIW2ytJXy5V3S/cAbW3qpo6+WFaBgGhRSefZ2txNPLiQy7IQKUQfIFDrlafZO1I4+pr8B9Q19Gs7WgB04dvn/4AoRxGb3T4K9cvz3Gc3eNLoq0sA4A8EqmSxqM4rVzM5P7nv7eynzfu6qaGjL12x82wBbiXgip033udjHCjsae9Lp+U83O8vC1foQSTTtRXOD1vqkj2d5k2ztdRQg4UnvJU04B//LYsGq5F18dxywbpnndGlGWQ1W5cAIBgOWHs3GkK3RqJFW4aolW4B4NX7uGLn/vxN+7pow97O9Mb7fIwUpcXnAAAQAElEQVTPdQ/E02mH5sW+HAQmSnRtBSIhS6Hs60UAoJcDOiMf1qso08rpCtlPZ9Pg2EiQ5gBg+b82V8oyA4Ab0ipFX62N+ENVGxGoEtcWX2MyqBwIBcjr1fzPN2dT2vviFE3IMyYiZ0MkyNgVuoBSirVdOtlgYF27wh/KJovL08prvuY7SNwXkGYAYLG4Qcu0bru8bodmuRDga6tIXGO55DUiTyASNKLYjMrkqr8JrQAZsRovUdJTSh2RT46XTJrzHXmXEOssjUJQJGcCmgMAxetdnLN0nTNWSdb/r7N5KE4CAlUeecaYWN0N0NSDbgC9Lsm2/C/bohWAV/9ri1yul9muKEdmIzUHAD6fV5oZADxVS2bY0M3+BMq91k4xHUowZGELAOuxr8eaBbdYttO2hGcCtRZ8Q3qzWvKuooRXmjHf0vOSXUHNAYDH550gi5HcBSCLLtDDmQRkusZ8Ab+lkLsG5JkWaSkInYS3RS6jAb+8r9Yd8B9B7Xmf18latxQjt52aAwDF6ymRxUSZbs6yMIEe+hKQ6RqzOgDojiIA0PPqUhU/NZTcRilPgZ7F6lJWSsmjhuJfE+uoS4EoRAoCmgMAr8cjzUuAZBqgJYV3oYTuBBAAvIe0KyrPeIj3tLL3XsxbT41FvyRSvCTNf0KXhpJfU8w3XRqV7KKI7Hp6tCro9XvztJahV/4CiUZo62UTypGLQKHC49/l0MkfsPatfAgAjLkOukNn0t7CG4wpPOtSFaHLT6gnuCLrnMggPwHNAYDH65ViAitP0bL2dii/s6GhdgI+EQD4SY4gwGfhGwGZJMYAMAVjto7Ip6ix6BekKhbe1cST/96iG6kj8gljjHR8qfIbqDkA8Hq9Fl6h7wEOixvze7+wBwLGEZDlWvP6rf2n1xNDF4BxVxlRZ+Sjot/995Ty5BspZsSyU54C2l3yR1H5f3rE8zjoDAKaAwDyKNrL0IFlBAGADhRRRCYEwpK8FVDxWLsuIb/nIhNeSJM7ge7QGbS9/ElTZwfwaH+WiWb/3P3GOe2waa68vR6L70IHKHMXwIFdfIGAoQSCJEcXgMej+Z+vJk7xlBwcNBlhg8wx71TaUfYY7Sv8H0NbA1JKmFoKrqYd5Q8TD0a0ARqoqJGA9juIolj7GHIAgERjZg9ohC+nEpAj5CWyvAUgiQCATPqPxwK0532Btpa/SG15X9J11cCUEhFlXkZbK16llvyrRHgbMMkqJ4uxh22aAwBxE5IjAJBCC3s4HVpqI+CT5FpTLG8BkGdVRG0etU/uhHcCNRX+gLZUvkn7iq6j/sASoXwuF6Qi8r6P9hVeL8paLcr8Plb4EyTd9tEjAJCCmVfErVIoAiUcT0CWa81jcVNEAmMALbvW+WU87ZHPia6BR2hT1RpqKPmteIr/IvUGT0nP1096SsQdMZDeeJ/n8PO5trwvptNynh1lD1N73meJz1tmiEMF28UszQGAXQyFniAAAiDgRAJJTwV1hT4knuJ/SLtK/y6a8l8UQcFG2lC9J71tqtqYPsbnmgp/mE7LeZzIAjZlR0BzAKBKMhAoSbk0g2UHC6lBgAnIcq2lLP6358PAG74csIHAMAL2+alHACDFSCCMR7LPRWd3TRNSXPFEasraPni/R/Ptw+6XAvQHAVsT0P4vWFWluB0mbe0GKG8nAhY/eB9EpVqsiM+LVreDzsAOCBwgYKcvzQFAMmnxXegA7aiKm9EBFPgymIAs11rK8hYA/Jsz+FJD8SBgKAHNAQCpqrXtkAfw9CEAOEACX0YTkOVaUy0PALTfPoz2FcoHAXMJ2Eua5n/BiWQqLoPJ/QgAZHCDK3QYkORaS1i8Fn9+UPPtwxXXC4wEAVkJaP4XnEok+mUwLi5uygkZFIEOjiaQENdZXJIZJ4lY3FLWhUFrX0ZkqfEQDgIjELDbIe0BQDLZI4vRXSnN5shiCvSQlECnCABkUS1pcQBQgABAlksBeoBATgQ015hqQu3ISbIBmRAAGAAVRR5CoFOiIDMWs7bNqzCk+fZxCFv8AAF7E7Cf9pr/BSeTyXZZzG6X6OYsCxPooS8Bma4xtADo61uUBgJuI6A5AEglk/tkgdaBAEAWVzhWD5laADAGwLGXGQyzIQE7qqw5AEgkkutlMbwZAYAsrnCsHs1Jzf9kdGMz0BfVraxcCqrK9+eSDXlAAAQkIaD9bhan1yWxhZqTWJxcFl84VY+mlDzXWKx3wFLMVQUBS+VDOAjIQ8CemmgOAFJ9youymM79szGJRmnLwgV66EOAry2ZugCi/da1APAagJV5aAHQ58pCKSBgDQHNAcDTF9e0iL5IKVYDVAXDJnQDCAr4GEFgn7i2+Bozouxsy4wPxCiVtO6fXUnYRwGv5ttHtmYjPQhIScCuSunyLzjWH5diMSB2wp4EFidhDtj0J7BLomsr2mdx839+UH/AKBEEQMBUAroEAPFYTJqZALswDsDUC8hNwnYn5On/7++xNuauLUL/v5uufdg6FgH7ntMlAEhEE2tlQbAziRYAWXzhJD246X+3RNdWf2evpXjrS8KWyodwEAAB7QT0CQBi8Re0q6JPCb0phdpEX60+paEUENhPoDXpoV6JBpj2dfXtV8yiv1NK0AVgEXqIlYyAndXRJQBIxqIPywRhi0R9tTJxgS65E9ickGvEe1+XtS0Ak0tCucNEThAAASkI6BIAPH1e/epELG7dkORhKLdIdrMeph5+2pDAFomCyng0RvGodW8CLAn7qTjks6EXoTII6E3A3uXpEgAwgmjvgDQvBdoe91KceKYya4YNBLQR4Gtpl0QDAPs60fyvzaPIDQIgwAT0CwD6o2u4QBk2vmFvk+iJTQYm0CF3ApvjPqkCyp62rtyN0SHnnIqIDqWgCBCwPwG7W6BbABAbiD4mE4y1Mbn6bGViA12yI7A2Lte11N1qbQAwtyovO4BIDQIgICUB3QIASql/UFWeLCWHnRtECwC3BMihDbSwK4GEqtAmcS3Joj//G+tp77ZMHa+i0KxytABY5gAIloiA/VXRLQB46py6PdHegQFZkPC67dx0K4s+0MOeBNKBpAgCZNG+r7OXkomkZepMKQ1R2K/bbcMyOyAYBECASNd/yQO9/Vtlgro6jtXKZPKHHXVZHZPrGrK6/39uBZr/7XgdQ2f9CTihRF0DgFh/9FGZoGyJ+0imt7fJxAa6jE+gI+Uh2QaTdjZ3jq+4gSkWViMAMBAvigYBUwnoGgCk2gZ+ThKNA+ARCW9hMKCpF5SThK0WT/98DcliE/f/d7VYFwB4PQotmIAAQJbrAXpYScAZsnUNAJ76+NQdvZ291g5RHuaXN8RN3Loe02HK4KdtCCSEpm9K1oXEo/+TcdZMKGfBZ25lhPIC8rwQyQIEEAkCjiKgawDAZAZ6B17hb1m2btVDa0QQIIs+0MMeBN4V10xPSpFK2c597Zbqs6S2wFL5EA4CshBwih66BwDJ/vgfZIPzgriZy9SUKxsf6HMoAb5WXhLXzKFHrf/V0YQAwHovQAMQcA4B3QOAJ86u/ntsICZVq3tz0ktbJZrL7ZzLx5mW8PRRvmZksi7aHyWeAmiVThV5fpqCFwBZhR9ypSLgHGV0DwBIUVK9Hd1vy4bo6YEQ8ZOdbHpBH7kI8DWyKhqSSymhTdvuFvHXus8J9UUkV4eIdSwgGQScQkD/AECQifbEbhVfUn0aRCsAP9lJpRSUkY7Axrif+FqRTbG2hmZLVfrA5GJL5UM4CMhCwEl6GBIAPHV29W2x/ph1w5VH8dDT4smOn/BGOY3DLifA18YzA0HpKER7B6invccyvaoKAjSjPGyZfAgGARAwhoAhAQDt7wZYbYzKuZe6V7QCvIt1AXIH6PCcb8UDtC8l3zS31gZrm/+XTkbzv8MvfZiXMQFnJTQmABCMov2xm8WXdJ8nB0LE7wmQTjEoZCkBviZWimvDUiVGEd6629rm/6X1aP4fxTU4DAK2JmBYAPDUWTV/7u/p75eNDq8L8EJUvmZe2Ti5TZ9V4pqQbd4/+6C3o8fS0f/Ty8JUXyrfoEhmgw0EzCbgNHmGBQAMqre95wH+lm17UdzsW1OGmi6bydBnDALN4lp4VVwTYySx7FTzjr2WyWbBy2eU8hc2EAABBxIwtBYcULu+kUxKtSRA2oU8OvHB/jCmBaZpuPsPD/x7qC9MfE3IRiKVTFGrhdP/gl6FTqwvkg0L9AEBiwg4T6yhAcCqFdN39bR1b5UR246Ej96UcLU3GVk5WafXowHamfRJaSL3/ScsXPuf+/6x9r+UlwaUAgFdCBgaALCGfV19P+VvGTceEIjXBcvoGXN04tf9PhWVt3+7yeLm/xUz0fxvzpUIKXYg4EQdDQ8AVp5de0t/V591k5jH8NqAqtC/RfNvaow0OOVMAtz0f5/oBoqKa0BGC3nev2g9s0y1meVhml0RsUw+BIMACBhPwPAAgE3oae2+jb9l3Lj5F7MCZPSMsTo9OxAk7gYyVkrupTdu2p17Zh1yXjC/QodSUAQIOIWAM+0wJQDYM6nl6lh/LC4rwmdEM/CupHwLwMjKy+567Uz46NmYvE3/vPJfe2OrZZh55b9jJxVaJh+CQQAEzCFgSgCwdv78WFdzx4PmmJS9lJRoD767L494jYDscyOHnQjwXP9/cbeP8Lmsejdu3kOqap2C588tJ6+CV//Ien1AL/MJOFWiKQEAw1PU/ssT8YR1dzVWYoyNK4a7eyMk36TFMZTGqawIcKD3z76I1IFeIhqnlp37srJLz8RFIR+dOh2D//RkirJAQFYCpgUAj54+pbGzqf0JWUGwXrtFN8Cj/XjpCbNw4vbgQFjaKX+DvBs276Zk0rphqRfMq6CgD0//g/7ANwgQOZeBaQEAI1S7uj6RiMWtu7uxEuNsr8cCxCsFjpMMp21G4LlokFYL38qsdjwao6atjZapWBL201mzyyyTD8EgAALmEjA1AHjs/OlNnU2dD5lrYvbSeH2Ad+P+7DMih5QE1ghfPi3pi36GAmvYaO3T/4cXlOPpf6hDsA8CRORkCKYGAAwy2tPzydhATOqudh6ocJ/oK96ckHOFOOaILTMC24QP2Zfs08xyWJMqPiCe/rdbt+5/adhHK2bi6d8a70MqCFhDwPQA4Onz6ju6mtrvtsbczKVyhHKXCAJ4yljmuZBSJgI8puNO4UMZ1/kfzmn3+p3Ea/8PP27W748vqiJe+98seZADAvYg4GwtTQ8AGOfu2pZPDfT0D/C+zFtCVegfogJpSGKNAJn9NJJue4TP7ujNo5jw4UjnZTrW19lLzTusG/lfXxqiU2eUyIQEuoAACJhAwJIAgNcF6Gxu+5YJ9mkWwcsF/1lUJNtFU7LmwlCAKQR2CV/9VfhM1mV+h0PY/s5WS+f9f/GoGsz7H+4U/AYBInI6BEsCAIb65JkTf9rV2mVdpycrkeHGT5F/Ey0BW0XFkmEWJLOIAAdqdwhf2aXyb9vTQt0tnRbRLF3ZxAAAEABJREFUIjp+ShHNn5BnmXwIBgEQsI6AZQEAm9zd0X2xmpJ6ViCrmd7S3QHiqXJtHLMD0kAk/MOj/f8mfMQBm4TqHaYS9/nvXLv9sONmHQh4PfSZIyeYJQ5yQMBmBJyvrqUBwDNnT1zZsbftebtg5sFk/xJPl6sGgnZR2TV6vhIL0D3CN+wjuxjN0/543X+r9OVpf7zuv1XyIRcEQMBaApYGAGx6W7TjzIG+gSjv22Hj6WT88qCH+sPES8vaQWcn68izNe4XvuAVHNk3drG1v7ufGix8419dUZAuXFBhF1zQEwRMJ+AGgZYHAC+fOaOro6H9Kxa++yQnP/OKgX/qzSd+h0BOBSCTZgL88qY/9+RLv8LfcEP5Wt+2ehNZ1f3lUYi+8v5a8nss/+c/HA1+gwAImEhAijvAU+fU/LazqW2tiXbrIopfIfw7UQHxty4FopCMCfD6DL+1KfumbQ3U3dqVsa16JzxrVjnNrcTAP725ojwnEXCHLVIEAIy6J9p+eqxf7hUCWc/hGz+FcksAjwuwx3DG4RbY6zczfiEapD/35VFvSrGX8kLbaF+Udq3dIfas+VTm++lTR1ZZIxxSQQAEpCIgTQCwasX0XR0NLV9XuX1UKkTjK8NjAZ6Jhuh20SXQlpIG6fiK2yxFp2D7p9484nc1MHObqU98aW99cyMlEzxywXztuen/a++vo7Af16j59CHRTgTcoqtUd4Inzq79RWdj+yt2hb8n4aXbRLP0G7EA2WlAmuy8meVrgumvBVte5Ed2fUfTr3HjLupqtm7O/4cXVNIR1Wj6H80/OA4CbiMgVQDA8L190ZP7uvp6ed+OG68c+GB/mP7Uk0fN4onVjjbIpHO7YPgX8dT/sGBql8V9RuLX29FDuzfsHOmUKceml4XpYwsrTZEFISBgbwLu0V66AOD+c2r6OpvbP5JMWtNMqpfrdyZ99LvuAnp6IGSL9ej1sluvcngxH27q/5VgyKv76VWuFeWkxLW8+bUNpFrUbxH0eeiqpXXk4z4AKwBAJgiAgJQEpAsAmNLKsyc+2Lq7+Vbet/PGi9I8Gw3S//UUELoFMvMkN/e/E/Onmb0g2DHDzHLKm2rb6i000NNvmYJXHFtLtYVYvMoyB0CwrQi4SVkpAwB2wBOnV1/esa/tXd63+8ZrBXC3APdh81LCXMnZ3SYj9N+WEK0mop//3/0Rx6yvsHfLHmrZ1WQErozKPHduOS2bVpxRWiQCARBwFwFpAwB2g7c7ekxvV491o6ZYCR235qSX/tkXod+LSm5z3IeBgoItB0ObBAteT4H7+vcKRuKwIz49bV20c411a/3PqcijS5dgrX9HXEwwwiQC7hIjdQDA4wHa9jYvjQ/E7T0gYNg11SAqub/15dEton+b17B3QjP3MBPH/ckO5aZ+bhX5u2DRKJiMm8lGCeLRGG18Zb1l/f4lYT9dc/Ik9Pvb6JqBqiBgNgGpAwCG8ey5U99ubWj5Mr85jX87aeM1A3gN+190F9Iz0RDxPHcn2TeSLR0pDz0tbL1Z2MxN/dwqMlI6Ox/ja3XDS+soPhCzxIygV6Fvi8q/NOyzRD6EgoBdCbhNb+kDAHbIU2fV/Kpl177/5YVU+LfTNh4jwCsJ/kK0CNzRm0c8TiChKo4xk21ZE/fTX4VtvxQ2PjsQdEwf/3An8TW65fWN1NvePfyUKb95oP+VJ9TRzIqIKfIgBARAwL4EbBEAMN4nzqi5sn1P82O879SN+8O3JHzpcQI/ERUlv3p4g6g4uQK1m82s83qhO495uPGALVuFbWyj3WzJRt9da7ZRW0NLNll0TXvpkmo6fnKRrmWiMBBwBwH3WWmbAIBd88hplSucMjOA7Rlri4sWAH5qvrMvQjd2FRK3DLwSDUq9uFBL0kMvCx35SZ91vkvo7rTWjLF81rR9LzVu3jNWEkPPrZhZSufNKzdUBgoHARBwDgFbBQCMvW9b11HdrV37eN8tGw8S5JaBRwdCxAvj3CQCAg4MXhKVLb+JkBfNMZsFr8rHsl8UOtzZGyHW6daeAnpM6MhP+qyz2TpZKa+9sZW2v7XFMhWOnVRIlx9bY5l8CAYBuxNwo/62CwCevrR+oLshOr2ntdu6dlaLr5Re0TrAXQOPi8r29p58ukEEBNy3zhXxU+LYG7EAcSXMgwy5KT5XdTkvl8FlcZlcNsvgsQr8hM+ynxDyNiT8xDrlKsfu+TqbOyi90h8PALDAmEXV+XT10jryKs4ZN2IBRogEAdcRsF0AwB56+qLKnq6dPXN6O52zRgDblevG/eq8Zj5XxM+LJ3JedIib4f9P9L1fJ4KD6zsL6eddBfSb7nzit+nxfPu/9ealxxpwHz3v8zE+x2k4LefhvFwGl8VlctksoyPlIZaZq75OytfT1k0bX15HPPLfCrtmV0ToWydPpoDXlv+UrUAGmSAwAgF3HrLtXePpi2taups75g1099v2xUFmXXJxUqhL9dC+lJd2JHzEK+5tFt/cP88b7/MxPsdpOC3nMUs/u8rp6+ylDS+uoVSCVzUw34r60hBde+oUCvlt+8/YfGiQCAIgcJCAre8cT51Tt6d7Z+vi/u6+voMWYQcETCDQ095D6557hxJxa0Y7zCwP049WTKX8gNcEayECBJxNwK3W2ToAYKc9fmHdpq7Gnqm9HT3t/BsbCBhNoKu1i9a/YF3lP68qQj88bSoVoPI32tUoHwQcTcD2AQB758lzq/Z1buue2dPe3cq/sYGAUQS6mjvTzf5Ji1anPqI6j753Sj1FAo74p2uUm1AuCGRBwL1JHXMX4TEBXftap7ttiqB7L13zLW9rbKX1Fvb5HzepkL6HPn/zHQ+JIOBQAo4JANg/T59X37GleNcktywWxDZjM4dA8469tCn9cp+UOQKHSVk+o5SuOXES+T2O+ic7zEr8BAHzCbhZouPuJmvnz489dFLZguZdTfdYNC3bzdeTI23fvX4nbX1zM5EFFxTP7L94URV99f215OGF/h1JGEaBAAhYQcBxAcAgxMeXV52/b0fDT6yanz2oB77tS0BNpWjzqxtojwgArLCCn/avOrGOLl5YaYV4yAQBFxBwt4mODQDYrU+dUXvV3h2NX4pHY9a027IS2GxJID4Qo7XPvkOte5ot0b807KPrT6+npVOKLZEPoSAAAs4n4OgAgN339FkTf928q3UepgkyDWyZEOhu7aJ3n15NPRa90ndeZYR+dvZ0mlWBV/pm4i+kAYFcCbg9n+MDAHbw0+fUrO9c31LTvrftJf6NDQRGI9C0fW96gZ+YaAEYLY2Rx0+fWZpe4Kc04jdSDMoGARAAAXJFAMB+fvrS+oGHTy47rnn7vl8nk9Ys3cp6YJOTAC/nyy/02bZ6M6kWDPbj5XyvWlpHXz6ulrwY7CfnRQKtHEYA5rgmABh09eNnTPhS85aGE/s6e7sHj+Hb3QR4Wd93RJN/625r+vtnlofp56LJ/8R69Pe7+0qE9SBgLgHXBQCM96lzJ63qWNdc2dbQ8owVT3usAzY5COzd0kBrn32LBnr6TVeIp/h9cE453XDGNKotDJouHwJBwM0EYDu5pwtguLO5S+CRUypOat6298r4QAx9AsMBOfx3tC8qKv53aMc7W0lNqaZbW5nvp+tPn0pfOLqafGjyN50/BIIACLg4ABh0/hNn1fxv57Zd6QGCFnT9DqqBbxMJ8EC/d1a+Qd2tnSZK3S9KEV880O+X58ykeVV54hc+IAAC5hOARCbgyi4ANnzo9tj505t4gGDjtj1fGugbiA49h33nEBjo7U+P8OeBfla8zKemIJge4c8D/fAyH+dcV7AEBOxKAAHAEM/xmgF79u2ubG9oWaWmsHbQEDS23uXVIHev20lvP/kGdbWY/9Qf8Hro44sq6ZYPzaAFE/DUb+uLCco7ggCM2E8AAcB+Dgf/vnzmjK6HT6k4ce+6ncd2NndsPXgCO7Yk0L63jd5+6g3as2GnJX39R9cV0i3nzqCPLayytK+/L5aiZ7Z10M0v7KErH9xMH//HOjr3z+/S2X98BxsY4Bow6BqYdt2z6jhbTJxvmnbdqlemXf/sb6Zdv+qjs378XIFZN1sEAKOQXnlh/csPLi2Z1rS18cr+7n7zh4iPohcOZ0ZgoLuP1r+whja+tJaivQOZZdIxVV1RiL5/2hT6zrLJNKEgoGPJ2RW1pytKNz+/mz5511q6cdUuemxTG21s6afOgQQlLRj8mJ32SA0CRhCQqkxe8auCSDmKVPo8qcrfEil179Trn/3d1BuemUEG/4cAYBzAPEhwQ2RrcfOufX+LD8QxW2AcXlafjvVHifv4337qTepsajddnfKIn75yXC398tzpdGSNaYH8YXZGkyrd9lojXXbvJnpscztFE+bPdDhMKRwAARDIhEBEUemzStKzZtp1z90w5dqVoUwy5ZIGAUAG1PgVw48vn3Bx86aO4uadTX/By4UygGZykkQ0TrvWbKe3nnidmrbvJdXkKR1FIR9dsmQC/fr8WbRiZil5FR7vbzKEA+IauqOimX8T3bOmhVJ4yj9ABV8gsJ+Ajf6K1gH1Km/Qt3Ly/6yqNkJvBABZUH36osqex1dUfbJz667q1j0tD8djcTxWZcHPiKSJWJx2iop/9WOvUsOm3cQD/oyQM1qZhUEfXSoq/t9fMJsunF9BQa91FT/ruLWtn656aCvtaMdkFuaBDQQcQOBYn0d5pf5/Vh2hty0evQt0Q3k8bfDRUyvO7NyycwK3CIg+5pgb7JbJRsE8vYjPm4++Ro2i4k8mzZ21USX69T9/dA394cJZdAFX/D5rK372DT/5f/vx7en+ff6NDQRAYDgB2/6e6PEoD065YeUEPS1AAKCBJgcC3CLQ2h3Ka9re+MO+zh68X0ADz0yy9nb00JbXN9Jq0dTPy/imTH6x07SyMF35gTr67Ydm0rlzyijok+OfUEwEQNev3InKP5OLCGlAwJ4EJnqTvgcm3vRCWC/15bh76WWNReU8fbKSeOKMmm//+9iCwr1bGy/raG7fgjcO6ucMfrpv3rmP1qx6i959ejW17Goi0cmvn4BxSgqKp/tTp5fQT86cln5pz7JpxSSi8XFymXv6z2/uo63t5s92MNdKSAMBbQQckHtJaCD1X3rZgQBAL5IHynnqrJpfPbS0dHrztsaJ3D3Q193fd+AUvrIk0N/dlx7Yt/qRV2jrG5uop83cBpa64hDxwL7bPzyHvnb8RJpdEcnSAnOS81S/e9e1miMMUkAABCwloCrqlXp1BSAAMMiVT51Tt4e7B/59dCSvaXPjxzsa2l6J9UcTBolzTLHct8+D+d5Z+WZ65T7eT8TNw8Z9+zyY7xfnzKBbz52RHthXEPBKzfef7zQTRvtL7SIoJwUBxyiR70v4v6OHNQgA9KA4ThlPnFNzx0OnlB1z9+JgsHFLw2fbGlvfiA/gDYSD2KL9UWrcvIfWPPMWrX78tfRTf19n7+Bpw78r8vx03rxy+m2Y/kIAABAASURBVOlZ0+i282eln/rrS0OGy9VDQHqFv+0dehSFMkAABGxCIKWon9JjxUAEAGY6XFFSK8+u/f0jy8qX3LU46Gvctvek5l1N9/S2d7epLnr3AM/R7+3ood3rd6b79Fc/+irtfHcb9bSb08TvVRSaXhamixdV0c/Onk6/v3A2ffZ91TSrPGLm1aCLrFf3dGGRH11IohCnE3CSfQpRXiJFZ2q1CQGAVoIa8q88s/qZx5dXnX/v+wvL9uzeNmnv9oaftO9re7u/p7+fK0kNRUuVlW3p6+yhfVsbadPL6+j1h15KV/x7RADAgYDRynKFP7U0TGfPLqP/Pnky/e2jc9MV/8ULK9OBgPjHZLQKhpX/VqN5LSWGGYGCQQAEciCgLssh0yFZEAAcgsO6H6tWTN/11Bm1Vz18UtnCe46KRPZt2TNRVJj/j99M2NvR3ZqIxc2d6K4BRTwap86mjvQT/vrn36XXH3yJ3lm5mra/vYVE9wcZ/Sre4rCPFtfkp5/wf7C8nv7+sbl08znT6UvH1NBxkwrJSa/i3d6O11RouFSR1TUEHGnoEVqtQgCglaBB+XkQ4ZNn1VzHbya897jC8jsXBrwN63Yt2Le54Zutu5ruExXsZvFU3R2PxiwLDGIDMepp66LmHftoh2jC58r+jYdfJt7Wv/Au8RN+Z3MHJRPGvEKhNOKnORV5dNr0EvqcaML/oajs//KROfSXi+bQD06rJ37CX1ydT2G/cy/zvd1xg65AFAsCICA5gala9XPunVErGQnzP33+pHefPKf2hkeXV5374IklM/59bEHhXYuC3ob120sat+w5e9+Ovd/hlxa17mlZ2dHY9pYIErb3tHa39HX19cb6Y3He4rG4mogn1NSQV8GlRAUtjlEilki/OY9H4ve091DnvnZq2dVMe7c00O51O2j7W5tp/Ytr6O0nX6dX73+B3nzkFVqz6m3a+uYm2rt5D3FlHxdP/zmg6xF52olUnsvGr2AWm/qqOPbIyVOL0wvufEL0119+bC1979QpdOuHZtK/PjGP/vTh2XTjmVPpP46fSB+aV06LRGVfHPKJbO759OH9VO5xNizNmYBDMxZptQsBgFaCEuR/+rz6jpVnT3zwydOrf8AvLXr01IplDy0rWySChPr7PlBY8e9j8vLvPjIY4O2uhQHPnUf4PX+f7/XcMUdRzmrZQud0bKdzO3fQuV076Pz+PentI8l9dLG3jT4d7qLPFvXTFysSdEWtQt+YEaJrFhbTtcdV0fc/UK1523LNCYrYCsRWuuWapeXie9r+benR4vuMb5xQR58/uoY+Kvrrz5xVSktqC6iuKEgBLy5dvvQSeNkPY8AGAm4kENRqNO6iWgkiPwiAAAiAgMQEoNpoBBAAjEYGx0EABEAABEDAwQQQADjYuTANBEAABNxOAPaPTgABwOhscAYEQAAEQAAEHEsAAYBjXQvDQAAEQMDtBGD/WAQQAIxFB+dAAARAAARAwKEEEAA41LEwCwRAAATcTgD2j00AAcDYfBx/9shp5TTWtqi+jObWldDE8nwKB7yO5wEDzSPA72jgFzBdML+Crj6xjn5+9nTilRz/+fF59MCnF2S1cR7Oy2VctbSOuMyZ5WFiGeZZpK8k1n1WeSRti1v4TCkJ0ReOrqZbzp1J7FPeeJ/XAplconnau74OckBpCAAc4EQjTfB4FAqJir+yKESzJ5ZQXXkeKeJ/I2WibGcT4Js839D/dNHs9CuYL10ygZZOKaZpZWHilRyDvuxvS5yH83IZJ9YXE5d501nT6Y9CBstimXahyrqyzm7i4/d46LJja+jmc2bQB+eU06TiILFPeeP9c+eUpc9ddkwN+cQ9KTNfItV4BDzjJcB5EBgkoChEFUVhml5dKEIA8WPwBL5BIAMCM0QF/91TJtMvPjgjvbxzkQnLNnNQwJUHy/zOssk0XeiQgaqWJHErH7+o/HmJ77NmldFYdTu3iJw1uyy9HLhvrISWeM+eQj32VBtaW0mgIOKniRURK1WAbBsRyBMtSPweh5+KJ/KjJnLwaL7yHK4eXVdI3CrAT5qsk/lajCyRdXEzn8+LJv8jqvNGhjPC0YXV+fS5o6pHOHPoIfwanwACgPEZIcUIBMoLwumugRFO4RAIHCTAT9w/E337/B4HGR7aWAd+0vylaIWYJUEQ63Y+3N1x+szSg9dLpjtnzCpNdxNkmh7pRiaAAGBkLjg6DgHuDigvCI2TCqfdTGDplGL6yZnTqLogIB2Gijw/XX96PZ0wRfML1XK2DXyIls8oGbPZfzS43B2wYsZYgcNoOXF8KAEEAENpYD8rAgUR+W7sWRmAxIYR4Cf+/1xaJ/WALb/oe75q6STK5QlUKzjw2U9wsWjO37+X/d9F1QXZZ0KOQwggADgEB35kQyDgw+WTDS+3pOUn2y8dU5vTk53ZjLhLgPvfTzCxJQB83vNyRV7uDxGV+f73Chq2h5+ZEcAdPDNOjkn18XXqgovXqT8X27ti6/lBZxHluv2ou5i+81yjpm3GDS+o825+beB9f1jz5gl3b/uQY0C71BCet37lCRNtUfkPuoiDANaZR+EPHjPqG3wOJRvy514FhTXkPVQL9/7Knb57mdnS8jM2qcGL16q3qESrieirYpsntsyH3orERnxSySQN9PYH2/e2LWrctOeeJb9/9+2T7mzKN0IWyjSWQF7Am17Qx8c1qrGidC/dL7oDvnniJGIbdC/8QIFc9tUnyt0tckDVw77M4HOY0JwPIGOmBBAAZErKxum48i9J0MOk0GXCDGl9rpJKHfvaF7S1NuxEECA8ZbPPp4+cQFX5uTfpWm3uhIIAfXJxlWFqgI9haFFwjgSkrQxytAfZRiBQEqefEdHJYrPFp7eju6S7r+l5WygLJdMEuPncisF0aeE6/uHpZfWl+s9uAR8dnTROUTidOQEEAJmzsmVK7vMnhb5gN+U7GzuOeP9d2861m95u1ffiRZW26vcfzU88vezjC6tGO53zcfDJGR0yGkgAAYCBcGUoWvT5f07oYTs/c3dAtKf/O0J3fCQnUF8SovdNLJRcy8zVO2ZSIU3W8cUz4JM5e+0pUUI2BGxXMWRjHNKmCZya/mvDPwO9vXNtqLbrVD5tRoloZHKO2Yow5bRppeKvPh/w0YcjStGfAAIA/ZnKVuIk2RTKVJ9YfzyYaVqks4YAN5kvrS+2RriBUk+aWqzLq4TBx0AnjVA0DmVHAAFAdrzsmNq2U+pSiSQ/jNmRuWt05rXsi3V6q99LO7vo2ie308f/sY7O/uM7WW2fEHm+9+QOemlXly7si8M+0mMwIPjo4g4UYhABBAAGgUWxIOAGAvMnaF9KIppI0Q9X7khvr+3ups6BRNboOkSeV3d30Q+f2kE/enoHRRNq1mUMz5DNG+qG5x38DT6DJMz4hoxsCSAAyJYY0oMACBwkMLVU+5S5G5/dRfz0f7BQjTsv7Oiim57bpbEUovqSsOYywEczQhRgIAEEAAbCRdEg4HQCEwu1DdPgip83vTk9v6OTXt7VranYiUXabGPh4MMUzNkgJXsCCACyZ4YcIAACBwiU5Wl7IcsjG9sOlKT/16ObtJVdFvZpVgp8NCNEAQYSQABgIFwUDQJOJxD2eTWZuLGlX1P+sTJvbO4b6/S453jt/nETjZNAZj4bJOAzDr4sTiNpLgQQAORCDXlAAATSBHwa7yDRZDJdjhF/chlMOFSPgFbjRGEBn7aJLN3R7AdECrEZfboGtJWtB5+MFEUiwwho/OdrmF4oGARAwAYEumPaKvDqAu397KNh0joPQFvVvV8rrWVotWG/FiP/1Vq2VttG1iq3o8iVGwEEALlxQy4QAAFBQOsT6kIdphEKNUb99MdTo54b74SWvOOVjfMgIAMBBAAyeAE6gIBNCXQNaGsBOG9eBfk9xt2GWnpjOZNt6onnnBcZzSQAWbkSMO5fXq4aIR8IgIBtCGxuG9Cka3men755Yp0uy+6OpMgbjb0jHc7o2JsN2qYRZiQEiUDAQgIIACyED9EgYHcC65tyr2AHbT92UiF9a9kkmlAQGDyk2/djm1opqWbf2815Ht3crpseKMg4Aig5dwIIAHJnh5wg4HoCa3UIABjiURML6ZZzZ9BXj59IMysifEiXbUd7lB7ZkP16AA+ub6VdHdpaN3QxAIWAgIEEEAAYCBdFg4DTCbT2JWhDi7b59oOMAl4PLZ9eQjedOY1u/uAMOnN2GeUFtK0zQOK/377aSG819oi9zD6rRdrbXtubWWKkspgAxGshgABACz3kBQEQoMc26d9UPrUkRJcfU0N/+vBsza0CiZRK331iOz0gnuq5aX80l/G5+9a1pNMmRZ7R0uE4CDiFAAIAp3gSdoCARQRWbeugAQ3T7cZSO+jTp1WAg4BfvdxAX7lvE927toW4a4B15o33/72mhb5832b6zSuNhMp/LI/IdQ7aaCOAAEAbP+QGAdcT4Pny961vMZzDYKvAny+aTf914iRaVJ2ftcydHVHiLoEr7ttIF96xJr3x/u9ea0Sff9Y0kcHuBBAA2N2D0B8EJCBw5zvN1NavbWnZTM3gsQIfmFJEP1xeT7d+aAZdOL+CCnQYK5CpfKSThQD00EoAAYBWgsgPAiCQ7gL44xuNppOoKwrRJUsm0O06jBUwXXkIBAGLCSAAsNgBEA8CTiHw5OYO4s0Ke4aOFUCrgBUeMF8mJGongABAO0OUAAIgcIDALS/tpi2t/Qd+WfM12CrwRw1jBazRHFJBwFwCCADM5Q1pIOBoAtGkStc9s5Naeq1fR3/oWIEbz5xKS2oLHM3eXcbBWj0IIADQgyLKAAEQOEhgb3eMrn5kCzV0Rw8es3pnTkUefe/UKXTTWdNplo4rDVptF+SDgBYCCAC00ENeEACBEQnwm/S++fA22thibXfAcOVmlofpxtOn0icXV5HXoww/jd82IQA19SGAAEAfjigFBEBgGIH2/jhd9fAW+vvbTZSSaGU9j6j4P3JEJf3kzGlUEvYP0xo/QcA9BBAAuMfXsBQETCfAq+r95c19dNUjW3V7Z4BeRswoC9OPz6inynwEAXoxNaccSNGLAAIAvUiiHBAAgVEJbGjuo288uIW+8/h20usNgqMKy+JETUGQbjh9Gk0oCGSRC0lBwBkEEAA4w4+wAgRsQeCNhm66+uGt9LUHNtMjG9vSCwhZrXh5np++dfJk4rUErNYF8scngBT6EUAAoB9LlAQCIJAhgc2t/fTLF/fQp+5el/7e2mbtYMEpJSH6j+NrM9QeyUDAGQQQADjDj7ACBGxJoC+WSrcEfPX+zXTlQ1vosc3tFE2kLLFl6ZRiWjat2BLZEJopAaTTkwACAD1poiwQAIGcCWxs7qObn99Nn7zLulaBzyyppkgAt8WcnYiMtiKAK91W7oKyIOB8AkNbBcweK1Ac9tEF8yqcD9mmFkJtfQkgANCXJ0oDAVcT4L70LxxdTbecO5P++fF56Y3FJDF4AAAQAElEQVT3P390DU0uCWbNZnCswKfvXk+3vNxAW9sHsi4j2wznzimnkB+3xmy5Ib39COAqt5/PoDEISEfA7/HQZcfW0M3nzKAPigp0UnEwPaqeR9bz/rlzytLnLjumhnye7Ffg640l6aH1rfTV+zYZPlaAK/+lU4qlYwyFQEBvAh69C0R5IAAC7iLgF5U/r7N/1qwyGqtu9yoKnTW7LL0mv2+shOPgGxwr8Km7jGsVOH1GyTha4DQI2J8AAgD7+xAWgIClBD4vmvyPqM7LWIeF1fn0uaOqM04/WsKRWgViSX1mEMysiFBp2DeaaBy3gABE6k8AAYD+TFEiCLiGAPf5nz6zNGt7z5hVSpNEN0HWGUfJMNgqcPm9m+iVXV2jpMru8JyqzIOa7EpGahCQgwACADn8AC1AwJYEloum8lxa87k7YMWM7AOH8SDxq4h/uHIHPbu9c7yk456fW4EAYFxIpiWAICMIIAAwgirKBAGXEFgsmvNzNXVRdUGuWcfMxy8evOnZ3dTSGx8z3Xgnp5aGxkuC8yBgawIIAGztPigPAtYSKM/L/SU6Rr6FL55K0T1rmzXBKQ55NeVHZv0IoCRjCCAAMIYrSgUBVxAIa5gvryVvJnDfbuzNJNmoaQqCGAQ4KhyccAQBBACOcCOMAAFrCKgaxWa/IkDmAhu6o5knHiFlQVB7C4DMfLSy12obI8+sDE458qbVhpFLdc9RBADu8TUsBQHdCcQS2m7hRj5lh33aKvAEDybQSEwrn8KQca0QRRrLjsa1T7mUmY9G19siOwIAW7gJSoKAnAT640lNis2qiGjKP1bmmeXhsU6Pe47XGRg30TgJtPKZWS4vnz4d3tqYCZ+xEBvJZyy5TjmHAMApnoQdIGABgdY+bSPtV8w0bsW9XNYnGIqwtT8x9GdO+07m06bR9wxUZj6sn9M3BABO9zDsAwEDCezu0tbPfmxdIR03qVB3DY+fUkRHi7K1FLy7U5ttLFsPPu+fLCefXZ3aX8w0Ph+mOPrG148RfEaX6KwzCACc5U9YAwKmEtjapr0S+M8TJpGeN3Gu/K88vk4zh23t/ZrL0IPPNz4wiY6fXKRZl8EC9OKzvV17gCQjn0FObvhGAOAGL8NGEDCIwDt7ezSXHPQp9P9OmkzfXjYl/dRenMMa/Jzn6IkF9J1TptA1J04iLlOrYm9pnEbI8vXic81Jk6Tj82aDdt+Px4cZjrexr7XyGU+GU88jAHCqZ2EXCJhAYEvrAHUMaO8rZ1WPqRMV+LLJ9JeL5tADn16Q1cZ5uPLnIIDL0rq198dpW5v2FgDwGdsTsvDJ9nobTP/Pj8+jW86dSZ8/uoYmlwTHNlbCswgAJHQKVAIBuxBIqio9s037uvuy2fv01k7SYRYgOZXPyi2dpG0C6H6Pj81nfxqZ/wZ9nvRLrc6dU0Y3nzODLjumhny5vBzDIiMRAFgEHmJBwCkEHt/UpktlIAsPrtge39ymmzpO48Ngnt3ewV+6bE7hwy+4Omt2GX3v1Cm2CQIQAOhyCaMQEHAvge3tA/SqTq/glYHiSzu7aGeH9gFug7Y4jQ/b9YVjqkmvpZxH48Ny7LgtrM6nzx1VbQvVEQDYwk1QEgTkJnDHW026NJlbbSU3Sf9t9T7d1XAKn0Ewcyry6NpT6ymk4V0Qg2Xxt9P4nDGrNN01wLbJvCEAkNk70A0EbEJgc2s/Pbyx1Sbajq7mQxtaaato0Rg9RW5nnMJnqPXzKiP0g9Om6NIScDifoZLst8/dAStmlEqvOAIA6V0EBUHAHgT+9MY+2tcds4eyI2jZKHT/85v6P/0PirI7n0E7hn7r2RLgND6LqguGopJyHwGAlG6BUiBgPwK8dv6PV+2keEr7S2LMtj6WTNH1z+ykvphxutuZz1j+4JaA7+nQHTCUz1jy7HKuMt8vvaoIAKR3ERQEAfsQ2NjSTz9+Zld6+ptdtObpfjc9t5u2iG4Mo3W2I59MmHAQoEd3gJP4qDydJBN4FqZBAGAhfIgGAScS4FH0v3qpwRaDArny/7+X9tBz281by8BOfLK5PvXqDnhpZxfZ5foZi09zr7YXZY1Vtl7nEADoRRLlgAAIHCTw8MY2ulHy7gDuquAui0eFrgcVN2nHDnxyQcEtAdcum6J5HrwT+Kxu7M4Foal5EACYihvCQMA9BJ4VT9X/+dBW4sF1slnd1BOnbz6yjZ4XOlqlG/O5WvDZ223fgZMjsZs/IU/TPPjBMu3Mh6eTPrKpfdAUab8RAEjrGigGAvYnwP3qX3tgMz24vlWKcQF8Y75/fQt9+f6NtLG5z3LAm1r76T8k4qMXEL3mwduVD1/vuzq0vylTL3+MVg4CgNHI4DgIgIAuBHh0960vNxAHAi/t6rJk2WAej8V971+/fzP9+uVGQ0f7ZwtNBj7Z6jxe+vQ8+Jll4yUb4fzhh+zGZ3VjD9322t7DDZHwCAIACZ0ClUDAiQS2tQ3QD5/aQVfcu5HuXdtCHf36vEVwLFb8Vr9/r2lJy/zhyh2GLPIzlvxszlnF5x7B5+uiFWJNk74tIour87Mxf9y0VvAZV6khCbh16b51LfTdJ7ZTkkeXDjkn6y4CAFk9A71AwKEEdnZE6bevNtKn71qfbhW47bVGenpbB3FzL1fYA/Hs5+JzHs7LZazc2iGewBrTTess43eifJZpF5ysqxF82kTAxSvurdzaTr9/vZG+KlpDPnXn+jQr5vbdJ7aRnkFAZV728+Az8ZERfDKRO1Iavu52tEeJg8wv37eZfvNKo20qf7YHAQBTwAYCIGA6AX5i4gqJn0B/smoX8VPoJ0WFdOEda+jsP76T1cZ5OC+X8dNndxGXyeMPbPIgNiJ7vfl86s516YDrp8/upn+920Jb2/oP6Y7hyuw7j2+jd/b2jqhPtge52yXbPNmk15NPttfbYHq+7q64byNxkGmHPv/hfBEADCeC3yAAAiDgUgLRRIq+99R2XVoCsp8H71LoFpqNAMBC+BANAiAAArIR0Ksl4M2GHtlMgz7DCCAAGAYEP0EABEDA7QS4JeDaJ7fn3B3AzfOPbGrLCiMSm08AAYD5zCERBEAABKQnwEFArt0BD21oJTv2iUvvFJ0VRACgM1AUBwIgAAJOIcDdATw7IJuBgW/xPPhXs50H7xRi9rIDAYC9/AVtQQAEQMBUAhwEfPvxbfTAOKs5crM/r7LI8+ATdp5+YSpda4UhALCWP6SDAAiAgPQEuEL/1csN9JX7NtG961qJ5+JzFwFvPA+ej/E8eF5lkdNmaxDSW0MAAYA13CEVBHQh4PMoupSDQkAgEwJc8f/2lQa6/N6NdMFf16Q3ngfPx9DnnwlBXdNEtZaGAEArQeQHAQsJRPxeC6VDNAjoQQBl5EigM8d8B7MhADiIAjsgYD8CEwqMWW7VfiSgMQi4jsBWrRYjANBKEPlBwEIC9aVhC6VDNAhoJ4ASciSg0ls55jyYDQHAQRTYAQH7EVhYnWc/paExCICAZgKKQk9qLQQBgFaCyA8CFhI4uraQgj78M7bQBRCtiQAy50JAJeoNRBMP55J3aB7cOYbSwD4I2IxAyO+hpfVFNtMa6oIACGghIJ7+71h77cmaX7aAAECLF5AXBCQg8OEFFeTFdEAJPAEVsiWA9DkRiHlUuj6nnMMyIQAYBsSBP7vtapPX7xUtXXbV3jy9awqC9KG55eYJhCQQAAHLCCgq3bTpmhM0zwBgAxAAMAVnb7vsap4/5Ne80IVdbc9W748vqqRZFZFssyE9CFhIAKKzJ6C+SPnd12afb+QcCABG5uKcoyo9bldjQvl5a+yqu9l6B7we+tbJk6g8z2+2aMgDARAwh0CDN+n78OavnqnbgxECAHMcZ5kUL9HvhPCk2Gz1UUih/HDoe7ZS2mJlS8J++u4pU6g8giDAYldAfAYEkCQrArtUJXX6xm+9f09WucZJjABgHEB2P/3nucq7woZfic1Wn6IJJW8985Gp99tKaQmUrS8J0c/PmU7zqrA+gATugAogoAMB9cWkN3H01v868R0dCjukCAQAh+Bw5o94kq4UD9SaF40wi05+SUFbTXnJ+82S5zQ5RSEf/XD5FPrYwiqsEeA05zrGHhiSAYGYSup1Sl7PyduvPnlvBumzToIAIGtk9stw13wlFk/QmULzX4pN2u4AbvYvnlD61qTayrr7z6npE7rikyMBv8dDPDDwd+fPpLNmlSEQyJEjsoGA2QRUol4h8zeicp6z9Zql/0/PPn9R7iEfIeOQ3/jhUAIcBNwxR/mKmqKFwsT/FRcZdw1oXkhClKXp4/F71VBBaKC4uuz12qk1H3z90nmLUPlrQnpIZh4XcNmxNfTXi+bQN0+cRGfMLKWZFREqFq0EPo9ySFr8AAGzCEDOQQIxsdck7scvE6m/UhTlI6FoYsKWa074ol5T/UT5o348o57BCUcS+Ns8ZY0IBK782xxlgfgu+HZRZ0xslOv2/Q9UU67bD06opk3/+X7Pmi8fFX79krnvQ5+/cZdcyO+hE6YU0RXH1dJNZ06jv3xkDv37k/PpgU8vwAYGuAYMugZERa6MswXF+aqt15xw7JZrll62+b8+cOfaa7Wv8JfpnQQBQKaknJuuyyrTvB5PyirZkAsCIGAVAciVhQACAFk8YZ0e26wS7fd4+qySDbkgAAIg4HYCCADcfgUQrSaL/gv4PTstEg2xIAACFhGAWHkIIACQxxeWaKKqylOWCBZC/V56VHzhAwIgAAIgYAEBBAAWQJdJZMoffUDow9NOxJd5H4+iUJE38WPzJEISCICA9QSggUwEEADI5A0LdJlfWdmjEP3dbNH5Yd/6YxdM3We2XMgDARAAARDYTwABwH4Orv6bSir8JB43C4JCCuVFAl8ySx7kgAAIyEEAWshFAAGAXP6wRJu5dUWbVJV+Rib9VxTxv7RsTvUzJomDGBAAARAAgREIIAAYAYobD4VjRd8hlV4y2vZwwNddFs9bYbQclA8CICAbAegjGwEEALJ5xCJ96uuVgaTfd55CtMsoFfxeb7I4rJx87LFlli0+ZJRtKBcEQAAE7EYAAYDdPGagvvMr8/dSMnW2ELFbbLp+/F5PsqQgeNGyIya/rmvBKAwEQMAWBKCkfAQQAMjnE0s1ml1X+rZP8R4plFglNl0+3OxfWpB35GkLav6lS4EoBARAAARAQDMBBACaETqvgBnVBc2+3qLlpKrfF9blvEaAQgqVRIIv1qgFE09dUPW2KAsfEAABVxKA0TISQAAgo1ck0GnGDCU6p7bku0mfb7pKdKtQKeNAIL3ITySwbkJ55KQzl9S9H33+gh4+IAACICAZAQQAkjlENnV4XMDcmuLLk77YBFWljwr9fk0qvSy+m8QW46d8n9eTCgX8PUVh/9ryotDP6ouUCWcvmTQXU/0EIXxAAAQICOQkgABATr9IpxWvGDi3tvgfc2qKvzSntvhY8V0ltuDFJ0xTPvL+qd4LjplccPb7Js9bxE0nPQAADB9JREFUccTEr2OFP+ncB4VAAARA4DACCAAOQ4IDIAACIAAC+hFASbISQAAgq2egFwiAAAiAAAgYSAABgIFwUTQIgAAIuJ0A7JeXAAIAeX0DzUAABEAABEDAMAIIAAxDi4JBAARAwO0EYL/MBBAAyOwd6AYCIAACIAACBhFAAGAQWBQLAiAAAm4nAPvlJoAAQG7/uF677fu67n1jSwvZdXtzayu9ta2V1uxsp/W7O2jbvm7a29ZHHT0xiidTrvcvAIAACFhHAAGAdewhOQMCZyye9KHywvAtvOJgBsmlS6KqKiVTKkXjSeqLJqi9J0oN7X20dV8XvbO9jdbtaqfdrb3pc9IpD4VAQBMBZJadAAIA2T0E/WjFwtorKopDV3s9HtVpOPpjSWrq6E+3Dqzd1UH7xD4HDE6zE/aAAAjIRwABgHw+gUYjEDhtQe2NpYX+T/F7B0Y47YhDA7EE7RGtAe/uaKNG0UqAQMARbnWtETBcfgIIAOT3ETQ8QGD5grq/FOf7Tg74PbEDhxz5xRV/Y1sfcSDQ1DlAjmv2cKTXYBQI2I8AAgD7+czVGq84YtKqwsLIklDA2+d0EBwI7G7poU17OtNjCJxuL+xzEgHYYgcCCADs4CXoeAiBFXMnvJsfStbnh3zNh5xw6I+egTjxDAIeQOhQE2EWCICABQQQAFgAHSK1E1ixcHpTYTgytSDi3669NPlL4NYAnkLIMwbQJSC/v9yuIey3BwEEAPbwE7QcgcDJ8yt7zjly0rSSvOBLI5x25CGeMbBjXzfx9EJHGgijQAAETCOAAMA01BBkBAFFUVJnHll3XGl+4F4jypexzLaeKG1BECCja6BTmgD+2IUAAgC7eAp6jklg/4JBoVvtumDQmMaNcLKrN0bbm3owQ2AENjgEAiCQGQEEAJlxQiobEFixcOLlTl0waCT8PCiwobV3pFM4BgKWEYBg+xBAAGAfX0HTDAic5oIFg4Zi4JUDORAYegz7IAACIJAJAQQAmVBCGlsRWO6SBYMGnbKzpQfrBAzCwLfFBCDeTgQQANjJW9A1YwKuWjAoqdKOpu6M2SAhCIAACDABBABMAZsjCbhpwaCegQS1dkcd6UcYZR8C0NReBBAA2Mtf0DZLAm5aMIgHBPKCQVkiQnIQAAGXEkAA4FLHu8lstywYFE+mqLmj302uha1SEYAydiOAAMBuHoO+ORF4b8Gg4D1KTiXYI9O+zn5CK4A9fAUtQcBqAggArPYA5JtK4IzFdeeXFYZvUUgxVa5Zwrjyb+0aMEsc5IDAQQLYsR8BBAD28xk01khgxcLaKyoLgv/p9SiOfK9OCwYDarxCkB0E3EEAAYA7/AwrhxE4ddHEn5YWBj7l83pSw07Z/udALEH90YTt7YABdiIAXe1IAAGAHb0GnXUhwAsGVZSEl/l9nrguBUpUCL8wSCJ1oAoIgICEBBAASOgUqGQegWVzqp8pKoocGQp4+8yTarykrj7HxTTGQ4OEnAkgoz0JIACwp9+gtY4EnLhgUL/oBkgkHde7oaPXURQIgAACAFwDICAIOHHBIF4dUJiGDwgYTADF25UAAgC7eg56607AaQsG8WBA3SGhQBAAAccQQADgGFfCED0IOGnBoIFYUg8kKAMExiSAk/YlgADAvr6D5gYScMKCQdE4AgADLxEUDQK2J4AAwPYuhAFGEbD7gkGJlCPXOTLK3Sg3JwLIZGcCCADs7D3objgBOy8YxMsCGw4IAkAABGxLAAGAbV0Hxc0iwAsGFef7Tg74PTGzZOohBwGAHhRRxlgEcM7eBBAA2Nt/0N4kAiuOmLSqsDCyxE4LBqkqugBMujwgBgRsSQABgC3dBqWtIODEBYOs4AiZTiEAO+xOAAGA3T0I/U0l4MQFg0wFCGEgAALSEEAAII0roIhdCDhtwSC7cIeechGANvYngADA/j6EBRYQcNKCQRbgg0gQAAEJCCAAkMAJUMG+BPYvGBS6VSHFvkZAcxDImgAyOIEAAgAneBE2WEpgxcKJl1cWBP/T61Ew7N5ST0A4CIBANgQQAGRDC2lBYBQCdl4waBSTcBgERiWAE84ggADAGX6EFRIQsOuCQRKggwog4EQCUdmNQgAgu4egn60I2HHBIFsBhrISEIAKGRLozjCdZckQAFiGHoKdSgALBjnVs7ALBLIigAAgK1xIDAIOIYAFgxziSJhxGAEcyJhAS8YpLUqIFgCLwEOs8wlgwSDn+xgWgsBoBFRSN4x2TpbjCABk8QT0cCQBLBjkSLe62CiYnikBD3kQAGQKC+lAwMkE9i8YFL5FwYJBTnYzbAOBgwRSlFpz8IekO2gBkNQxUMt5BFYsrL0CCwY5z69usgi2Zkwg5SXvsxmntiihxyK5EAsCriSABYNc6XYY7T4Cb82qKcQgQPf5HRaDwNgEeMGgipLwsoDfEx87Jc6CgEwEoEumBFSVnsg0rZXp0AJgJX3Idi2BZXOqnyksjBwZCnj7XAsBhoOAQwmkVPUOO5iGAMAOXoKOjiSABYMc6VbHGgXDMiWgrp0/sWR1pqmtTIcAwEr6kO16AlgwyPWXAAA4j8BtdjEJAYBdPAU9HUsACwY51rUOMgymZEigTfEnfpthWsuTIQCw3AVQAASIsGAQ4T8QsD0BVVF+NruiQvp3AAyCRgAwSALfICABASwYJIEToMJhBHAgIwL7gsHkzRmllCQRAgBJHAE1QGCQABYMGiSBbxCwDwGVlKumlZZ22kdjIgQAdvIWdHUNASwY5BpX28BQqJgBgVVzqgv/kkE6qZIgAJDKHVAGBN4jwAsGFef7Tg74PbH3jmIPBEBAJgIKUYfXQ5cqiqLKpFcmuiAAyIQS0oCARQRWHDFpVWFhZAkWDLLIARBLQDA2AZXUz86cULx17FRynkUAIKdfoBUIHCTACwbVRtSp+SG/9GuLH1QaOyDgAgKKQjfMqSn5l11NRQBgV89Bb1cROHbB1H2F4XB9QcS/3VWGw1iLCUD8GATumDWh6Joxzkt/CgGA9C6CgiCwn8DggkHF+cFX9h/BXxAAAUsIqOoDvdVFlyiKkrJEvk5CEQDoBBLFgIAZBPiGc9biumNK84P3KGYIhAxXE4DxhxMQff5/6a0pPv99ihI//Ky9jiAAsJe/oC0IpAlgwaA0BvwBATMJqAr3+VcXf8oJlT+DQwDAFLCBgA0JYMEgGzrNVipD2SEEukTl/9HZ1cXfVBT7TfcbYschuwgADsGBHyBgLwJYMMhe/oK2tiSwSvHQIlH532lL7cdQGgHAGHBwCgTsQAALBtnBS/bTERpTm2DwxdnVRSfNnlC8Tew77oMAwHEuhUFuJIAFg9zoddhsEIFW0dn/nUAoNXVOTfFvnNTkP5wXAoDhRPAbBGxKAAsG2dRxUqrtSqXeVUm9MumLTZlbXfQDu73YJxePIQDIhRrygICkBLBgkKSOgVoyEkgpRKtVlW5MptTF4ml/wdyakv+dX1nZI6OyRuiEAMAIqigTBCwkcHDBoLzgaxaqAdE2JuAg1flFWtyXz2v1i38P6l8VUr4tnvTP95CnanZN8eK5tcVXz59YstpBNmdsiifjlEgIAiBgGwKi3zJ11pF1R4mnGgVbMRjUuJZBUFz/ZWKbJjbx76HkE7Nrin4onvTvmVVT6Pp3ayAAsM0tHYqCAAiAgBkEIMMtBBAAuMXTsBMEQAAEQAAEhhBAADAEBnZBAARAwO0EYL97CCAAcI+vYSkIgAAIgAAIHCSAAOAgCuyAAAiAgNsJwH43EUAA4CZvw1YQAAEQAAEQOEAAAcABEPgCARAAAbcTgP3uIoAAwF3+hrUgAAIgAAIgkCaAACCNAX9AAARAwO0EYL/bCCAAcJvHYS8IgAAIgAAICAIIAAQEfEAABEDA7QRgv/sIIABwn89hMQiAAAiAAAgQAgBcBCAAAiDgegIA4EYCCADc6HXYDAIgAAIg4HoCCABcfwkAAAiAgNsJwH53EkAA4E6/w2oQAAEQAAGXE0AA4PILAOaDAAi4nQDsdysBBABu9TzsBgEQAAEQcDUBBACudj+MBwEQcDsB2O9eAggA3Ot7WA4CIAACIOBiAggAXOx8mA4CIOB2ArDfzQQQALjZ+7AdBEAABEDAtQQQALjW9TAcBEDA7QRgv7sJ/H8AAAD//ze+68EAAAAGSURBVAMAh8N3s2cTwPIAAAAASUVORK5CYII=;" vertex="1" parent="1">
          <mxGeometry x="894" y="357" width="72" height="72" as="geometry" />
        </mxCell>
        <mxCell id="fmKW4fnp1R0cMEkp2_Lg-2" value="" style="shape=image;verticalLabelPosition=bottom;labelBackgroundColor=default;verticalAlign=top;aspect=fixed;imageAspect=0;image=data:image/png,iVBORw0KGgoAAAANSUhEUgAAAGQAAABkCAYAAABw4pVUAAAH40lEQVR4AeydXWwUVRTHz51tV7AQEAVD4IGgBhD8SNAHJUp5Mfhg9AUSIoXlW0OJxSCtEGAMph/WUJQ2QItukb5Boi8m1sS0xhh9kJgonwkPPJSilkJKQVrbucd7t8wyuzOzc2e689XczfzZmTPnnnPv/5cN7ex0VwH5iJQDEkikcADEGkjN4ROHmPq4qg9/sSdi3nqaTqyBAIGpbNWPcSlAy9hz7Ld4A4m9/eYFSCBmT0KNSCCh2m9uLoGYPQk1IoGEar+5eaSB7Gr8qmzvoZNz7ESRPPjJCmGqXR6Pq+n0JPPyoxfxB0iR1pkoGU5pykiPnRTANXorJGSHXR6PDw1ob+i5UX6ONJAoG+fX3HwDgsfhYUyDmiMW82shxa674cPaman9japRxe5hVc83IFAKZew36QM54jEQf0weuHb05mQtaScg9Eu9GiFYb5fH4/XvbTqj54o80xJlFiAcAKPA/4d/QIowd1VVaeu2bSN2YpfiaLYNQuFcRiybG+GdSAOJsG++TU0C8c1ab4UlEG+++TZKAvHNWm+FJRBvvvk2Kk5AzCZQvIaUXuBiJ/9miv0WayD1O7eoDe9vXcxVV7Xl89jTYAuINRA2/wm3SSARQyqBxBUIu0jYgu2AogIF/jGtlcVEx2fy0tBiquExsH5f4+nUvkYUFYHEOch7iI7N5rGLk3klHA/lK8TRomATJJBg/XbsJoE4WhRsgjiQEviYTW2JsAi8wnJzt7GYeI2xnrk1PB6VJuhOBG2JqCjV3spvJTpWzyMjIy35NZyOhYGQCrhOUnBeVKDBZVNzFhMdn8ljPU01PAZOqNU9Jw/WnDfJJkYUuJLfSnSsnpeu29OXX8PpWBiIU6Egz1+veX7eX7uf6bbSzeql04KcS7F7xRII++G7jBmx3ErDCk2yeGy3eAKJrd3OE5dAnD0KNEMCCdRu52YSiLNHgWZIIIHa7dxMAnH2KNAMISD8LvTqprbtulRVFRoX6Eoi0qxiV2dZxfYft+tSVXTllVDyQwmcTghp1tU7e3YiIuuP3DTInZLpCNiMgBn19p515ZUQEE+rTsIwG8fvp32gsRgLR38rTZABBDhjVBCz9g0IWQu32fWoVTlisSAWVYweY9e+Plh18uADFaOuUw3fgDg1luetHZBArH0JLRoqEH7V9nr1c4vdigJ50s6xBKUL3Nbj+T27n51rVzPIeKhACNXaCdJzbpVA7Rs7kyjSn9zW4/mlFJvsagYZzwKp4R/k8tmJthoLjSijjcZJzRgix6zyMrGmNtWYOxH311Z2H1r7bneblSgkcry6V3r3mFVeJlbZZfIqC4QZVwEIm61k/GtXlgeAykarPB5DxFWZnIn8D0IFKMwrKyVgjXHpCLjRNheJySsjEGMduR+SA1kgCKSJANZaCvGIcX4sp57JMldRyHFj7gTd5//f1LK1mUQAcr0ipN4qj8dYrsmrLJCGqk21dVVb9hql7yuYbGAFslv/ZLpfP2fxPCHuQs8u1mKno6W8lmmvlYim5Xg1+b+y/VZ5PHaqpdzkVRaIRV/fQ0mSfBMTJbPcSiGK+Raj+7OlieQi9FCzZPjepvslQn0KFciMhrMDs+t+73MrDeCWnWsEaL/bejz/0SNXbtvVDDIeKpAgFxqXXhJIxEj5BuS3+fOn/bxgQbdRPBax9dtOZ/rK9Lypr6W7jbJNLuIJ34D8qyhJ9obWcqN4rIhz97XUKP8sLqIsB6N87ThWXAhI6SO0n6Wv1tW6deso25ebhQPKkNJPCKzW1dq61JVXQkDUDRuG6qs2n9YFhKDFXGSIOdDevmLoVHP5aV0A7rwSAgLyEZgDIQAJbG2xbCSBRAybBCKBRMyBiE1HvkIkkPE7oCEOEApnrJS8M8hv0Bt/k5AqxPIVMveTP3oe//TPVVaKylVbrzyFgfy6aNFTvyxcWC6qEkVZlj8pHhMdz/N4z/waXo+nvN7x9JSV6XJRIcEX83uJjtXz+PWw/BpOx8JAkNIq9ut5l6hAUb42NWcx0fGZPNbTVMNjgKD2EUGlS1QKKun8VqJj9TwKSiq/htOx4pQgzwfrwIQBEqxt/nVzA2QQAW6IiiLezJ82j4mO53ls/CBTcTaKAwB4Q1SIaPE2sfh43oet4a7byQsDeeny5Zplly7NFBXVtIX5k+Ex0fE8j/fMr+H1ePD71ObBztRMUcHY57LktBMdm837bn3OXYw5xWwOhIHYjJfhIjsggRTZ0PGWk0DG62CRx8caSOYu9O3dfWvHtKfI3oRSLtZAQIPsV68y9/gnBLGneG/xBhJv7y1nL4FY2hJeUAIp6H3wJyWQ4D0v2FECKWhP8CcjDaRiV2fZund+mGMnQMj+ZEWATrXL4/FUqmtS8Pa67+gbEG10dBAIqTQqE3Mzx3uTUjSR6LETGP7AEkHZYZfH49oU4uqrVxMlpb0IpNIoN1P3musbkBVXrw69fPFii1E85nWiQY8b+PbtW3c617UYFcQcfAMSxOQnYo9IA3li5qtHHx6ZkrQTAWL46lVSb5fH46eal/OPiYo8w0gDUVVCW1tfGLETUqS6w+wNpYK54PIudAjpEWkgIXkSalsJJAT7C7WUQAq5E8I5CSQE0wu1lEAKuRPCuXgDSeA15tkFLgIgv3qVGRHq1tG8Qu1oKV/MZfVBLqFOzmPzeL9CPC46ysMkkIjRkUAiBuR/AAAA//9sg0bdAAAABklEQVQDAGLWfyOkiQkvAAAAAElFTkSuQmCC;" vertex="1" parent="1">
          <mxGeometry x="940" y="213.5" width="61" height="61" as="geometry" />
        </mxCell>
        <mxCell id="fmKW4fnp1R0cMEkp2_Lg-3" value="" style="shape=image;verticalLabelPosition=bottom;labelBackgroundColor=default;verticalAlign=top;aspect=fixed;imageAspect=0;image=data:image/png,iVBORw0KGgoAAAANSUhEUgAAAgAAAAIACAYAAAD0eNT6AAAQAElEQVR4AexdB2AUxdd/s5feSCC5vQREmtIECzYUkgCKHSt2BQXEDlZAREQFwQb2XgALAjbUz4okgPq3YAEElSIi5e4SakL63XzvXXLhcrm73N3OXstcZrK7szNvZn6zu+83b2ZnFYjoX794k6ngOFUtuBX9i+iXot+C3oae++lrMd5WVc1fqaoFLxuN+WNzcwuP7dWrV0JEV10WTiIgEZAISAQkAjoiEHEEIDd34DGo9KcZjQXFqpq2l3P4Eev/JPrr0A9Gfyj6QModh/EPAWAnA8BoxtgLdjv/adeunDIkBN9hPlNycwf1w3MMvXQSAYmAREAiIBFoBQgABKJIdQMkJ6dwACrjJ9H/a7crq1Dp38cY5GOGKej1cmQB6I/5PGC323/GvHegf5nKoleGUq5EQCIgEZAISAQiBYGwEYCsrFPamEyFN6PSXasofAUCciv6jujD5UyY8WgqC1oF/kQrxN1IBigMg6WTCEgEJAISAYlA7CBANQk5AWjfvrCD0Vj4TEJC7XbO+dNYiN7oI8qhVaA7WiFmIRnYoqqFL6hqfueIKqAsjERAIiARkAhIBDQiEDIC0K7d4PaoSJ+uq+MbGeM3YblT0Ue6SwTgYwHYX2gVeD0nJ/8wkD+JgERAIiARkAhENQL1hdedAHTo0D8ZzekPxMXZNgKwmwEAlSr+jy4Xj1aBkYrC1iIRmIVDA2nRVXxZWomAREAiIBGQCDRFQFcCgD3+wTU1Cb+iOX0KZpuEPtpdAhKBu3FoAC0C+VdjZRh66SQCEgGJgERAIhA1CDgLqgsB6NhxQJaqFrwLwJaiwuwOsffLY4zNxTouUdWTjLFXPVkjiYBEQCIgEYh1BIQTAFUddEJ1tWEVAncx+lh3ZwPEr1HVQtzGelVl/SQCEgGJgEQg+hE4WAPl4K7mPcVoLEBTv30lSmpNs+bRAsCXmEwFjwMMN2DdpZMISAQkAhIBiUDEIyCEAHTqVJiEveC3GYMHAIBW3sNNq3KMc7hdVa3/R+sbtKqay8pKBCQCEgGJQNQg4FpQxfUgmP327Ye0q6riXwHwS4JJH2NphiYk1K40mQo7xVi9ZHUkAhIBiYBEIMYQ0EQA6L34urq6H7H3OyDGcNFSnSM459+bTAN7aREi00oEJAISAYmAREAsAk2lBU0AcnMHH6ooDHv+0KWpSHmECJg4V5bhsMgRuC+dREAiIBGQCEgEIg6BoAhAXt7JHe122zKsDX2ZDzfSeUCAJgculSTAAzIySCIgEZAISARCjoB7hgETAFrS12aLK0JBrWmmP1Y3KEck4CuylgSVWiaSCEgEJAISAYmATggERADy8vqlGAx1H2FZwqL8UwwM+qXHw7ntkuDWDikwq0s6vHB4G5jbow282ysTPjgiC97s2QZewrCnumXApI5pcIWaDPltEiA3IWxv6JnQWvJJ27YnZCBu0kkEJAISAYmARCAMCDTPMhACwGy29NcYY/2ai9EvpHdqPIw7JAPe6p0D3/XLg2cPy3IofyIBxyIZOCzZAB0SDZAdr0AGEgRS9F0xrHdqHJySlQDXmpJhaqc0BzF4q2cm3HVIKhRkJgCt6atfqZtJPiIhIeldgMK4ZmdkgERAIiARkAhIBMKAgOJvnjiWPTlUr/qRMh+dlwYf91Vh4RFGuC4vHY5KS4B4BpAeH+/w/pbbNZ4pQYHT2ybCfYemweLemXAnkoEjkCi4xtFrn3M4XVX5I3rJl3IlAhIBiYBEQCLgDQFP4X4RgJycgoGo/Kd5EiAyLDchDiYe2ga+OEqF2w5pA12S4zyKTzXEQZv4BEA+4PG8P4GpaC04A8nAkzhUQP7EjHhN8vzJE+OMV9WCc3ArnURAIiARkAhIBMKKQIsEgFa2UxSYj6VsMS7GCcqlGRSH4v/sSCNcZUqDJMywJUHJBoODBLQUz5/zZAWY3jkdnjosA2hIwZ80QcYhzvKK0ThEDTK9TCYRkAhIBCQCEoEAEfAcvUWlHh9f9yQm1e11vzPbJcMnfesVf7xC+hFz89MlCSQBlGWvlDh47rA2jjkGaWghoDAdvFFR6t5AuYFVFhNIJxGQCEgEJAISAVEI+CQAqjroXMb4CFGZucpJxV7/Y93awqPoczTM0CdLQFpcnKtoTfvEQWiC4YuHt4GeKQZNsrwl5hxONxrzL/d2XoZLBCQCEgGJgERAFALe5HglAJ06FSYB2GeDDr8eqfGw6IgcOAN7/yLEp8XFQ6IiVlnThME53TLgohyEQUQh3WQwxh5tK18NdENFHkoEJAISAYlAqBDwSgAqK+13YCE6oxfqTshIhLk9s+HQJHG9dipgZkI8GKj7TgeCfBxjcENeCtzdMQ10GBHIjY9Pul9QUaUYiYBEQCIgEZAIeEDAe5BHApCTU2gCYBNA8I96/C/2aAc06U+waGD4lxmXCKizRYuG07ISHK8O6rB2wC25ufk9hRdYCpQISAQkAhIBiUALCHgkAIrC6ZW/9BbSBnSalP8jXbMgXg8N3VASmkSYZohrOBK7GdAmAe7vnApkFRAoOc5uZ/cKlCdFSQQkAhIBiYBEoBEBXzvNCEB97x+u9pUo0HNk9n+4a1tQdFT+zjKlxMVDnB+vETrjB7I9IT0B7j4kRXQ9LsnLG9Q9kHLIuBIBiYBEQCIgEdCKQDMCwBi/HYUmoRfiaMLfM4e3w56/EHEtCmEYIwNJAG50cUOyEh3LCwsUbrDb7ZMFypOiJAISAYmAREAiAAC+QWhCADIzCzOxkz7WdxL/z6YaFHiiW1tI0WEGna9SJKAFgF4P9BVHy7lLjUlAKwdqkeGalnO4PC8v/xDXMLkvEZAISAQkAhIBPRFoQgCSkvgYzEzYV+umdc4UPtsfy+eXo1cDyRrgV+QAI5HciR1TwRgv7NVDQ10dXAvyJxGQCEgEJAISAUEItCSmCQHAnqiwRX9ohT+a+NdSAfQ6b0BTRpJOEwKpzOlo3bgLSQDti/CMMSQAw4UxChFlkjIkAhIBiYBEIHYRaCQAubmD6DO/vUVUlV7zu6tjGxGiNMlIjTMA9dY1CfGR+Ji0OBiUmeAjRkCnOppM1qEBpZCRJQISAYmAREAi4BGBlgMbCYDdbruy5ej+xbi5QzoYNSzv21IuHCP8caAWXt9ZDhM37YYr/iiBc1dbYNhqK4xaXwpPb9sPf1XUQhxTIMFgwNj6uevzUoC+LCgiB7TAXCVCjpQhEZAISAQkAhKBlhBwEgDcsstaiuzP+TxU/JcaU/2JGnCcvXV2eH57GZz2mxkuXmuFx7bug49LK+G38hrYWFkHmypr4X/7q+EFjHPhGivcvmE3VNqxagHn5H+C7HgFzs9O9D+Bj5hIAE4H6BfvI4o8JRGQCEgEJAISgRYR8CeCQzvm5hYeAwAqes3u2rw0iFeYZjmuAmpRM768owxORcX/DPbut1fbXE973CcrwRe7K+GqdaWwzY/4HoX4GXhhTrKQNx0YgyyTKW2An9nKaBIBiYBEQCIgEQgaAQcBsNv5qUFLcElIveELclJdQrTvbsGe/SVrS2DOf/uhwkZqPTCZ5hobTNpcDvuCSOtvThkGBme3E7N0AnKdc/zNV8aTCEgEJAISAYlAcwT8C3EQAIwqhACcl5MCiQJ7/6vKquHSdVbHeD6WMWi3A0nAazsrgk7vT8Jz2iaKmnAoJwL6A7iMIxGQCEgEJAKaEFDy8vqloIST0Gt252aL6/2T8h/z5y4oqwu81++pIp/trobSWrunU0LC8hIV6J0q5DsEPeVngoU0iRQiEZAISARaJQL+Vlqx2dL7YuRE9JrcEakJ0CVZiAIEMvvf9PcuqLaLUf5UMRoB+HZ/De3q5k/J1AwjlU2Jj088lnaklwhIBCQCEgGJgF4IKJzbiQBolj+krZgxcJrwd8em3cJ6/q4V21DR8uRB1/iB7p/cJl7QMAA7IdC8ZXyJgERAIiARkAgA+I+BAqAIIQDHZwjp/cIbO8vhzwO1/tcggJi76/QbAqBitI1X4NAk7esOMMb7kTzpJQISAYmAREAioBcCiqLwI7UKTzUoQEMAWuXQe/4v7SjTKsZrelqh0OtJQSeOShMxDMK6CCqOFCMRkAhIBCQCrQiBQKqKQwDQOZAEnuL2TYuHOObpTGBhb5sPBPWqn7+5dBTQO28pryNS41uK0uJ5ux06gfxJBCQCEgGJgERARwRwCED7AkCdk7T3emm630el+r6qN6BNoo5Q1ovumChiCACysrJOaVMvUf6XCEgEJAISAYmAPwgEFocIgGbt3TlZe693HY77b6uuC6z0AcQ+Ki0BeqVoL2dLWXZIVEBh2s0h8fHVh7aUlzwvEZAISAQkAhKBYBEgAhBs2sZ0Iia+/bi/ulGe6J14VMgTD20DBtyKlu0uL1FhkB2nHVZFictyly2PJQISAYmAREAi4A2BQMO1ayrMMSvOgP+1ub8r9Jn5r6DSv69zG+iDFoBQEABCoU2cdgsAgC2VZEkvEZAISAQkAhIBPRAQQgBSFO0K7z8dzP+Z2BN/+rC20Ph9Au3F9KsNkgXgAaDQCo1+5ScjSQQkAhIBiUBrRyDw+gshAKkGFnjObinKBL6jTysS3tQhAz47UoXCrKTGnBiwxn09d5K1G0TAbrdLAqBnI0nZEgGJgESglSMghADECejxcgHK+fnu2fB9v1z4uK8KN7ZPh4y4ptULjfoHiBeQEY5caJ6c2cqvbVl9iYBEQCLQahAIpqJKMInc0xywaV9hLydee1GOSotvpvRdy8o5dz3Ubb9SOxyABKBctwJKwRIBiYBEQCLQ6hFQRCBQQV/a0SjoqPQETRK6Jsf7VP4kXIBeJjEt+gMC8MBMJAFAEKSTCEgEJAISgZYQCO68ElyypqnKBCi8oW2TQYvl/PR2yU0L5fEoNBYAEQRAWgA8NqAMlAhIBCQCEgFBCAghANuqtC/g0z0lHk5FEhBMvWi2/5Vqy2/N2UIwBGDHPCw12m0NnBt2BYOFTCMRkAhIBCQCrQuBYGtLBEBzt/hfQa/w3dspE3ITApv7pmBX+aEumS2a/wkgu+aakhTf3lrLoQZJgO9YLZ+12fi/LceSMSQCEgGJgERAIhAcAkQAtgWX9GCqfyq1WwBIWrt4BV7s0RY6JPpHAuJR+U/r3AYGZflj/geo49p75lROX/6/apuv0/6eKy0pKZJzAPxFS8aTCEgEJAKtFoHgK44EgP8dfPL6lGvKxa3iR5P5FhyRA8ONqT6/MEhr+8/vlX1wkZ/6ovj8XyegZ+4zAzy5QQAZ4lz2/hFK6SQCEgGJgERARwTQgs40E4CdNXUg8kM+WXEK3N85E748ygRTcEsr+Q3MTIKzs1Pgxg7p8C4ShDd75ziW9/UXGxqbJ+9v/GDj/Vau3RrCGOujqgWfmkyFIzt2HCC/CRBsY8h0EgGJgEQgxhHQUj0Fe5t/aRHgTKvHx3zUBANcipaAB3GM/4Xu7WBW1yy4qX0GHJGaEPAbA7Uhs4dteAAAEABJREFU6P3j8D+sEUAAENME9Gdi27xeXW0wq2r+JyZT/ojMzMJMDJdOIiARkAhIBCQCmhHAIQDlB81SUMCKvVX4P3JdtU3I2LzPCq7GoRAREwDdMkEywM7inL2RmMgtkgy4oSMPJQISAYlAq0VAW8UVi6VsFYqoQK/JFe2phv0C1/PXVBgPiWu4/gTg6701HnIWGuRKBkqRDKxEP85kGpgjNBcpTCIgEZAISARiHgEFYFUtAP9Ja02p5/vl7si0AtDYf53O7wBW2QFW7tOdALg2kwGAnYx+DufKTiQCkgyA/EkEJAISgdaDgNaaIgEgEcpK+q/Vv19yQKsIXdJX2VE76yL5oNBiVP4ilkQ+KDGgPVcy8J+qFnxsNOZfnZV1SpuApMjIEgGJgERAItBqEHAQAM75pyJq/Ht5DfxcFtJesF/FrrRpn5nvKyOyMCyyVvqKEspziZjZ2YyxuQkJtbtUNX8lkoHrJBlAVKSTCEgEJAIxg4D2ijgIgNVa/D8U9R96ze6VHfs1yxApwAYcanW2AKzcXwv/VOk/xyAIXByWASQDLyIZsKjSMhAEhDKJREAiIBGITQQcBACrhkYAtgS3mt2KvdXwawRZASpq9e79A8y3RObcB7fGdLUMEBlYYjQWXCUtA24oyUOJgERAIhAFCIgoopMAgKLw90QIJBnT/90LAj4QSKI0+0q7vj3zJbuqYbOA1f80VzQwAUQGzmEM5jVYBj4yGguvbNv2hIzAxMjYkYxAdvbJ6UbjoCOR6J2P/nZVLZyD/hW0BC00mfI/x+1S9F+pav4nqlqAYQXzMPxR3L9FVfOH5eQUHoU+LZLrKMsmEZAIBI9AIwEwm4uLUcwm9Jrd+gO1sNAa/qXsK3Dsn8bnNVfIi4A9dRxeN2t+g9KL9JAFExkYxhifHx+fZFXVAkkGQga9yIyGG0ymguOw/VB5F76J240GQ9x+xuy/MQbvo38cgI9DPwpzHc45Ow23g9GfAsDOAgAMg6sw/E7cfwqAfYSdgl/R70VZa43GwjdMpsKbc3MH9QOAxucG7ksnEZAIhBwBMRm63sioK9kLYsQCPLltv9DlgYMp14E6fc3/T207AOWRYuoIBqDmaVzJAA0TIBnIv0JaBpoDFQkh1MNHpXwRKv55qmq1cA4/YrlQefMrcNsVvQhnQCG9GeMjOOdP2+32n5EQ7ED/mtE46EJ5bSA60kkEohQBVwIA8fGG17EeQga0y7B3fOfGPVCLTyWUGXJHyt+mY95LdlXB8n2R98aDQKCTUBZaBtibaBlAMpD/odEoyQBiEm6nGI0Fp6JfhD38ElTKi/AyvwoL1Q59qJyKGV3DmH1x/bVR8Laq5pM1gWG4dBIBiYDOCIgS34QAbN++dBc+TBaIEr6mvAbm/Bf6twLsHOBAXa2oajSTQ1/8e2571Jv+m9XLRwCSAXYuY5IM+MBI11MdOw7IwvH7iapasIEx+BL9RZghWWxwE1aH1wZcBsBoPsFGLN8k+c0KkD+JQFQg0IQAUImxRzEDt8Js52/sLIe3LKFdIKjMVgN2rIQerrTWDvf9cwAtG3pIjwqZ+MBvJAM0Z8Cx6JA0BevTdu3bD2mHZv77q6sNm3H8/mHMpQv6SHVUthmJiXwrEoEnjcYhZCmI1LLKckkEohQBccVuRgBKSpZvAGBzQeBv1r974evdoVkoh975r6zTZ+b/fhzvv2tTGVhr9ZEvEPJQiaIeqGPRoQZT8Aeqmn85jU2HqgCxmg/NvlfVgul1dXX/ICmfivWMpi9BpmN5b2WsboOq5j+oqkNT8Vg6iYBEIMIQaEYAqHyKojyIW2ED3Kg34a6Ne2DFPiHTC7Bonh0HDnvrhBW7SSak/CduLoOt1UKVP2eM34wZvYy+FH00O7QMwHkA7C0cmybLgCQDENzPZMq/GK+L9Zj6HvSkTHETlQ7Lzu4FqF6PVgwasojKSshCSwQiCQGRZfFIAHbu/OZfAPY8CPzRx4Ju+Xs3fFSi39h5WW0d2GgCgMBykyjq8Y/bsB/+qhA2MkJi0bO3zeblz1osxddZLCyXcxiKgbFIBt5X1YLLpGUAW9eHw15/N8TpK87Zu4xBBx9Ro+3UIWjFWER1MxoH0DBBtJVfllciEJMIeCQAVNPa2sr7cLsdvTBXi8p58uY98PKOMuyrCxPrEFRpswG99+84EPhvQ2Ud3LKhTHTPn0pYXlenTKCdel9UZ7UWfxWjZOB8rOPbaBmwoBJ4H/1lqOzkAjMIitNhD3mkovBf8fgU9LHqTmHM8KvRWEBvLcRqHWW9JAI6IiBWtFcCsHv3D/uRtd8qNjtwKH56M+DGv0phT52YqXo13A77asWb/ulVv1uw508T/0TjAMCm7Nr1jReC5U4GOC3a8goA7EIfzS4ZC+8gA6jsrCZTwXuqWnhpayYDNGMeMViA9xq9gtsaSFEGWjfmIQl8Wy5DjXeDdBKBMCLglQBQmazW5e/jdgl64W753mq4cI0Vvt9XrUk2veu/t1qbDPcC7KnjMG1LOTy5rUKX2f6cwwqLpegp93w9HxMZWP6lxVI8BocJTKgoYoYMIA4XICV8p7WSgdzc/J6JiXwVYnCJ57aP6dDLEhJqf87LG9Q9pmspKycREIiAaFE+CQBlZrPV3YBbK3rhzlJjg9F/lsIdG3YD7QeaASn/PTXiXvnDEQr4sLQaRv65V89FfupQidNyrEGYPyQZCPQaidT4qjpoiN3OvsPyteYx8W42m/07tAQNQhykkwhIBEKMQIsEoLT02x2osGjMLgiF5V9tPt9dCWf9boGnt+33e1jAjt1HUv51aP73LxfvsUjW8n01MBbN/U9v13153zhFUW7C0mhcNc2dDCinA7BXAaJ/mACb1sUykL9YVfMviaVXybA+SADtn2FbRdOrfVhcXVxbbO8vkARco4t0KVQiEDMIiK9IiwSAssShgC8B2MOg468Su98vbC+DU361wMP/7oP/qry/bkdKfxf2/GmrpUhVSGm+2FMDo//e7zD5b64UPcvfW+n4OFUtnI1nNZIAlOBwRAaWfWGxFI2uHyaIJTLALgRgCwCqS0ym6CcDqlpwK9bnZQCIRy9dPQLxSAJeNZkKbqw/lP8lAhKBUCCg+JuJxQL3A8A36HV1VXY7vGkuh9N/N8MVf5TA25YD4DoJj94k2I3K3xZkz7+WA6wqq4VZ/x2Ai/7YA49sLYd/fZAN/SormgQ4S+pKBspzOW8kA7udMaJ0m8x5IxmwGo0Fi0ym/IujyTKAyv8WxH4OekHEDyXFjmOcwzMmSQJip0VlTYQioIcwvwkAQFFdTU08mmZhjR4F8STzt/IamL5lLxT8shOGrbbC1M17YLG1DDZU1EG1HTW5p0QuYWTaN9fY4SdU+G9bK+HuzWUwbM0ex/bL3dVAVgeX6GHY1YsEOKuyqtZqdVoGyk3cQQbgNTwb7WQghTG4iHP2LloGooIMmEz5NOzzJGIvlT+C4MU5SACSO5p35CWKDJYISAREIRAAAQDYs+frfXV1hjMw863oQ+o2VdbC4pIKeOjfMrju731wFiryS9bthetx//ZN++Gef8rg/n/LHcr9xg374Zo/Kc5euGL9XqAV/F7dWeno+dfwlolDSCsGepMAZ22cZKB4lMVSbrLbGbVjzJKBvLx+Kc6ah3trNOZfwDmjtz7CovyTkhKhe/dDYejQ/jBmzPkwbtxlMHnyKJg+/SaHp30KGz36PEcciktpwoQbYwyeUdX8YWHKX2YrEYhABPQpUkAEgIpA764zZiflEdZeJKlxGhrYUGmD38vr4If9tbBib41DydOKfbRkb+Qpe0LQkw8VCXDmvaq2pKToc4sldsmAzZZWoqoFC02mguHhJAO5uYP6McbmI/IB32uYJiiXlpYCp512Mjz44M3w5Zcvwv/+NxfeeedhmDnzFrjhhuEwYsQ5cOGFQ+CMM052eNqnsBtvvNgRh+KuXPkqLFgwE+644yrIzz8GUlJopeegihNMIsSKvZWTk390MIllGomARMA/BPBG8y+iayyzecU6zu306o7FNVzua0Eg1CTAWdbYJQNYw+Gcw8JwkYHs7JPz7Hb7R1gO3a0RBoMCgwYdB88+OxnWrHkf5s6dDmPGXAR9+3aHnJwciI8PbM6hoihw+OEd4YorzoA5c+6Er756HgnFjdC/f1+gvLBOers0RWEfE4Z6ZyTlSwQiHQG9yhcUAaDCWK0rVttstnzcD/lwAOYZoy5cJMAJZ1MywBiciWdohbqwWnuwDFodKWBXMvCuyVR4kb6WgcI4gyFuERa8PXrdXEJCPIwceS58//1b2Mt/FHv2p0JyctPeusFggHbt2kFCQkLQ5UhOToSzzhqABGMifPDB45jPECQVcUHL8zNhe0WJewdguMHP+DKaREAiEAACQRMAyqO0dOXfimLIR0XxNx1LLwKBcJMAZx1W1ZrNxZ/hMMG1NGcA29hBBrBHvccZI0q3KVjuiznni9AyQF8t1IUMGI32yZjPSeh1cQaDgor/PPjxx3fQbH8bdOyY6zMfRVE0kwBnBh06qI45BB9//CRcdNEQINnOc6K3eN3lq2rJJNFypTyJQPQgoF9JNREAKhZ9ObCmpuo4AE6mTgqSXjMCDhJAX2NkmkUJEXCQDFitxhy7nQ1EsTSpTZcVIlF2qFwqZuQkA6WqWvCx0Zh/tdZvE+TmFh7LGCMCgOLFuz59DoePP34WFf94MJmy/c4AywRt27bFnntgwwHeMjAas+Cee0bBm28+BH36dPMWTUA4n2o0FvQXIEiKkAhIBFwQ0EwASBZ9OMhiWX4BAJsO4PjeD26k04YAHyt2sSBtpTmYepGtpKRoJVoGxrVrV3IIY3AmWgXeQB/tlgH6UNHZjLG5isLNiP0Co3HQhR069Kfwg9VvYY+GFex2vgCjidGyKMjp4uIMMGXKWPjiixfgmGN6OoMD2lJvnYYD4uLEme979OgEr79+P9xyy6VAZQyoQP5FjmMM5nXqVNh0bAPkTyIQ+wjoWUMhBKChgHaLpeheVAQX4nG0f7UOq+C303H5QC54xUC/6+RXxHXr1tXQMIHVWnxNdnaJiTF+Frb/G+ijnQygZYBfwph9cW1tQkkgZMBuT5uI4HVFL9S1b6/i2PuTcNNNl2k2uRMJIEsAY+IMTCTzmmuGwYsv3gtGY1uhdW8Q1q2iwj6hYV9uJAISAQEIKAJkNBGByuADNBEfgYEfoo9xx5dybugBwJ4E3X6RTQKc1a4nA8v/D9s/lskAzRl4x2jMv8CTZUBV8zsj+bnLiYmo7dFH94SvvnoJjjuObisxUskCkJWVJUaYi5Sjj+4Ob789HXr16uISKmaXMTbBaBwgXrCY4kkpEgEdENBXpHACQMVFE7HZYik+H0cDrsDjWLQG7MW6jcZhj1Ot1m82WSxFt4EkAeD8xTAZSMM6XoqK6D20DDQjAxj+GJ4XaqYuLDwOFi9+Asfu26BosS4pKQlSU75vLQIAABAASURBVNHYIVaso6wvvXQvnHhiH8GSIZkxwxzRQqU8iUBrRUAXAuAEExXk29jT6I7Kkm7aGmd4FG9tAOxVm83eC+tGX96j9YgAf1ySAETBg2tOBpSzOWdzMSqSKPwfvc6NDOR/wjlcILI6tJjP/PkzUEkHNA0hoCJkZGQImxTomjEtHPTUU3c5FhFyDRewf05OTuEAAXKkCIlAxCOgdwF1JQBU+O3bl+5CZXmbwVB3GB6/hN6OPhrd15zbj0FFP7q0dMVODxUgEjCeczbLwzlBQY7hgAh6OyCwatWTgWWfWq1FIy0WYzYOFQ1ECU+hL0EfzS4NgJ0FAn/HHtsbXnhhii7K2bWYjDHIzMx0DRK2j+QfZs26FY4+GkfJhEkFUBR+n0BxUpREoNUioDsBcCK7Y8e3Wy2W4rGoRI/mHN4AgGr0ke5ogt8ixuwnYNnR3L9idUsFRuU2CfQdDojQtwMgwF+Ttwk6MBYzloEAcWgevWfPLvDWW7OaLejTPKaYEFolUI+hACpdYmICzJlzB3Tt2oEORflTjfK1QFFYSjkRi4D+BQsZAXBWhVYQtFqLr8HeXyeof20wEpcTLgXgMw0G3gUV/8Vm84ofwf8fWQLknAD/8QJXy0C7diUqADsHO6bzACDahwkg0F96eiq8+uoD0KYNGhUCTawhfnp6Ovas9XkcUJ0ee+w20UMZUzRUVyaVCEgEEAF97ngU3JKrnyhYdC+agtujRWAoxn8dfTgf+PsB2Fuo+M9NTmaH4LDFpB07lv8Hwf0kCQgONwcZsFiKPjGbi0e0RjLw6KN3QJcuQnvLfrUEvcaXlpbmV9xgIh16aC7cc8+1wST1mAYJ4ulG42Dhr1t6zEwGSgTCgEAosgwbAThYuUU2tAh8ZbEUX5uenmJCy8AZSAge5Zyvwjh6zhcg2WtQ4T+Do4rnodJXLZaiK1HxL9mypagK89bqJAnQiCBZBrBNPiEyQNcGHLQM7IMY/F1yyelw3nmDw1YzGgYwGAy65X/GGSfD2WfTtA8hWTDGbKOESJJCJAKtFIEIIAAHkd+48bNqtAx8joTgbqt1+bGJibZsxvhZ6CdirDcZg19xG8zcgUpM9xv6BUgupgLwc+Pja3IsluK+qPBvsViWfSRI6WMWTZwkAU3gCP6Arg1Lg2UAyYBzmIA+sxsTZCArKwOmTr0heIAEpGSMgZ5WACribbddARkZwiwN1wD0E77iIpVTeolAeBEITe4RRQDcq7x168o9ZvPy/0M/y2Ipvgp7gsfgNqm6mmUZDKynovACzpWL8Ll18UHPL6Eevd0O+YzZe3MeZ8I0aeiPRn8ZkosHUOkv2bbt+1B94U6SAPeG1XjsQgauricDMAzbP6rJwOTJ1znen9cIjc/kNTW18MMPa2D+/I/h4YdfgUmTnkTS8Sy89NJiWLt2oyNtSkoKMMYc+3r8I6Jz8814i4oRblLVDPpIlRhpUopEoJUhENEEwFtb7N1btHfHjqI/d+5cvtxqXfYeEoNFB/3yhdSjLykpXmE2r1hntS6lSYZk7vcmLhThkgTohPJGtBohsfsY2z9qyQDN+r/8cn30mB2Z8OeffwsjR06Gww8/G8499xa4667H4ckn34TXX/8AXnxxEdx33zNwyimjYdCga2HZsh+BSIBOzeUQe8EFg4S9FcA5P98hVP6TCMQQAqGqSlQSgFCBIzgfIgFynQDBoLqKi1YyMG7clbrMwP/kk2IYOHCEQ/kTCaiq8j16tn79Zrj88gkwe/abQMTBFVuR+zThcOTIYUJEMsbPBhiu38QFIaWUQiQCkYmAJAAhbhertWgi13exoLGqWhi1iwWJao5oIQOdOuXB2WcXiKq2Q05p6R648sqJMHr0VNi06T9HWCD/XnhhETz//OJAkgQc9/TTT4KOHU0Bp/OQoJ3RWHqih3AZJBGIUgRCV2xJAEKHdWNOSALkYkGNaOi/05wM8HMx1zfR70cfVjdmzEUQFyeuA0tj+aecMga+/vp/mur12msfwc8/r9Mkw1dig0GBSy6ht399xfLvHGM2tAL4F1fGkghIBA4iIAnAQSxCuSeHA0KJtkte9WRg+RKLpfiq9PQUI54K2wTC+Pg4oa/9/frrerjggnFgNpditbQ5HFuHp556R5uQFlKTFSBOAPnhnJ3cQlbytEQgahAIZUElAQgl2m55oSVADge4YRLKw3oyUBy2CYRDhpwA7dqJWYd/8+ZtcMUVE2H//gPCIFy7dhNs22YVJs9dEL0R0L9/X/fggI8Zg34AhXEBJ5QJJAKtHAGlldc/7NVHEiCHA8LeCgCuZCA5mZkAlPMA2FsAoNswwbBhg1C8dlddXQNjxkyF3bvFL4nwyy/rtRfQh4ShQ/v7OOv3qZScHDjC79gyokQgYhEIbcGU0GYnc/OAAA0H3AbAngTdfnycqhbORvEMvXQtIECLQtGrpBZL0ZVIBlTQgQwwxmDAgGNaKIl/p+fMmQ9//LHJv8gBxrJY9F0u4/jjewdYIs/RGbMf7/mMDJUISAS8ISAJgDdkQhsuSUBo8fY7N09kAMfHaZlqv2V4injYYYeC0djW06mAwrZvt8Czzy4IKE0gkWmyXiDxA42bk5MF9CZEoOnc4zPGeriHyWOJQLQhEOrySgIQasS95ydJgHdsIuKMkwygsvlLa4FOOulIrSIc6Z977l2gFf4cBzr8M5na6SC1qch+/Xo2DQjuqFNwyWQqiUDrRUASgMhqeyIBcrGgyGoTT6Xp4ikwkLAePToHEt1jXFrYZ/HiLz2eExGoKAqceKL2SXotlaVrV+1fP2QMJAEA+YtuBEJfekkAQo95izlarXKxoBZBCm8Ezdq7a9eOmmtA7/rv21euWY43AYWFx4LJlO3ttLDwQw/N1SyLc9BMyjQXQgqQCEQZApIARGiDIQmYBPpODKQVA+XEQAjs163bGYmYgtYPwE3wrlu3Q4JP3JByxQrNUxEaJDXf0BoFkyePBYPB0Pyk4JDOnfNESGzT0DYiZEkZEoGQIxCODCUBCAfq/uUphwP8wymkscrLyzMwQ4Zek8vJ0T4B8LffNE9F8FqHBx+8GXr37qrLNwrcM83OznIPCuq4qmpvalAJZSKJQCtFQBKACG94tATIxYIiqI0Yi0/RWpykpEQhy//S4j9ay+KePj4+Hh599A4YOfI8xynGNHMdhxxf/2g1wPh47ev4cJ6ouW18lVOekwjoh0B4JEsCEB7cA8pVkoCA4NI1Mue1mnuZaWna9VRtbR2UlYlb9Y8U8Fln5cM337wCV111TiOGjOlPACiz1NRk2mjynDPNbaOpADKxRCDKEJAEIEoaDEnAJJBzAiDcP5uN0RwATcVISkrQlJ4Si3j1Ly7OADNnjof58x+GtWs/hFdffQBofQKS7/SMhYYAJCdrhhVqa7l2FuGsuNxKBEKIQLiykgQgXMgHnq+cExA4ZsJTxMVBlVahlZXVWkUA9ZiTk5M0yaF5CGTqP/XU/tCmTZpHWZxzj+GiAysqNMMKnNdViC6XlCcRiGUEJAGIstZFS8BEztks/YrN6e2A51F+aLp+mFE0OcZsmu3u5eVi9FT37tpefe/Zs3OL0IeKABw4oJ0AAHD93olsESkZQSIQLALhSycJQPiwDzpnJAFyOCBo9LQmjNesvenjPTSGr7UkZ5wxQJOI009vOX0oCEBdXR2Q11QZTGyzJWsmZyhGOolAq0FAEoDobGoaDpAfEApD22VmWunrgHatWVssu7SKgJEjz4XMTHorMXBRtMDP8OFDW0xos9lajKM1gqAPDtXt2ZMlLQBaG0OmDzkC4cxQEoBwoq8tbyIBctlgbRgGnHrdunU1mMiMXpPbuHGrpvSUuE2bdLjvvrG0G5BnjMHMmbeBP3MI7HbNXKfFsm3ZsqPFOH5E2A6wSH+24kdBZBSJQLQgIAlAtLSUl3LicICcE+AFG/2C+T9aZW/a9J9WEY70l19+Fowff5Vj359/jDGYOvUGOP30k/2JDqGwAGzZstOvsviOxLf4Pi/PSgQiEYHwlkkSgPDiLyR3JAFyToAQJP0VwjQTgHXrNvmbWYvxJk4cBU8/fQ+0bdvGZ9zc3Gx47bUH4frrL/YZz3mSev+hIAAbN2onQ4wx7SYVZ8XlViLQShCQBCA2GpqGA+ScAJ3bsmPHAVkmU+FIzOYo9Jrcd9/9pim9e2Iaz//hh7eBlvAdOPAYx0d84uPjgZT+4MHHwyOP3A7fffcmBDJxsLa21j0bXY5XrVqvWS7ncDS1DbWRZmFSgEQgRAiEOxtJAMLdAuLyJxIg5wSIw9MhKTOzMNNozL9aVQs+rq42mDnnr+OJI9Brcv/8sx22bbNokuGeOD09FcaMuQgWLXoCfvttMfz331fw66+L4e23H4Grrx7m15i/q0wRM/Nd5XnaN5tLReFwBLUNtlGJquavRD/OZBqY4ylPGSYRkAjUIyAJQD0OMfNfDgdob0rqRVJvUlULPk1M5BY0L89FqWej176EHwpxupUrf3HuRuS2ulr7gkUtVex//1vTUpRAzxsA2Mno53CubKM2NJnyRxCRA/mTCEQUAuEvjCQA4W8D0SWQloAgECUF4aGnfyaKEqr0UV6j++ijbxr3I3GnpoZeeNC3ZF988b2eGVDbnck5ewOJXKkqLQN6Yi1lRyECShSWWRbZDwTQEiDfDmgBJ1eljwpCt56+t2IUF6+CnTtLvJ0OaziN/9MkQD0LUVKyB37+eZ2eWbjKdrUM7JRkwBUauR8OBCIhT0kAIqEVdCoDkgD5doAbtqT0ySSMCuCTcCh91+KQgv3gg6WuQRGzX1lZqXtZPv10Bdhs+q8z4KEirmSAhgk+JusPXRse4sogiUDMIiAJQMw2raNicjgAYaAHOz3gVbXgY1L6ZBIGYGcBAJmIcRM+9/LL7wH1tsNXAs85V1WJWJvfs2wKrauzwcKFX9NuuD1dA2fTPA+8NuQwQbhbo9XkHxkVlQQgMtpB11KgJaDVDQe4K316wCPIwifyoUxNjoYAFi36UpMM0Ylp7L+urk602CbyPvxwGdAbAE0Cw39ggIMTCBuHCfLyCrNB/iQCMYiAJAAx2KieqoQkIOaHA6JF6bu3z9NPvw112CN2Dw/XcUWF5u8d+Sw61XXevE99xomAk41kwGbjDcMEBVdlZZ3ie7WlCCi4LELkIxApJYxGAqBkZ5+cZzQW9Dca8y8wGguuMhrzr0Pz7q04tjuBtqqaf63JVDDcaCw4Fff75OQUpkUK4GEsBw0HxNxiQdGq9F2vA1oT4OWXF7sGhW2f5iXoPf7/1lv/J+rd/1DhlIgZ4TABzEtIqLWoasESfLZIMoCgxKozGoeoRuOgk1U1f5jRsQ5I/jiTKX+Cq1fVwvF4/nKTqWCQyTSoNz2Log2PiCYAtJCHyZR/ptFYcJ+KNx36zegrDYa47YzBd4yx9xiDeYyxFxH4J3FsdyZtAdirnMNCxgBtq2y1ovAyTEcsUmX1AAAQAElEQVQ37vfYaK+oav4oajAAiOj6Y/lEu5ggAXSjGR03pWNM38wY0+U9fdHg+5L3+ONzYefOUl9RQnKOev8cbx69MqOvIL788gd6iQ+FXCID5zB87kgyEAq49c6jX7zJVHCcqhbcgrrhTaOxYBXu72esDp8r9pUA7CPmeL6wOZyzma4egM/G829xDt9wbl+bmMj3YNrt6L9CWXNMpsKRRuOALtDsFzkBEaUAe/XqlaCqg4ZggzyODfEn54qVc/YpYzANITsHfWf0NGkHNwE7I6Y4ERttFAB7hRoMG4oajGYAX5edPTAXWscvKklAFppejZ6VPj2Qo77lyssr4N57nwprPTjnUF5ermsZHnlkLlRU6DvBUNcKNBVO154bGSi8kq7VptHkUSQhoKr5nVW14Fb0X6pq2n687H/E8uHNx69AXXMM7qejD9blYcJTUM+Mw/vpdcYMmzCfrajT5uHz64q2bU/IwPMR4yKBAChGY/5QBOmdXbtySgDsX2OD3I4N0T0EKFFjoGmPvWgwKMTcfjAaC25vBZN+ooIE0IPU2KD0E9D0yhxMHGgiHz14Q3B5hDaLTz9dDnPnLgltpi65kfKnIQCXIKG7ixZ9BcuW/SxUZgQJo2sSyQCfT9cqPs8+MhoLr4y0B34E4RXSouAwsAmV8F3YLqsB2GYAeBL9qeiT0OvtDkGddhU+v96Mj0+yYBnw2ii4Ki+vX4reGbckP2wEoF27we2N9ab9TQjMF1jQS9GTQsZNWBzDXI9nDB5vmPTzDl4wgzCMwnETcy4iSUC90i+4Cm+SJfQgZTGu9N2vqvvuewbWrt3oHqz7MSn+AwcO6JbPn3/+A489Nl83+REmmMjAMMb4/IMPfEkGwtBGDBX/6fgs+QiHgf9DJfwIlqEP+nA6Ihx4bcC8urq0bahjHscydgtXgUJOAGhMBBvkpbg422bGgEz7ncJVeR/50g18KV4w32BZfzEa8y/AuLFIBCKCBDRX+jAP8aYhH2oH3G09rrq6BkaNug+s1t0hrfS+ffuASIAemZaW7oU775wDtbX6vlqoR9kFyGx44LuSgfyIMwULqGcEiRhuUNX8S1S14BdU/J9hwYahj0MfAe5gEVD/ZaGOuR3L+BeWdUlu7kAafjgYIQR7ISMARuPgrmgSe4Mxw19YrzHogx3Lx6QhdUcxxt7DBvrdZCq8CHOONSIQFhIglT5eSV7cv//ugMsvvxvKyvTrkbtmTe/96zXzv7y8Em6+eSbs2IGje66Zts79BjLAGkzB+R9i50KSAYHXAuJ5gclkXQfAFgDAURAdP9LD59jtys+oZz4wGgf2DVWxKWNd8+rQoX8ymjkeYMy2Fk1iIzCziGNiWCZ/XB/O+SKjsaBYVfPDbUbyp7yBxAkRCSh4EvFzMe/HTE+/lDEg+7YtENB9xaVhgBEjJoPeE+bwmoa9e/eCHr/Kymq47bbH4O+/t4oUb2vAulSk0DDIQjLAzmVMkgER2OfmDuqHz5ZixPM97FUfLkKmHjJakEmdy/MYU341mfKfR93ZtoX4mk/rSgCwx39ebW3COmyQKVhSvODxf5Q7xmAgAPsFScDsGJvgEwISALcgfrFi3icF9DJe20MtFpZrNhdfDQCvoRfmvvvuNxg+/HbYs2e/MJnugsj0X6fDqn9795bB2LEPwapV692z1HjMXiGsCXPCHoW9jJ7aAjdR6/DZ6EoGCj7A58vl2dkna5mNHrVgBFJwVR2ailg9jcNXP+KzJT+QtBEcV+GcXY+680+0Oo/EchIxwI14pwsBIMWoqgXzscdPL/xG4hi/ViTRisHGx8cnrcnJKUBCoFVcxKQPBQmImMoGURBSNI1K32Ipvs5qLf4KoKhhcLv2XpS5D70wt2rVOhg27BZdFs4hsz+99y+ssA2Ctm+3wjXX3A9r125qCBGz4Rz2GAxAGKPAojrCntog9sgAnAfA3jIY4qz4HJVkADz/cnPzUeFX/w7AbgYAXXQZyhXoAhaVgxa6102mgv8zGoeoAaf2I4Fw0NAM0x8V42+Y95XoY911VBRYhg00DaAQSUFMVFeSgKbN2ILSPxjZYvnOikd4LeB/gW7Dhn/h1FPHwNdf/0+YVPoA0d69e4XJcwoqLl4FV1xxL/z7705nkMjt5B07iqg93GRKMuAGSIwfOib5PWy3s2VY0a7oY9oh8T2dsbrVJtOgs0RXVBEpEBXh3WiGWY4yacEe3LQKZ8AGuk9V7UU5OYWmGKlxaycBpGRewXZ1mPepl0m9zYM9fe+tbLEYn8Kz36EX6mgY4KqrJsEDD7wANTW1mmTbbDbYvXs3YO9CkxzXxDTD/4kn3oTbb38C9u8vdz0lav8bbIMXWhbmTgb4aZjmFfS70Eezw2ECcLUMvI/Wgcta2zABrQ6rqlZa4XUiRFmvH8urxRk5t3+Mw+ozUYgwvS1EUP0KfgW0/O4sLFys9ISxKoE4drKi8P+psTNBsLWRAFIQqPT5aWRSRqU/BhWOi3nf32thEepX2zUYuxK9UMeRkTz33AIYNOhaWL58VVCycawUdu3aBVjIoNJ7SvTdd6th+PC74c03/08oqXDJq4wxNgqPOfoAHJGB5V9SW2KbmhC/WCID5yMQbxsMcbTEeasgAzTRj3OFLvzBWPfW6PA24BNQx7yPnc00EQBoJgAdOvRvu2tXzudYmGvRt3Z3KABbiZaQMyA2fg4SwBj3o+cVlRV2VfomUhRW63LsXRQ1jOkHV6fS0pV/Y8oJ6HVxmzb9BxdffAdcd900oOEBfzNxKn9Rk/42b94Gd989x/Ga39atZn+LEUy8Gs7tGifExSwZSEZAm5EBUQoCZUeEoyXi8folk/8hEVGggAshMgE7Fzub37ZvX9hBq1RNBEBVTzLW1iYUYyEGoZeuHoEM7Kh9jCzt8vrD6PxPDxBVLbgM/XucM3p9Mzor0rzUuih992yQTDwNwN4FHX9LliyDgoJrYMyY+2HNmg0+c6IeP/X8aezfZ0Q/TtKqfqT4L754Inz99Y9+pNAcpR0AW6oKs655IgPsVQCgawM3UesayQAqCCt2RN5T1cJL6V6O2hphwbEewwHsn+KuRhKIEmLH9a2r48UmU2EnLVUKmgCQ8geIX4qZH4FeuqYIGADYPBUVKETRjx4U9MDAcr9PDxAs+tvoqXdBDxbcjVqHD3aGQ1TK6WQKRuWM5n3tPf2W0LDbYTTGEf0eHIo86LBXBB9/XOSYJHjaaWPhlVfeQxN/08l91OMvLS0FLcp/16598Pbbn8EVV0yGyy+f7FD8lPfBkui+lwNCSQA0/JxkoGg0XRtoYj4dIDbIAOdwAQB/h+5lVKLv0b1N9zhE0Q/HvK/EeryDRY7qVUGx/Hq4LpzzYmzTbsEKV4JJ2KD8v8G0UvkjCF4ckgCYTzedl/MREYwXTxqVkR4Q9KCgBwYWLAaVftFoq3XZF/5M5MP6C3ElJUXl2PM+D4UhAcH/Orvff/8L7r33aTjyyAth2LCbYdasV6Go6Ef477/tgOUIKPfKymr46ac/4NlnF8LIkVPhjDNudqzlv379PwHJERxZJxLgLCWRgWVfWCxEBspzJRlw4hKeLSr/83D48XXMnZ6luJHOAwId8bldlJs7GIefPZxtIShgAkALL3Ae938otzf6sLnEpAQ4pGsH6Hl0Dzjm5KPgxCHHw8mnnQT9Bh4Dvfv1hG69u0Jmu8ywla8hY7xw+XxUstiraAiJgA2WB5V+/iWuSh9ZNvYWIDkCiqelCKhoWUNPvzyXHuShVvruhaf5AIgtfddA+KRA97ycx3V1Nvjxx7Uwe/Z8uPTSu6F//xFw5pm3wg03zIAZM16Fp55aAG+8sQQWLvwS3n33S3j99SWOMDpHcc444xY4+eRrYOzY6fDqqx/C6tUbgGQ65Yd5qzMJcNZuVS1dO3QNWSxNyMBuZ4wo3Sbj9XgBEX1UHDhMkL9YdaybPzQ1kupjNBacisqflvMN66Ty7HgF+qTGwXHp8VDQJgHOaJsIp6IfmJkA/TCsW7IBklrUoroj295ut31G8/ECzSnQomP86vmMsX6BZqQlflxcPCr6nnDR6Avh9ofHwcz5D8FTH8yGe5+ZBONn3AJj7x0D19w5Aq4efwVcd88ouPWhm+Gux26HWW9OhznvPQb3PDUBrrjlUjg2vx+kZ4Z8GCkOb7R3TaZBvbVgoDUtETe60U2m/MVYHisAW1D/IIh6pY8PZE9Kf1UtRMjPai3+HkC5DIujaXIhpg/amc2l8MMPa2Hx4qUO5U8kYObMN9BK8AY8/XQ9IaBzFMdi2RV0PiFKGCIS4KxNEzJgstsZTfKlVR/x2nPGicotkgF2IeCzAKC6hJ4N9IygZwWE8UfPSsbgPSxCIvqQuXbxCpzRLhkmdEyH5w/PgI+PyIJ3e2XCnG4ZMLNLOtzXKQ3uPCQVJqK//9A0eATDXjy8DXzapy2806uN4/hqU7KDMMRhBUJW8PqMetbVJXyEJCCgThwq9PrU/vxHk8wMjEfmYdzo6+Li4lBhHwt3PnonzFs+Fx569SG47MbL4cRTToZ2Kt7/fmafnJIMhx7WEfLPHAhjJl0Lj779MEx+ZgKccv5gaJOV4acUzdEyOLd/TO+wapYUgAC6kfGmvhj9YrzBG5Q+3fCxoPThNXoQY+/MRL006q0BRI7Sd28mi2XZR/hMuBzDI4aYYFmi2eFDQOTEQH+hWFWLQzufWyzFo+jao2sQU0oygCCIcB07DsjCZ+WHKCskPbWcBAOMzE2DxUcYYfkxufBYt7ZwdW4GHJuRAikGhsXwzxnjDUAWgRFqsoMwfITkYQqShBMz4iEAMf5l5iUWdugG1NYmvuzltMdgvwkAMUM0yUzwKEVgYAYq5ctvuhxe/uJlmDRnEvQf0h8Skw4SQYPBAJlt24IBrQLBZMsYg45dO8Lw6y6Eh+dPhxunjoWuvboEIyrQNJ3tdgVZ7XBDoAkDie9U+mhCW0RKn3P2Lnpk+ZASiJwIjEu9LRelXzyKHsSRrPTdMTSbixdxDpdgeA166bQjECYS4Cx4qyADVnqWYCfiYnq2OGuuz3a4oaZGeQdlBz2pDdP65fqlJ8Bz3dvB0qNMcFfHNtAzNb5JuhTSM/EJ4D8FaJLcMSxQiMME0zunw0K0IlyLloE2IWEC/ArsqF/ftDTej/wiACYTvWrAXvAuRvuZzHZt4No7r4EXPn0BLhx1IRAR8CZVURQkAVkQF9+00bzF9xZuMChw5Il94e7H74A7Zo2Hw/roe90h9xhoNFrv8VaeYMPz8vqlmEwFw1W1YKFT6WNeF6G8FPSx4IratSvBMf3oU/ru4ONwwAecK8MwXL8v/KDwVuRyQJe3AyDAn0cyQBPYiLgGKCuioqfQs4RjR4KeLXqSAVUtmYT50GJNugFwQkYizOuVjT4HCjKTwJdOTiISkBA8CaivBEBmnAJXoGXg7V5ZcENeCtCx85weW+yoz6FFk/yRrbQcqTAO8khJ3QAAEABJREFUTTJvYrxM9MKdgkr4jEvOgKfefxrOuvzsJr198PFjTIGMTCQBOFTgI5rfpw7vexjc+chtMHritaDn5EG8me5T1UEn+F0wLxFdlb7NllbCOSzEqMPRp6CPNVe4a5fxEaxUsIQck0aOqx+u4AOwRFvRS6cdgQghAc6KNJKBa2mYAO/5M/FMjJKBguH0LML6aXK5uQOPAeD3aRLiI7GaYIDHD2sLr/XMhn7pBy3KPpI4TiUqBmgjgASQMJoseFFOEszt0QaGZSeCghcGhevgE+12+wJ/2qVFAmA0cuyxspN1KCR06HIIPDJ/FoyeMBpS01MDzkJBS0BGVlswGMRZ1Y8r6Af3v3SvY85AwAXyL0EcgP1NmonvX/SDsahBTabCi7Cn/y4qfWuMK/2DFXfs8XGqWjgbd2OCBFgsy9fYbPYTAfi3WCfptCMQYSTAWaFVtTj085nFUtyEDOC9u8cZI0q3DZYBWIjPohJ8Ji0kKyQ9owKtT6dOhUl2uzIPAOLRC3eXqqnwcV8jnN42OSjZSYoBMoK0NnvKMA3NDuPap8Kzh6XDIYkGT1FEhHWz29MfaEmQ4itCTk7+YUhSkAD4ihXcucKzBzmUf+ceXYIT0JDKQQIyM4ExcXqBJg7SWwM0aZD2G7ISuelmMNin+iOQbqimSp/j2D5cjGkDZ0yYKLpdbJGA0tIVOy0WpZBzNgvbJcB17jGFdO4IRCgJcBbzIBnIzi4x4SPLYRngHKKeDGANh2M9giIDlZWcev7C35JKj2MwG3v9UzplQqrBp6rD4vt2yYY4lBHnO1KAZw9PjnO8bXBKVkKAKf2LzjkfbzINPN5XbJ+oMMaexMT+20swckvOEGeA6++9AW554GZITBYjmiYEpme0aSnrgM/Ta4OTnrob1A5qwGlbSsA5uzUvb1B3T/HoVQ6jcdCF2ONdgOwae/qtWem7I0QkoGAOhjL0MeBo8ZmiiXY7I2WwPQYq1FIVNmCEyzmHbbjVw+VARMwJAJ+/devW1TgtA/VkgJ+FmLyBPtbIwLvUgaGOjCdAjMYB1AO83dM5LWGdk+JgUW8VhgbZ6/eUdzpaAWhIwNM5z2EthyYrDCZ1TIPxaBHA3ZYTBBbDwLnyCoD3iedeCYDRWHA+Y3BGYPn5jh0XHwe3zbgdTr3gFN8RgzibkJQEyaniO8VqeyNMfOIO6NKzcxCl8pkkAU3ATztjdEIzGJrRzkEz2rza2gQLY/bFAJxmjIuvFET971YkR89jLWKEBADQGw01NfHUC3oK62VHH2uO6vQSQOLRaA5/R1HYQKzgFvR6OAcJMBoH9tVDuGiZ9WRg+f9ZrcXXWK3GHCSDhA1dByWi8wqxPJqPdDH2RBdhR6YUn28fG435V7sOfzJmeBzLJKYniILI9U6Nh/m9c+CQJAMdCvVtkAQYUDEKFYrCzslOhAc6pUOCeNl9VLXkGszCo/NCAArjsByPekwRZGByajLc/8L90P8UHPYMUkZLyVLT0oGsAS3FC/R8SnoqjJ9+C3Q/8vBAk7YU/1RU+NPwxngHzWB0sy/BHsBVmCgdfTS7vZyzuZzDG6Dbj49F3GLIEgCwZ8/X+1A5jmNMGYyw/YY+Vtz3+Dw5Ees21mL58gBVymwu2oKK7lS8RnSzBCCOX6vCPiBEpQ6FX2RDMrgSsRrXrl1JB8ZixjJAA/BnM8bmKgo3q2rBu+hpePk8kaiekJEIb/TMgaw4L6pNY2YKY9AmPsEvKYFG6p8RD7O6pEOKQXS/hk/zZoHxiJLJxEkJdQ20At7iU8//7scnQM+je3qLIiw8o00GMPwTJrBBEA1X3HjfWKBFhRqChGzwAXgfCroUfRr6aHZ78d6YB8DOwQeXarUWjbRai6/FYxpGAp1+aAmIpeGAepTM5mXFqAD64cN/JF4feinI+sz0/b+RMTYc63Ky2Vz8k3tWqOg2cs4Gcd66hwPccXEeu1oG6ocJlLM5Ems83/RrTxgQZY6smjSPabrIch+RmgDPHN5OBwXatJQJiiJ8PoAzh75pcUCrDFIP3BkmYJtns6Xe5kmOBwJAr/0BMTNP8QMOUxCscQ/dCn2P7xNw2mASkAUgKYXIZjCpfadJSkmCWx64EWhYwHfMVnO2Uemnp6eY8CE/wmIp+oQeXA0IcDzGC49JEtAASAAbu9m8fG5KCqOJuDdhurB+hQfz99txDn+h2XcsEsHeZnMRDmWB1wmOkgT4ByvdU0gMP7UisUZcVcZihgz4B0ALsTrhmP8LPfRX/s5ipOFwNlkDnMfNt8GH0IqCEzumCn5NkN3maSGnZgTAZLJfgUXvhl6IG37dcDjpVF3eIvRavpTUdFAU8eM/lGF6ZjrcdP8NwiYwkswo8x6V/saNn1V7qYckAV6A8Sd4y5aiKrO5+DmLhR2OSvVKiODXBlHxLwdQzrNai3tZrctfIqXlTx0lCfAHpYNxCFdJBg7ikWpQHKv66WX2P5jTwT0GDDKCXI32oBTve4MyE+AqNcl7hMDPtGOsaqR7smYEgHM23j1SsMd9T+gLF42+KNjkQadjCoOUtNSg07eUUO1ghCtuJqt9SzFj5vw+xsBh3nft6ftQ+u4VlyTAHZGAj+ltgeVvWSzLBzBmp8mCtCbCjoDFiE/wL5KShwwGpQcq/gL65gFmQRP+cOO/kyTAf6xcY3oiA/X3KkT7MAH4+5vWORMORQuAv/FFxaOVAuPRwu1JnoiwK43JcHSauKURULejNbbpGwFNCEBubuGxWPCj0Gt2bdq2gXEPjQdFR4B8FTIpKVnoAkHueZ0w+Hg4eWh/9+BYOialPx8rNAyVvoq9UId5PwClj0mbuFCRABpuYE1yjrEDs3nFOoul+Hb0h3AOJ6GnVRLXYTW9mtrxnChnR0vEKhQ2w25nA7EMXZCUTNmxY9lfGKbJSRKgCT5wkgG6V2mYAICdE+tk4CJjiuMLfhCmX5qglWg9FR/7sXAPDgW0iWuipj1F9Tesq6qWnu0auYlkux1Gu57Usn/1+Kshs10bLSK0pcUrPyU1TZuMFlJfNOYCSMchgRaiRdNpd6V/NT7gP9ag9N3rHgoScIuqFsQ8CWgA1o697u/RT8B26o2WARWV84UAjOq/DABEfNeXZHzFOZvFGFwMUJtrtS4/FvObjAp7JeYRcG8f03h1KFNODPSKjv8niAxYLEWfEBlIT08xQQySgex4Be44JIw6BgBoXQCaFIi7Lk7cblus49i8FGEC8RlxtauwRgJQP0GAX+Z6Mtj9Xsf0goKzCoJNHlC63SW7Yd0v62DVilXw8/KfYdO6TVBXW+eQkZCchBYIg2Nfj38paSlw4ajz9BAdSpl6K333ukgS4I6IoGO0DJSgcn4fH/zjLZbiweiz7XaWy7mCwwa0pgTH4T0+k3N4DrN8Cf1CAPYuAND+UxyVPO7fjvEvwgfFCZSWZKAfarUWTURlsshi+c6KcXR1kgSIhZcIvMUzGdgnNqfQSruzYyaOwzeqMN0yr+UcNlfWwff7quGr3ZXww/5q+K/K1phfiiGucV+PnaFZCdAnVUweWJWzOnYckOUsZyN6nNeejoEZ6DU5MvmPnjgaGNPHCltbUwsrv/gWHrvrMbhmyDUw5rQxMGX0FJgxbgY8PP5huPvKu2Hk4JHw1JQnYee/OyFJpzcCnCCdOOQE6NKjs/MwWrahVvruuEgS4I6ITseoTM1W67JvzeblC9FU/yT6SVZr8U0WS/FY9JdYLEWXWur3x1lRyeP+bIz/ntm84kdKq1OxWhSLeUtLQIsoBR7BjQyoKGEYPqrn4zaqyMAx6QlwdnYyFlsft73aBi9sL4Or1pXAcT/vhHNWW2D0n6UwfsNuuHZ9KZz+uxnO/N0Cr+8sB4bD3AZ2UN+JLhFJvrl9KtBWgOzEqioFLXn1khoJgKLYh9UHaft//KDj4dBuh2oT4iF1VUUVLHp5EYw5/TqYPekJ+H7p97B/z34PMQEqD1RC8afLYfzw8bD0A7SE6tk4KPvsK87wWI4ICwy30neHQ5IAd0TkcRMEJAloAofwg3oyUPwxWnauxmGCqCIDY/MyRCnEJrj+eaAWxqGSPx2V+9Pb9sMvZTVQa+dN4jgP/q2qg8e27oPzVlvBXOsM1WfbLdkAJ7cRMyGQMXahs5QNBGC4AU0DtBa5Mzzo7QXXXBB0Wm8Jfyr+CW694FZY8PwCKNvrWel7Smurs8EbT7wB//fO555OCwvrfWxvEL1AkKDCVaCcT3BceITBUJ5HNzr28ESO6aN4TY5IwHjOGX0MR5MgH4lpTsALeF4QgUZJ0oUMASIBisJoaVy5bLCOqEcTGeiZGg8nZyYKRaMalfzD/+6Di/+wwtdo5rdzz0rfU6ZbkQiM+Ws3/OsYFvAUQ0zYlWqyKNIz0LkyoIMA5ORYT8IiZqPX5Poc3we69uqqSYZrYrvdDnOfmAuzbp8Fu6y7XE8FtL9k3sfwx89/BJQm0MhDLzol0CR6xSeG9CYAPxdZfVtU+OfguPC8HTtWERnQK09NctH0PAnqJ66BTr/rVDWf1laXJEAngPUUazYXyWWD9QTYTXakk4HReemiFKGj5tuq6+DSP0rgTXM52LgjKOB/ZXUc7ttSDjUBEIdAMzksOQ6OEvNaYJLdnuaYpOcgAIxBIQj4DR42WICUehHUe589aQ4seXMJYA+2PjDI/5R+4Uvvgx1ZXpAiWkx2ZP++QJMCW4yoTwRXpW9EpX8VjvUuoRtZn+yESyVLwG2gKwlgN0sSAFH7I0sA50wuGxziFqRnCD5PXIYJ+LlYBOxgwD7chtxlGBQYkpUsLN+/K2rhClT+tNUqdFu1DT4sqdIqxmf607ISfJ739yTn7DSK6yQAJ9KBFp+UkgTHFx6vRURjWlLYzz3wHHz31beNYVp3zP+ZYePajVrFeE0fHx8P/QYe4/W8DieoR+8w7wMk5uFNGm1K3x0SIgE6DwcQCSh4ATOWlgAEIdockQA5HBC+VqsnA8uX0LMGrYthmTNwZnYyxAu6e7dhz/+6v3ZBaa24N1n/b3eNrg00EIc+6BPC2jPhJ5MMBwHAnePQa3InDD4BiARoEtKQ+OO3PoaiT4oajsRt1v68TpwwD5JOGEzrKHk4IS6osaefnMza4Y3oMO87v7AmLpvwSZLDAeHDPhpylsMBkdFK9WSgfgIhPotMNOSIJSPLAD2jcFcfd2Y7Me/Ek6meJvuV1Bx8nU97iQH+q7bBTsEyXcuVhBr75DZCrAB9APrFK0bjgC6YQQ56Te7IE4QsIAj/bfoP3nrqbU1l8Za41Fzq7ZSQ8C49u0JScpIQWS5CPPb0aY14lzixtBsqS8CLCJqgvgRKki5kCEhLQMig9isjehbRkCN2SK5Cy4ARE+nyaiGt+d83VcxM+Kf+2w804x/LKtyZa8RZFDwVrl96nKfgQMMSc3LSeyuMKUcEmtJT/COOEyIGXpn1CtTV1XrKQnMYrSGgWYgPAQYcn+rau6uPGCCUq0MAABAASURBVH6fQqXP3gJQzkN2HZM9/ZaQCIElYIycE9BSK0TueWkJiMy2aW4ZUM4DoGcZ4DMNNP36pcdDvMI0yaDEmypr4U3LAdoV6p3CqvXV/8K+D2Aw8KMVLHRn9Jpc3qF50M7YVpMMSrxu1TpY+/Na2tXFZ2Vn6iLXVWiPIw93PQx2/2+LpehK+rAKsetghUR5OrIE3AY6Tww0GgufBgDtTxWQv1AjQJYALicGhhp2v/OjZxc9w+hZhon+Rq/JnZCRqCm9M/GLO8q9vtvvjKNl207UJAUvhciJV6BDosHLWf+DOYduSAAUzQRA1Ep4ny741P/SBxHzsD7dgkgVWJIOXToElsBDbGwY8SspecgnCoKIBOg6MZAxfpOqFsjhgCi4GDwVkUiAnBjoCZmIC9OsZ3qmJmiuFE34+2KXZmOEh3LUB6WhFbhTkhATfb1AL/+7JmknACi6IxIArrlh2nfSrvQOlJXDz8WrsEz6uMSkRDj6JP1n6ed2pMmx2urAGGRlZhbqb67QVsyQpcbhgIlc38WCcDhAkoCQNajgjGg4gDE2CMXqtlgQY8rXRuPAvpiHdAEi0KFDfzIPa/5qT2cBivXT0gqoC/Jdf3+qPTgrCRJCYE88hGYD+lMgH3E4h44K57y9jzh+ncrtmOtXPF+R1vy4Vrexf8r37CvOhoysDNrV1We2y4TEJO1MNT4eOoH8NSKAJGAS6DocAGPkcABE7Y9IgN3OTsWH2jadKpFDJEBV8/voJD9mxdpscZqfZTQBMCdBe6/3u/36vKdPjRevMLihfTooTH8GcEhiHGWpyWMxD0ELAEvTJAUT5+Tl4H9t7q/f/9ImwEdqWp3wotEXgaJgdX3EE3GKMQZtje00i1IUO7FmzXJiSAANB+g6J4CGAyQJiN4rhoYDuJwTEHENaLMZND/LchMU0KpWqeP/W5k+E8wJ9DsPyYCOaKUIBQFQEQ/KU6PPoLJqJgApqdrfzdy+RR/iTsp/0pxJkJCYAIwxjXj5lzwpWcRkFUU7qP4VN5piEQmQcwKiqcVCXFYiAYr8dkCIUfedHWMs1XeMls/S2HrLsXzHsNbYoNwmfoo+A4Absed/palelTJgvgsi4GyqIkAIQAoOAYBmRSNiAaA9pXuE1MgpJDEpES4cdSE89OpDkJWd5QhmTAxqDmE+/onAA8XXX024I11TBEIzHFDwDOaq/52MmUgnFgE5HCAWT+3SbJoJQIpB+61IEwC116WphK7J8fB892y4qcPB4WXtJW2ah6ejFIMQXZZEFgDtBEDA4jdVldWe6hlQWK9+vWDohUPhlgduhhc/exEuv+lyR8/fKQSZqHNX160YC4Bdc7voWsnwCidLgM7DAXCj0ShJQHibOfjcyRIghwOCx09wymSt8kQovEoB34IhS8QZ7VJgVG46vNEzGz7oYwRante1fqEgAMlC9D84usSaB0Vqa+tc6x/UvogP6Yx/aByMnTwWCs8eBOlt0puVg3MaBWoWLDygrk47Hpwzze0ivGKRJVCSgMhqj4grjSQBkdEknIPmZ1mNXbvpPk3RrpqPTo+Hx7plwe0dM+C4jETwaJjQnk2LDVcrSJURj9D8UmR1pfaZlWp7U4uV9hWBxvjbtPP95lyoCEDlAe3WDKxrOXrpfCNAJEDnOQFwo1q/TgDdK75LI89GHAJEAuScgPA2i6IomnVMRbDf6XWpel6SQfMM/fYJ7rPvXTJo2OUgSDs3yPO0EWHNQLm1Cv7TvCZiVYV2AnDMgKOxKMG7o/ofCXFxvhsnVASguko7HgBcc7sEj2Z0pbRai0KxTgB9RZDul+gCR5YWaE4Ak+sEhPFKsGsmAAcEfLMnw6DAUWnxmnAozEpqMb2d628COCCAEGFFKumBplnR7Nu9D2VpcycOPhEy2wW/VsTQi05vsQCcazcjtZgJRijfV4b/NTtpAQgAQiQBk5A0zQkgSaBRxxiNBXLZ4EBRi5D4RALscp2AsLSGzcY0PxD31AlgAFj7S4zBz0ekV/xORLM/iml0nnZCoWf2iXmb4QARAM2fyNvx73ZPOAQURjPnr7jlyoDSOCP3G9gPjj7pKOeh161dDGhe5dOJ6spq2LtrP+1q8gZDnHZQNZUg6hLjcMDy2/UkAYzBjSZTwbOIjP4UHzORTiwCNBzA5ToBYkH1Q5qicM3veFtqbCDC7H1mu2Q4Oj3Bj1I3jUI3/N047k+L/TQ90/zIFoIhgP+qhHRmt9NrgJqXz9z+787mKAQRMnjYYDj94jMCStm+U3sY99A4v9LY7WJYpK/MLNutwLnmMaDanTvbab5pfJUzRs8RCbiN67hsMOdwg5wTEL1XD5EAOScgtO1nsSj/YY6aZkbTE/XfSk0isAjgmAMwu1tbyE3wPVzsiOzy74YO6TAoK9klhHabezs+INA1PyE4ZJuATw5ih2YrWQD+0Vq2bZupfbVKqU8/esIox+t7cS2M51Pso08+Gma8MR1S0/0z69gEzM6nfH35HVvNvk77ew4BXaQ/W/G3NFEWLxTDAWgJkOsERNl14SyuHA5wIhGqbRFpbnymactvU6XmlwkcBaAlhRcckQP9/LAEJKCWnNI5E25qf/A9f4cQL/9sodD+mPe/VdrVAxZ1GxIArtkCsPGPjVAn4FVArBcwxhwL+MxeNNvxOl9qehoFN3pDnAH6HN8HJjwxEe59+l5Iy2j+ul9jZJcdjmYZm6BxJBexzXY3/bGpWVgQATZVrjkeBGyNScgScLuewwF489yAJOBZzJGhly7KECBLAJfDASFptYZnGZEATfn9Ul6jKb1r4ux4Beb2yoFH0RpARMD9db6sOAUuVlPh06NUuNTLvAFXec79Ojt37uq2reEc/qzQDCeWj/2DBIBtwD1NrrqqGv5e87cmGe6J8w7Ncyzo8/rS1+CZD5+BB195CGYvnA1vfPMG3P/C/XB84XHuSXwek/InEuAzkoCTgr5pcBgAW62qBetRyTygSjIAQfwkCQgCtNaURJIA/Vqbnln1z66C9YDPMgDAZxr+1+D+t0/I69WNJSDmfma7ZJiHRGDlMbnwfh8jzOuZDZ8faYJiPJ7aKRPyEgL7AFEt194zbyygl531B2xQgyTAy2m/g7Gv/ZuSkFDzG6bQbFtZ+9NaFCPeUY+fvjbY65ie0LFbRwh2waC62hrxhXOTSMsZ0xwAt2Athz2wnacA3kCqJAMQxE+SgCBAa01JJAkQ19oqdlRclX79swt6iMphS1Ud0GRAUfJc5WRgj797Sjz0y0iEQ5IMnhf4cU0Ang9qQvCm2a/lmtU1FZ4nJNT9rmzb9n0lNtQaCtHiv/v6Oy3JdU9bW60/AfhlJXEp3ariSgY2q2rBkzk5hQN0yy12BBMJuA2HA2bqVSW8f2hi4EsoX0EvXZQhQCRATgwMrtFMpkG9TabC+/F5tA6wo4L3AnZYxCl9cPt9vUfEGituQgUd0gTAUAwBrNwnRJf9u3Xryj2OB5aiwA9aMfhv03/wz19btIrRJT2NytSEwALwv6WaYfS3/p0x4q2KwlfgjSfJAILRkrNYltM6AbqRAMx/NLbFi7h13FO4lS6KEKCJgUwuFuRXi5lclD7n9rWc86mYsCd63d2SEs1rCgkpoychIpYr9iTXNWxDpQ3+ETABEGV+jx4cDyu7HRwHFKDFF39SpCW5bmltqPw5VlK3DFDwzq07YetGzRNdUVLAzpUMrEMT3DRVLTwiYCmtIAGSgHsAuJ6LBY02mfLlxMAovZaIBNjlYkEeW4+eKSZTAT5bCtbxECt91wKtPVADmwW8DugqU9R+tV3Iu/k+i/PVHlHzIPjXlJGDACiK/XM80Dx7YdnHRVB5oBJFRZarErI0r+86Lfu42HeE0JztyTnch0puDfZGpWWgOeYhGA5g1yP2cjigOfZRESKHAw42k0tP/w96ptQ/WyAkPf2DpWi+97ZF8+K1zYUGFOI5crVdxMx8z7IptMLG4YvdYggAY8o3JNNBAMzmFSV4oNl+Xb6/DL5870sUFUEOr9rqan3Hjfbu2gvfffG/CKq0oyiuloE/TDhOZ0LTneNMK/8nLQGt/AJoofqt2RJAzwgTPiuQxLr29Hu1AFlIT79nPQCltfr3tgOpVLXdBnq/AbhkVxWUIwkIpFye4qJK/IuucTrnIAC0wxhfQlutfsn8j6AmBBPu/C1nTU0NcJ2XAP76/W+gtlbIzEx/qxVovF4cx+k4mu7wxt6EvrVPIJSWgECvoFYWvzVZAkzYMTDVK/0/6BnB8VmBzR32nj6WwaOrQQ32xk7NnxfwKNufQE9xKnReZI7q/H6pqN4/W+ysQyMBUBTlI2eglu3eXftgyXwhXEJLMRrTVlboay4qNZdC0SfLG/OLgp0uWEbnBMJWbRkIhSUAx06fQ7wZ+ohweXn9Ujp2HJCVl5d/iNE4oEtOTuFRubn5PY3GISpAP22fSouIGoorBPWS7DE6J8DkWelHVE/fV0u+Y6mA7dWaR619ZeH3OVr9T+/x/3csVbBLnNVjgbNyjQRgx46iPzFQyGTA9159D6zbLSguvK4OWVktWgD0LMWC5xdCbU1E9/59Vd/VMtAayQBZAnRdMRDHTsciCXgeGyFkJCAzszDTaMwfajIV3Kiq+bPRf4L7f6lqQbXNlnagutqw22ZjWxkzbFIU/isquXWM1ZlVNa0G4+xH/4+q5v9PVQveMhoL7jMa8y9o376wA9ah1TmyBPAYWTEw2pW+68VXZbfDw/9q/wqtq0z/9pvHqrDpO/a/o9oOC6zChrHXWixFjYv2NBKA+mrxV+q32v7TEMArj7yqTYiA1JUHygVI8S7it+9+hzU//uE9QnSdcSUDa/GhP9VkGhg1PQINUEc9CWjb9oQMJBlnm0yFj2G7/ZyYyEsZY19wDs8CsPHoz8L9wwHAn8+gpWO8TgDsBAC4nDGYxhh7r66O/4eEYAcSiXmqmn8JWRHwfKtw0UwC6B7Ga2Kqqha4mvdj4r5etqcSyIfzIqR3/yt0XmL+me0VQlb+I5wYg3m0dXo3ApD0Lp7Q/i1bFLJqxSr4cnH4JgTasPdfo+Ps/7279sKbT7+DNY1J15sxdj/nyh/44GgNZCDqSICqDk01Gguuwvb5Kj4+aTdaGj7mnN+B7dYPr0gDej1cLudwFQBbgFYEK+ZfjITgblXNpwmnEMu/aCIBLkp/Ld3DeE3cj20TE0of69HETf1nL5TUhG4ooEnmeHAAe/8cOO7p42ji3w9lQhb+oQIeiIuradIzb0IALJYvD3DO5lNMEf61x16DLX+HZ3GgA9j716tZ7HYOr8x6Hcr2RtZEFBFt5kFGayED0UACFFS4g4zGwjcAqs2sns2fgm2ml8JH0V5dHOafzznMAmAbkQTgMEP+mQDQ5JmCxzHjIpkEeFH6vWMGfC8VoXHxuzftAQGT473k4D2Yxv4rkAB4j6HtzIbKOnh+u7jX6hnj87dt+363a6ma3awGg/IoRhBHxKjFAAAQAElEQVRCOWhs/LG7H4OyfaFVlLU11aBn7/+D1z+EDWs2IkytzrmRgYL7aAJZDKEQqSRAQQV7iaoW/I4K9xu8kUcg5k0/k4kBYXT4HGE4zMA+xTJuRJJyd6wOEUQSCWitSt/9Ov9xfzU8tS0U8wGa5lxWWwt4PzYNFHS0DxnNg/+WCzP9Y7HsSNifwm0Thzduk2PYufObfzFkHnohjlbIm37zdKiqEDaJocVyle8XMorhMZ/iT5bj0IZjESWP51tRIJIBmGa3s3X40G+YQBgTcwaIBOj67QA019PEwJfxWml2/2GYq0PFX3AO4rsK0OwOANGwwmNnfCjOqqoybDKZ8id06NA/GcsdU45IgKKwgVgpvcybOQBsqdE4sC+4/YzGAV1UNX8c+pUch+gYDtVhlJjv6WMdfbpXdpTDPLO+c75cC1Btt0EVetcwUfvVdg5T/imD7dVC1zpYuHPn8vXuZfTyAOIzMKKwqe0b/tgAj094HGhWPsrV1R0oLwObTZ8xoZ+KV8E7zy8SXf6dKFCv0QoUHRLXMIHQMWdgDY4NR71lQP9XBPkoVS3w+nZATk7h6XieZpjSO7VHhaQVBWbCGGRxzmbW1iasx+vhKhTt5VmDZ6LQhfIVQbKyIYb34fWwhjHDJgA2B/3JEP2/HSKr8OjW/fDZLv2+FeAsK435l9XqM/O/jnO4f0s5/HFAqPw61IlTneV33Xq8KfHh9w+Wg3oornE17f/y7S8w87ZZUF1ZrUmOr8Q05FBZoc8F8N1X38Prj74Bgr8pUBofX3OEohiw18Tuwrr9iD7aycAR+PCfZq+3DEQzGSBLgM6vCMJ1+FB/AducoXc4NOvmqGrhm4rCP8OAHuij3R2K18M8rOeq3NxBNEEx2uvTWH6yBHD9XxFcRfcSYjgNM44GCxAW07vjHH7BIayJnNu62mx1dH1TB8h7ggDO2FH4xE174MNSfXSAsyj70fRfp8Nnfyux53/vP+XwY5mwvrezyK+Xlq7823nguvVIAChCQkINfdaRlgimQyH+VyQBU8dO1WVOgN1uh7L9ewHwIhBSWBchn737Bcyb/RZaFoSaZLCofDJNyqBhF6u16DGLpfgExlgXzmOSDKzGXsyUvLxCuuld0I3o3VCSAMVozL+acwXNdPyKiEYluMIdhffo90ZjAT5XCuOCExF5qUJAAqJ+cSaOSh+ATeLc0M1qLe5nNi+fZbWu3Fxa+m0ZkoFJIPBXh92ne5EEvCZ8pcD6QlahdbkSff2RuP/76uxw56Yy+Em88t+PROt+byX1SgBIMaE2Fdo4VIgNazfAxKsmwD9/bqZDMR6vsLJ9e8EuuGGqq2rgjcfnwYdvLCFlLaasDVKwyL9YrcubrbtApkWrZzLQkDJqN30YgwdsNr4ee4PRRAZCRQI2MsbmYuu2Qx+rLp7hNaCq9pXZ2QNoXYKYqGcISEDU4UTPN3BR+hZL0Uyr9RscvoAmPyQDNN9MyAJ0TsHIAeBxHA64d/MeHKcX12mrs3PYh71/Zz6itn9X1sGNG/bDnxVCzf6O4jHGJpeWfut1qMUrAaDUOBTwOm6Ff+XGvM0CE0dMgs8Xfobitbvy8jKoFbzi344tO2DGrbPg+69/0F7A5hJs2DA3YbDPq9ONDHRmDO7GND+hj3YXbWQgFCQg5t+lP3jRshMMBsOvJlPBNQfDontPkgDsLrr19L0pfbeW5jjcNQrDhM8S/6CkAi5ZWwKbKrWb1OlBvae2Gjj+YVmFOCIqH5RWwS0bysBcQzkIEesq5EfUIc+5Brjv+yQAGNluMCgjcXsAvVBXV1sHL898BR686UHYuXVn0LJprf8qgeP+9FGfT976P5gx7hEw/2cOuly+E7KZeHMERKywIbeYzcWPWizFxzPGYpYM4Pj3vXl5g7r7xi8sZ0NBAsJSsTBlmoK9xNdUNf9hzL9xDgTuR61rjSSAMfgV4KB53+Klpw8+fjQ7HeXc5yNK0Kc2Yu/64rWl8OJ27CSSxg1CEnb8YU9NNdB7/0Ek95hkW7UdJmwug2e2V0Ad3ggeI2kLrOZcuQ5F2NF7dYrXMw0nduxY9hc4lhMFXX6/ff8bjB8+Ht557h0I9FVBUvwHysqElYuW9X3g+unw8ZufokVBO2v0UrCfLJYymtDj5XTLwWZzUSMZQN7dBW+emLEMYH0etNnsf6pqwe8RSAYkCWj58gwwBpuIbb2gU6fCJIiBX2sgAfi8QaUP99jt7DCzufiYYJS+e1MrikJvu4i3gWNGVXY7PLVtP5y3xgIr9gY2CZ16/Htqa6AWZaAoza7CxuHVnZUw6q99sEr8eL9L+fgEq3XZ7y4BHndbJACUChv4Fcb4e7SvhydrwOJXFsPYM6+HhS8thANlLb/PWVVxAMrL9msuDkf29dv3q+Fh7PE/M/U5sO4QOu/RvXwHbDbblQCrhLELHKb5B29Ch2UAlSeRgQmY6c/oo931xfpEIhmQJED8lXVxZSX/ht6AEC86tBJpboOi2C9BJSncpB3amjTNDevjpvSLHyay0zRWcEc5OYXdkPQvxdS6Tg7dgtaA6/8qhcv+sELRnipoySBAbxXswaHlWgHv+5fZ7DDPUgmXrd8Lb1sr9er1I4QO9zHqhWaL/jjOuP3ziwBQmoQE+xi8CP6mfb18+f4yePeFd+H6s26AF6a/AOt/XQ+koN3zqzxAyr/MPTig4z2l+xwL+kzDHv/zD7wIW/6m9Y8CEhFoZLze+KhSL69jBCrMU3xsdCIDj1gsxceh8oxpMkAPWk8YhChMkgDxQPdHk+U37dsPibpJkHQtqmr+ZFUt+M1gMJDF9CGEpxv6qHb4vNdN6TuBIeWvKLwIj9ujD4lbXV4LN/29C85bbYE3dpaBtab5ujFkN99dWwM1djsEWyiOCVeX18ET2w7A5ev3wVxzJZSjBQCD9XT/xsXF0dwayr7FfPwmAFu3rtxTV2c7ByU2WUsYj4W7ivIK+Oq9r+DeUffCTefeBHOfmAv0caEDZQegbN8+oMV+As2U3t/fuvE/VPpLYfakp+CeEZPhvVc/0DT/IJAyoKHhflTQ7waSRktczCumyQA9aOmBq+KDlx7AWrAKMq0kAUEC5yPZEXV1df+XnX0yfZHQR7Twn8rJyT9MVQvuQe+q9I8Mf8k0l+A3lDDZbnea98X19FFuE5eDPX+0LC/DwJApf8yr0dH8AFo86JTfzDDmz1IHGVhfgUofe+u7qqugzk40oDG6XzsHUMF/v78WnttRAVdib/+2Tfvh013VQKZ/vwRoi7QPgJ29ffvSXeDnz28CQPKo98oYuxD3a9CHxFm2WWDJm0tgxrgZcM3gkXDfmKmOD/HQOP2Py35CK8Gf8M9fW2DHvzsd5ntS8n/9/jes/mENLP1wGbz9zDswe+JTcPslE2D6LTNR6b8Pf/72F9jtfhEkUXV822otflCUsEDluJIBzm1d8aabiJaVVYHKicD4+MBlD4WRDEQtCUhJS4HM7EyHp/0IatvjDYa4JZG4hLCL0v9VUdjfiNl09HgN4v/odg1Knx+O1sOj0c8QZd73BotT+TMGHbzFCVU46mz4bl81EBm4aE0J5P9qgds27oc52w/A+6VVQAr9N7QabKi0OZbn3VJlg/UVNscY/tI91Y6e/UP/lsP1f++H8/7YA/f+UwbvlVTpNbPfGyy12MkcbrEUrfUWwVO44inQV5jZXFSEGY3GOIHTI0ykxeE4EZCC/6noZ/jkrf+DVx95A+bc8zTMHP8oTLv+IZgy6n6Hkn9i4pPw7P0vwMIXF0Pxpyvhz9//ArIqaMlbQ9pvkpPZKEwfUsaB+Xl0tACH2bEQx/JjJRnwCFGggRFLApJSkqDP8UfAOVeeBaMnXguTn54IT73/BLz42bMwe9GjMGv+dIenfQp78r3HYfIzExxxKU3vfj0hMSkhUDxExC+srU1YCNAv7IvgkKLCXv4kk6ngFxelf5SISoZZhgelv3xDKMpEmGInZFkkKH9P9aXx+l9R4X9cWg3Pbq9wKPQ7NpWhgt8HV/+51zGB7+YN++DuzWUwY+sBx9j+sr01sKGyDkLbr2wsPUcsx2In86vGED93AiYAJBczmo8ZhoUEUP5R5JcZDOXnbNlSVBWJZW4lZOBXfIDfQ703HdsgYkhAtikHLrj2Apj+2nSYWzQXpr4wDS6+7mI4rqAfdOx2CCQmJ3qFgQhDx64dHXHPvuJMuPWhm5EoPAZ3PXY7nDZ8KGRlZ3lNq8OJs02mtJk6yG1RJCkovGYalD4npTgDOz1Ht5gw8iOETek7oSFsI1n5O8vp3EbBljqWY83m4teDKWtQBIAyogwlCSAkvPoiVP5n79ixSt+Fqb1mH9iJpmTA0A0c7/bCLxD9P+qtTafeGz7U9SQDYSMBikGBAacPgGkvTYPnP3kOrrj5CuhxVA+Ii4sDesE+JS0N0tIzHPuBNqchzgDdendFUnEuPDz3Abht5q0OgoB4Bioq4PiodG8zGgvPCzhhEAmMxsFdVbVwotFYsEpRYkrp/w7A77XZbN0tluIG835oevruzSCVvzsimo9xJJdfj+36crCSgiYAlCGRAM7ZCNwP2ZwAzCsa3P8BJEaN8ncH1Gr9ZpPFQkt3FvfjXJIBd3x8HBMJoE8Jz/ERR9ipuLh4OOX8U+DpD56B22bcBkccewQoiudbOiklBdLaZAIga4cgfwxl9ziyu2OI4P6X7oOTh/YHA5KMIMX5k4xhb/F1Vc3XZZVEV6XPmG0jKsqHGYNj/ClYFMR5s0HpH2WxLJ9O87fCWeboVP7hRKzFvGtQ+4+0Wpe/1GJMHxE8Py18JHA/ZbUW0ZfLTsVwv2ceYtxYdk9bLMZhFsuXB2Khkq2LDBSi5UN7q+ED9w6UsgW9bu7ok46COYtnww1TbgBTB9WvfBKTkiA9IwPIKuBXAh+R1PZGuPq2K2Hq8/dAz6N1/b4TsZaF3bqd4X3swkc53U8ZjQO6mEz5E4zG/J9jUOm7Vvd0RWERsbiSVP6uzSJkfzdj7DRU/vO0StNMAKgAO3cuX263sxM5h7/ouJX6Ouyt3GyxFN8KsKj5i6UxAIorGcD2PgyrdA9j8Ctuo901DBPwDSZTwS+qWjCJHlrBVgpNyXgNQCfQ4Ucz9+989E6495kpkNsxN+AcEpOSIRVJQMAJvSRQkXyMn3ELjJl0LWRkpXuJpTn42P37Kx4IVkq90i+4u17pGzZxzmYyxmLq08QesMlmTFlqNA7s6+FcyILoPsLnYsRO+PMFRISe22gwKCeZzUVFIsonhABQQei1kZoadiLuL0Tf2tx/OG44xGxe/mxrqTi1N5Kdh83m4mNiiQxwDjTZawa2Z1BkoH5NAk6vhwm/FPqe0Bcef+cJ6D+kvybZSckpkJySqkmGe+Jj8/shKZkE3Y/U5yN/jMFtJtPAXu75ejtWcdgAydzdqlrwE2Ok9GEWi32l7w5HWEmAVP7uzaH5eEFtbVW/+uX5Nctyd7vwUgAAEABJREFUCBBGAEja3r1Fe1EpXII3Gq1EVE5hse6R3b6XmGg7kqwgsV5Xb/WTZOAgMgaD4UU8SkEvzOH9BBePvRimPDsFMtu1ESI3JT0dEhKEWNUby9OmbRsYP+NWOOvyM4DK3HhCzE4858rTvkSp9Ur/LhWVPgDbjGRuFgAci741u7CQgBAof1qzfYF+DRtRkisA2BjUrZft3v2D9vXv4eBPKAFwijWbi96w2/kxjMFKZ1gMbncD8FHY67+IVkmMwfoFVSUPZGAyCqLXj3ATvQ6VSaNlwGgsWIVm/ok0icy1RiZT4UV4XIhemKNZ+DdPuwkuGXuJ1wl+wWRG8wDSM9uAYjAEk9xrGhx3hmFXnQ1Xjb8CDAbhj5fBiPulrpkj5p2wp09K/0eoV/qPgFT6CEETF1ISEBrlz4eQQkTr4xlY063oY9UV4X10jMVS9IoeFRR+hzoLWVKyfIPZXJzPOR+BYWb0seLsAOxVg4F1t1iWvwby5xWBBjIww2IpPhoJIdmGY4IMILE9BsnfwzSJzEkGUDEdgdf6o17BCOJEQmICTHh8AhSePSiI1C0nYUyB9Iw2QGSg5diBxaA3BK6fch3EJ4hey4c/RlgbjYV3Yk//R8T8H86BlP5xgZUwImPTKm47dCpZSEhA6JT/8jWEEz5jPrfZ6o7AfbIOCfuaIMoLt7PidX01PjsHizT5u1dKNwLQkBGnmYo1NfE98IE5B8Oq0Uez+x8AO9liKRq9Y0dRKcif3wgQIbRYimOWDOD1TQ8kYRP/qOd/5yN3Qr+B+s5Vi09IgORUsfMBnBdF3xP6wHX3jBJtCWhPWOPQG5GtWFD6f+CDfqqi8F54f/TBHm0BHm9zYih4qysJCLXyd2JTWvptGWJ3K/aUiQh86AyP0m0Ftv+jOKzcw2otno91oIV+cKOPU/QR21Tqnj1f78Pe8m1xcYxesyKmVtk0RsQffY835hl4kfW3WIqQBER8eSO6gM3JAL8XC/w7eukQAcYY3HjfDborf8zK4ZJT00AxxDn2Rf8jEnDluMuBMT3sDKJLGzJ5qPT5/YzZe1ssxUfgg/6BnTuXr6fcsUe7kXM2iHOIKhIQLuVPmDk99ZQRz/PtdsjHsK/RB+nCkqwGie0zNpu9G14Pd4dqWDkkBMAJ5/btRduwgW6121kXvMCJwUfy2gF2fGZ9jibG07DMJ+GN+bmzHnIrDoESHCpCcjgdMT7KZrN1x5ug1ZOB4dcN183s76nlGGOQlp7u6ZSQsJNO7Q9nXna6EFlRLMRN6S+fZjavWOepPvisiSoSEAnK3xXHkpLiFfg8ORX1DM3beRPP1aKPVGfG2+8Bm62uMz4HbyktXbEzlAUNKQFwVqykpMhMLCc9PYXMeTSp5ys8h2Pr+D/8bjs2yIOKYuhiNhefYbUu/zL8RWodJSgtXfk33gStmgzQq37DxwwPeYMnJCYKfyvAtRJnX3EW0CqCrmGtYN9vpe+OBT4jo4IERJryd8URMfwNicBVqFw7cc7uwnM0TIcb3y4EZ2mdGNJ5l7drV3Io6pmppaXf6jX3w2d1wkIAnCXauPGzanzgv4uNNJQULobTAiqkcEM9V2AjY+xxHIcrsFiM1CD37dz5zb9YHunChEBpMzLApmBRVqOPWUeL/Ix7aDwoSnhuy+T0NN2wVRQG104YqediQbqVPUDB6/BZMo0x5Qh8rqF533tPvyW5qMAimgREsvJ3xbYUlavVWvQYtkffBqsAfdyJvnPCXePpvI8mfvgGicgNjNlzsSxD0b+zbt06Ctc5a+/iw/Ok8VAeUrgIyNPoT8NGykagzscb6XE0CRdj9DL0ohw1+p8ofy7ncCMqfZp8c5jZXHQnjsMthxhdxU8UeOGQU+ogA0UP4bVxpMGg9ACITTIwesJoYe/5QxC/+Lh4IEtAEEn9StImKwMuvWG4X3GjLJKr0u+Nz5L7zeZlf4ioQ6SSgGhR/u5tgHiSVWCy1VrcD6DWxDm7ijF4HuP9hL4aAP+LcXs5B9QnbDqAcorBUJ6Fz68hVmvRCzj0Q2sYiMlFo5SIIQCu9cBGKkegPsQb6U60EBQicJkGA+vJuULvWd8OwJ4EgA+RHPwAADR5bDNutyLge3D7H3qaUPMzbmkiyJuMsWk4lj+Cc2VAdTVri/J6ovyRVmvx86j0KS5GlS4aEKif6BN7ZIDW9te6wl+g7VddWQ11dU2HR1N0eiPAWTZ6q6HXMcjhnAHRu9VN6btDgs/DiLIERKvyd8fVYvnOarUWvWk2F9+IOuF4i6U83e5Yv4YNR31xJ+qXZzDNEvTYc+ercLsBPeka8qsxDoUtwzDSMdhZhdsZU842GOoORXlZVmsxWpSL7rVYli2N1K/CRiQBQEDdnX3HjqI/rdZl7yGwsy2WovEWS/H5SA5OxO1R6LuiPxQBJ+XeEfepV38cbk9Ff5XZXHQ/juXPw/Tf7t1btNdduDyOTgS8kIFIGefzG1T6qt+ou0f7HT+YiDv+3QEfzVsCD49/GG4cdiMMP244XH7y5XDJ8ZfCqKGjYPY9s+HXb3+BuPgEiIuLCyYLv9NcesPFYIgTuwCR35lrixgype9ezEghATk5hd0Y43qu7Y+9Y1rkp/49f3cc9D1eVVtSsvxX1BeLUV88jvrlFtQf56LHnvvyY3F7OHrSNeSPxDgUNhjDSMdgZ7V4Nlp+Pt2x49uoWZgoWgiAvu0upUc9Ai5koC8y9y7ox6P/NhoqNmhYQVAf9mmpbna7HX745geYfM1kuOX8W2DenLnw8/KfwbLNAnbbwTm3e0v3wsrPV8JDt0yHKWOmQOWBqpZEazpPHxA6cfDxmmSEMDH19p6y29lAfNALNe8HWgciAYrCBmI6vb40mY3m6qLc3EH9MI9mLraVf7PqtooASQBaRTO3rkoic/8H/ZPoByAJiGgyoBgUOPfq84Q30D9/boZ7RtwDj9z5CPz5+59+y1+3ah1MGX0/WLdb/U4TTMQzLj1d9AJBwRTDW5p/8IRT6VNvbxwq35UYFnaHvdMtOKRJS0PqQgIYgyybzf6VOwloHco/7M0b8gJIAhByyGWGoUQASUAjGTA45pHAfZg/LbmKm/C7k049SXjvf8mbS2Di1ZNgwx80ZBl4HfeU7oFnp70IVRX6WQJycrPhmAH0mnbg5dMpxXpUfg8AsD7Y0++CPmKUPrj9iASgReJUzvVZLAhxyELr0edG40C0pgFI5e/WADF0KAlADDWmrIpvBOrnkRQ/iA/3PvT2Bz5Ap2KKsJKBUy84FYsgxuFDG16a8SLMfWIu1NVpWxbd/J8ZvnyP5tCKKZsnKQNOP9lTcCjD/kRl51T6vczm4qkWS1FYrwd/K48WiRBNDCw4n8XsmH9TtFvjkSQArbHVZZ2B3v6wWosfsFiK+wDwsAwTZJtyoNcxvUDU75WZL8MXi2kZDTESv/moCOpqtREJXyXp3vcwyMrO8hVFj3P/oFCneb9nNCl9LHcTRyRA7zkBSJDeR9+hScbiDsI44U9cJaJZkiQA0dx6suxCEHAdJgilZSD/zIHCFv0hs79I5U/AVh6ohL9XBzeMQOlb8kxR4PhBIfmeD/X0H0Si1xcJXxf0EWvebwkz9/Nmc9EWPYcD3PMTeBxhyl9gzaJIlCQAUdRYsqj6I+BqGeDc1hWVhm5vE9A78SJqRBP+3nrqLRGimsnYiUMBzQIFBvQ5vrdAaU1Euff070OiF3WviDapkZeDEFgCvOQcdLBU/kFDJzahJABi8ZTSYggBq3XlZlQajrcJRJOBpJQk6Na7m2a0aNz/xekvaR7z91aQA2UHvJ0SEt6lRydITEoQIguFuCr9mOrpY918OrIEMMZ0ezvAZ+aBnYxI5R9YFWIntiQAsdOWsiY6IuBKBtAqQCuEacqt59E9QcSCOz8u+zHo2f7+VCA9M92faEHHMcTFQdfeXYNO75LwdTTttyql71J3xy6RgAgfDpDK39FSkfNPEoDIaQtZkqhBgBm1FvXwIw7XKsKRfsn8JY6tXv/ad2qvl+hGuZ27d2rc17CToyFtzCSl4QDO2SCu0yuCGoCKYOWvoVZRnlQSgChvQFn8sCDQRWuueQIUKy3v+9fqv7QWxWv69DbpcHhfMUTFayZ4Qm1vxP+anRAWobkUESCASICi74qBgdZSKv9AEQtRfEkAQgS0zCamEOistTZ5h+ZpFQE/Ff+sWYYvAeeNOBcSEuJ9RRFyznSISYQczW0iohCRIoOGA1hkzAmIeOUfKW0WjnJIAhAO1GWeUYxAIX0pp53WCuQKUHrrfvlDazG8pu/SozOcedlZoCj6f7THmCfEApCak1OY5rVCrfAEkYAwzwmQyj/CrztJACK8gWTxIguBtm0rU7SWSDEokJyarFUM/Lf5P80yPAkgcjLhiQmQkJgAjHmKITYsKSURaE0ArVIVpUZz22gtQ6SlD+NwQJQo/0hrsdCWRxKA0OItc4tyBBQlIVVrFZKTk7SKAM45lOzEZ6xmSU0F9B/SH2bOnwm0SiGdYUz/RwRjDBITEyg7jT5Oc9toLEBEJidLAAvtcABemHyIxbI8JtddiMhGDrJQSpDpZDKJQKtEgDGDZiWTlKK9919TVdPkk77BNkZSShIc0vUQOOOSM2DmvJlw56N3QlpGeqM4VByN+3ruJKcmihAvhwC8oBhCEhBVyt8LXK0mWBKAVtPUsqKxhIAh3gCKomiqUkpaCry18i2Ys2gOjJ4wGg474jBN8sKfWOHhL4MsAVqnQjBwJHEWgYC2J4iIEkgZEoEoQoBzm+al8aoqKjXXmBYRymiboUlOW2O7FtPjw7zFOCIiVB6oFiDGrrltBBQiIkWYTIWdsC2XYeH0fl0yhzHla2PDp4Qxvwh2smiSAMhrQCIQAAJ2e41mJVNZWRVAjt6jHnHsEd5P+nGm7/F9WozFub3FOFojcM6hurpGqxhMX6e5bVBIzLkQKn8ndpIEOJGI8K0kABHeQLJ4kYXA7t3JFVpLZLfZoaJcsxgoPKsg6KLQ2H7+mfktpkfd3GIcrREqD1QBt2snGnZ7gnZQtVYmwtLn5BR2s9v5CiyW3j1/zKKJc5AAVc1vmWU2SRa6A5kTgCQA8iqQCASEQFEdRt+FXpMzb7NoSk+Jjz75GOjVrxftBuxPHHyiX2P+dpstYNmBJhD0NsOBkpKi8kDzjuX41PNXFP4VY9AhTPXMAWBL5XAAROxPEoCIbRpZsAhGgL46p6l4tIyvJgENiW9/+HZoZ2zbcOTfxthehbGTr/Mrss2uPwEwi/nksOY28QuQKIlEyh+HVkIx5t8SIg5LQOSRgJaK3TrOSwLQOtpZ1lIsApu1ituxZbtWEY70WdlZMO3lB6FDZ/86eZ0OPxSmvXg/pGe2PIGQptTbQmABsGy3Ouqi8d8WjeljJnkYzf7eMHSQADkc4A2e8IVLAhA+7GXOUYsA16yx/l4j7iM+tHIfvcM/fMxwSE1L8YgqfdjnqluvhBuuDcMAABAASURBVIfnzgR/l96123C0IwSTAP75U0jnvcRjxVtZICl/xviyMJr9vSHuGA6IFBLgrZCtLVwSgNbW4rK+QSFgNA7ogg+vcehXArCbQeNv3S/roa6uVqOUg8lpaeFLb7gUXvvmNZjy7BS49s5rgAjBqLtHwbSXpsGrX70K540837G878FUvvfqasWVz1tOtro62LROs0GFxF+jqgWb0T+JSnAABbQ2T2b/MI/5twS5JAEtIRTi85IAhBhwmV30IOCq9BkzbAJgc9CfDAJ+1VXVsHEtihQgy1VEXFw8HNX/KDjr8rOBCMGZl54J9LqgIS7wj/rU1aIFwFW4DvubsfdfXSXiFUBH4eiLgLeiElyBRKBVkQFS/hEy5u9oCB//cgDYUjWsbweA/DUgIAlAAxByIxEgBHJz83sajQX3qWrBGtFKn+S7+p9X/Ox6GHH7tbXCFLPXuq3+QbcvGrqSgfUmU8EDaowqHbR4hOtVP6/t2sIJSQJaAChUpyUBCBXSMp+IRQAVQ2f0DvO+3c7W4fjpNCystlV2UEBLbvmnxULW828pn2DO27kdhyj0tQDQu/8/Fv0UTPECTdODc5gCwFarMTZMQD1/tHiE81U/CPIXNhIQZHljMpkkADHZrLJSLSHg2tMHYDgILc68D37+dll3w9pVuvWA/SyF52i11dUAqDU9nxUT+ufvf8Pe0r1ihPkvxd0yME1VC3Une/4Xz/+YIej5l+IlcAH6bf6XKqCYkgQEBJf4yJIAiMdUSoxQBPLyCnugeX8K9gLXhLKn7wuOpR985et02M5VEwHQOfcVn32rcw4tiifLwH3IdNbgNbEOhwmihgyQ8td5tj8qf/sQq7X4A87ZIM4hRkhAi9dEq4ogCUCrau7WV1lVzW8079tsfD2a9x9AFCKmx/fd19/Djn93YJEix3E7h5pqMd8r8FYr644S+PXbX72dDkd4T1RyTjIQ0RMIQ2D2L+GclP+K1dQQJSVFGxWFDcR9vdZakJYABDccThKAcKAu89QVAVelD2Ey74OfP/ouwIdzP/IzdmiiVVdXYqdY37z+b8HnYEeioW8uQUt3HSaIKDJAyp9zrucKf6T8T7Fa65W/E0GzuWgLY2wQHkc1CcDyS+eCgCQALmDI3ehFIC9vUHccy71XVQuw1xKeMf1g0Sv+pDiirABVFfp+U4eW/v1xWUgm/wXbJK7pXMnAH6iA7zeZBvV2jRCqfTL7I2nS88M+ZPZvpvyd9SMSgENnp3I5HOCEJOq3UUIAhhvoplPV/EuMxsI7VbXgSfQfof8R/R/oN6HfgeO7u3G7Hf3fRmP+z7hdiv4tVc1/EMf3rkEZBXl5hdlR32qyAg4E8g4q/d9tNvuf2G19EE9E3dfHaEGgl2e+jEUPv6utqdV99v87zy4EW53+3xjQAc1e2Pueyrl9raoWhJQMkPJn+q7wR8ofx/yb9vzdMaThAB61cwLca9P0WFWHphqNBf2NxvyrjfWvAr+G7fwF+p/Qr0O/FcN3o/8P90nnkKdzS/D4RZOp8H5Vzb/caBzYt1evXglNpUfmUUQSALzY0xDk81FpP47bYlW17qWbDoAtwJvgUQC4Ff0w9Meh74W+C/pcxiALt3noD2OM9cPtYPSXA7B7OYfXUEaRzcZLVLXgb/TzTab8m0xhYvMgf0Eh4EXp9w1KWAQlWv3Davj2y5VhL1HlAX0/qPdT0c/w5+/ilkEOI2AhIwP4POyGzz09l/f1S/k7sY4VEpCXl38IWg1Ho455HfXBGoDqfYzBd4yxuYwBvQp8DdZ5KPpj0fdEfwiGZ6HvgPukc8jTuXPw+DrO+VQA9hZjyu+7duWUo8zVKPtZk6nwIpNpYA5E4C9iCACC1ElV88epasGXisJLEeT3OYfbcZuPuKWhF+kOQ2FXcs6e4fVsHplc/mxVzUfCUBiH56SLIASyswccjjcqmfdde/pRr/TdIX7t0ddgT+ke9+CQHdPSvzU11brlt3fXXnj3xcW6yQ+jYN3IQKQpfyfG0UgCqOwmU8FxqJQfUdWCNTYb2wrAX0YdMxLPHYE+8OUyMZEXF4/hfVD2jZzzRZwrFsz7F8z3npycfNI/eDr8LqwEoFOnwiQE5DJVzf8aQWp4FxtOBYBE9KF0yOTYeHAsUcm3qmrBdFXNp7E/kL/wIFCv9PMnq2rBbwaDAbuMnMz7Maf0XdHdu2sfzLlnTtgWBzpQXuZaHKH7OHYNr8x6Hcr26peH0AIHL6wXPsucwwRrjcb8qdj7IytlwBIjVfk7KxItJKC+p19wDz5L1nMOP6JSvgvrQAofNyFzDPM+GnObrijs73oykD8uK+uUNhgWNhcWApCdfXIe9vgfq6zk9E3UtwHYEABgEBm/XCzGPQBsI14wX2BDnQHyFxIEmit99hBmfCT6VuPW/rwWFr60MOT1ramuhtoa/Zb+XTL/Y9iwZmPI6xXmDHszxu7H3h/NUwqIDES68nfiGskkIDe38Fi0HC7Anv5mAJiOZe6BPiIc54BkgM1JSKjdhjrmuWBJotbKKFoFBJI+L+/kjkZj4TMGQ9wmZMl3YNq26CPVETZDsaH+D4nADybToLMitaDRXC4yh6mqa0+/9Sl99/Zb/Mpi+Oajpe7Buh3jvQjlZWW6yV/5+Xfw+btf6iY/SgT7TQaiRfk7cQ8dCfBvxUZ8VheoasE3aHX6CU38l2A5I3lYNw11zA1IEmli6bu0QimWN2SOlJzumWVmFmZigzxls8VtYIzfhBkmoY8mdzzn9k+wDj8ZjYOEfA0umiovuqz1St9hkvuVzGEAUumDy4/jE+GF6S/Cz8tD87GgivJyHHbQZ93/375fDW89/TZQnVyq2Np33chAwX3OB3+0KX9nQ4aGBPBvsEfv1XRPGOIzegnn9iIs1yD0jS4KdsgCfrHdztagRWBebu7gQ0NRZr0JADOZCkcmJvK/sDK3oI+KVyOwnN7csYzZVxiNhW8YjUNUb5FkeHMEmit9h0nuqOYxoysEdfUvAGwSenr9UNgiKfSa3OMTHtedBNTW1EJlpT7v/ZPyf2Xma4A9MRD4w2FD1odzRuO4P6Jcjj6aHZIBmGa3M3rNbI2i8GLGgGaZ61GngGb7B1qAcJGAtm1PyMBn8jOI4WosM83Ix03UOgPncJXdbvsDicDdAP1oMqFuldGNANSP5xas5Jy/jqU3oo8VxxjjIxir+9NozB8bK5XSox7Um0FGTpNvGnr6saX0OTd0s1qL+1ksRTPRr8ULg5SSMChrqmvgkTsfgW+WfCNMpqsg+uJf+b69aCUVr0PJ7P/iQy8BEQzXPLXvszsJa6u16DGLpfgExLwLY4APSkBzr3bpYZZAvVt6jVmPYuiq/J0FDjUJwGfM6fHxSWvwmUyWZS+mfmfpomqbyjnMUtW0VUZjQX+9Sq4LAUAzzWiDwYA9IzhJr4JHgNxMxtgLqpr/Yfv2Q9pFQHkiogh4Q3ZT1YJJyF5/wd7MBiwUTb6J+p4+Y0AL19+DvYzDrA1K32r9ZhPWr9GZzUWL8WAZemGOLAHPTXsOFjy/AM30dmFy0SYP5Xv3gs0udkEe6u1/OHcJvPnU26J7/lT3byyWogW04/SI+RazufhRi6X4eMZYZ8Zihgw4qyhiGxLl7yxo6EhAwVv4jPkM8+2IPlYdvUqIVuf8qQDDDaIrKZQAdOjQv63JlI8PQU7LmqWKLmxkymPn1tXV/a461hCIzBLqXSoPSn8Gstej9c5Xb/moTBqVPiqZY1DJPEwPN1/52my26/G8UJs6WtFg0cuL4IEbHwBRn88tx3H/GsGz/vfu2gtPTJwDny34AqjMiINIV8uYnYYRvco0m4skGWiOTkiVvzN7uk+47isGwuXO/HxtY+CcgTF2v9Fo/YZeaRRZH2EEgEz+tbUJ/8NGv1BkAaNEVnsA9iVaPsZDK/lJpe+5oUtLV/4NwO/xfFZb6Jqf1sAdl92uecXAyooKqKo4oK0wbql/KvoZHrp5pm6v+nEOs83mFevcsvV66EoGsD1iaZjAa509nAiL8neWIwQkwJlVq9gyBvk2G/s1Nzc/X1SFhRAAk6lgEJr8v8dCRcwKR1iWUDs0z/DZiMVzAIWxNBbViKPROLgrkpyJOCa1Ck1vZN6PiZ4+VvA39JPJvG82F/vV08f4Xp3FsvxpPLkFvXC3d9c+7GXPhmk3TAvqA0LVVZVQUbZfWLnowz6zJz6l9yI/P2dkpNwXbKGxPf7BdnUMEzSQgQkoKzSvWGBGYXJhVf7OOoefBDhLEjPbdvic+hKfwVeJqJGiVYjRmH81svPPUU4kv9OPxQuNQyxuMJnsn2APWfTyxaGpgFsurkqfMdtGfIA+jEz0GLdo0XjYoPT54WjaPxr9DHpYiagIDgc9jnI6odfN0bcDbht+Gzw77TnYuXWnX/lUV1ZC2f79IGLKn2WbBd54Yj4OS8zQe23/vXjNXbxx42dC1ihuIAOPYHsfh3LJMhCrZOBzu51X+XVh6ByJ7iuu73CAzjWIOPGJ+AyeazIV3q+1ZJoIAD7oRjHGaJZ/tL/epxXHJunxYj+NMf5/0UoCWpfSX06WjCbtp+GA4T0xG4CFZCiorq7OsWDQrRfeCrMnPQE0RGC3e54oSJ/4Ld+/D3Ve8Oqfo+z1v/4JLz/8Gkwd+xB8/9X/gCYpgn4/jvfSNaS09ciC5KJlIFbJwJVolf1LVQt+U9X8yTREqweG/soMFwnwt3xRGI/hzTHVaCx4REvZgyYAeFGNAmAvAUDQMjBtzDrGYCCSgE9VdWhUTIY0Ggd0MZnyJxiN+T/Hfk9fqNJ3XsOk/J+AECl/cPnZbXZY+cW3cP/Y++H6s26A+U+9Cet/XQ91dbUOhX+gvAzK0ewfjOq3IcnYsHYjvPfqBzBpxL0w556n4eflq4DIgEsRdNnFe2i21Vr0oS7C3YTGMBk4EoA91EAGflXVgrB9jEaSABD+w3vkLqMGEhCU8kZFMQKk8oeWftg4+QDVn3To0D+5pbjhON9U6Rs2YW9rJqv/jHI4iiMyz99R891rs9m6o6m3wbyvi9J3ljlsyt9ZAOd2l6UUPnzjA7h31L1wdcEI7KlPhXdfeBd+XPYTbN34H1SUVzqjNtvSuX83bHXEXTLvY3hy8tMw/qK74LG7ZsOXi7+GPaVoQWiWSreAT8zm8om6Sfch2JUMcG7rikR+Iva2VvlIEi2n6HVcx8dokAiEhQyElgRES7NoKydjcBe25/RgpARMAFQ1fzAqCnrNL+C0wRTQNY3BoEDHbofA8YOOg2FXnwNjJl0L42fcApPm3AVTX7gXHnz1fpj89ES4Y9Z4uHnajXDpDcOh4Ox86HFUd0hND1tHvLC2NpGGSZhrXcK130qU/lH4EJ9ePyNfd6QjRvm717S6shrW/vwHfPr2Z/DqI2/A9Ftmwm3D74SxZ9zk2E64ajKQdw2bcessR9xP3/kc1v3yJ9BiRO5yQ3C8LD6+5mKAVbUhyMuQwbEfAAAQAElEQVRnFlbrys1m8/JZVuvyYyUZ8AmV3ycjnQRkGBj0S4+HYe2S4Ob2KTCjczo80TUDXji8DczrkQmvdm8Dzx6WAY90SYcph6bCSFMyDMlKhMOSDYBJ/cZBcMR7VLVgTKAylUAS5OUN6o7KfzGm0XV5QpTf6HIPMcG5Vw+DyU9PhrnL5sGDL0+DUXePhLMuOx2Oze8HPY/uAZ26d4K8Q3PBmJfjIAiH9z0M+hzfGwYNK4TLb7oEbnv4Vnh8wUyUMREuGnMB9DqmByhKKPUxv8RkKtA8YaMRlAB3VDW/M+Z/t6oW/MRYzPb0Q6n0nS0QscrfWUBvW+rt05oC5GnfW7wwhP9os9Wdu23b995NFWEoFGXZushAYTeqs14+FCTA37KT0h6QmQh3d2wD7x1hhKJjVFT4bWBchxQ4PzsJTsiIhyPT4hwKvn2iAp2SDNAjJc5BEgox3VVqMtzTMdVBED7sneUgDMNzkiA3weBvEUTFe85ozB8aiDC/CUDHjgOybDb7x2huyAokg2DipqSlwNALh8L016fD0x8+A1ePHwHHnHwMJKclQ1qbNpCSmhawWKbUWw9OvWAIjJt+Czw87yG4aPT5QMQhYGFBJOAcpqACviyIpEElUV2UPgDbjPnPAoBj0Ue7Ww3ApthsDvN+OJQ+NPyiVvk3lD8SN2ux539Gaem3+n2aUFCt3ckAAJuE9xitfgpR/msYJuAbsNPwi6oWTMrJ0YcMOEkA4rUdfcjdYcnxcBcq/aVHmeDF7tkwIjcNeqTGQ6JigLaJiRCHOiPQQqUgmzgBCcP1eSkwv2cbmNMtA85ulwgUHqisIOLHMcYWUUfd37SKvxFragyvYFxd3/NPz8yAy268DF749AUYO3ks9DiyB2CFMNumLiUtDdLSM0BLHz6zXSaceuEpcN/zk+Gm+6+HzmhFaJqL8CMq7iuBNE6gJVBjXOkbDEoPHNM/0mIpeqjUseBOoAgJiy+VvzAoGwV9x5h9MPb8dzeGRMkOkQG8JmdarcX96PsQgGQAAP5EH9UOCQ2t5jmD1vzQiwwQCbDbWSECJZgEoEQv7qi0BHiuezv4oK8RRqLSz/HQUyfF2DY+EeKDIAHObBnu9EmNg9s6pMI7PTNhBFoKaHgBg/V0GdhRX9Ct2xmJ/mRC9WwxHpoVrsOL4YIWIwYZIT4hHi4Zewm8iIr/otEX+TVen5SSAqkZGUHmeDAZEYy+J/SBiXPuglsevAnUDurBk+L3UurqbG8BiPvCU4PSp0kgP0IM9vQNLkp/x45lf0H4f1L5i2+DhcnJbIjZvKJEvOjQSqTvQxgMtW9jrn49gDFeVDh8/utGBogE4H0+BIGoQ6+b65wUBy/3yIa3eudAQWZSix1IGiVum5AACRpIgLMyaWgZuNqUDG/3yoQr1SSIJ3bgPCl+e1RZWcWj/ohtkQDk5ub3RCU52x9hwcQ5+uSjYfaiOXDx2IshMTmweyYpGUlAWnow2XpMc8SxveC+5+5xTDAkUuIxksZAxLKfqqZN0yLGZCrshIzcVek/gvKOQx/tbg2geR8fBo09/QhR+tDwk8q/AQhRG87ZLIul+NItW4oiYtEarfWi77jbbHFFKKcz+ph0nIMbGSicSGuHaKms3W4fhunj0AtxrkKSUIGPPyTD0eM/qU1gOoYBg0yNlgDXsiQjq7jGlAKvdG8Dx6bHu54SvX+zqhae3ZJQpYUIit3O3sA4KeiFOlKwYyZdB/c+fS/QRL9ghSenpkJySmqwyZuli4uPc0wwnPz0BD3nB9D79ic1y9xHgKvS55z/gzdhzCh9rMt9BgPriYqgr8VS9FCEKX1nq0jl70RCzLYSgI+2WosmorhglijAZJHlSPnb7Tb6GmTnyCqZfqXBe/dobMeHae0Qo7FgFSqdgMmAyTSwF8p5QI9SHp4SD4v75MCYvHTsdbOgskCdDVnxCWBgwaX3lGmHRAPM6pIOt7RPxXJ5iqE5DAvLn8vJKUzzJcknAVDVglGY+Hj0Ql1ux1x4eO5MOH34aULkpqalQXxCghBZTiFUxklP3g0nnarLp5gVRWHPAPj+vCMpfaOx8E5shx94DCt9q7X4wR07iiJ5zDQUyv8f57XXCrY/IeE7xmJZ/mqs1LU1Kn/3tkP9eEwQZEDhXKHrIMldXvDH9SkvzEmFBWjuJ9N/fUjw/xWsXBZaAhhaBIKX0jzledmJ8PRhGZCX6FMVN0/oX8ghimJ/0FdUr7m2bz+kHSZ8GL1Q171vd5g572Gxk+6wcdIzM8FgMAgta0JiAoy4/Uq4cNR5wBgTKhsZ79FGo2W0u1A3pb+ZMU5jOcJJmHu+ITheg3Vu7OlHgdJ3QhIC5c/nWCzF9NrVdZjpXvSx6uoYY9MsFnZShBO+gPCXyr85XIyBX2TAZMq/ClOfiF6Yoyf1XR0z4IEumZCo0JEY0XEoq018vBhhLlIOS46DZw9rAz1TxOqv+izYLbm5A7Et6o/c/3slADZb7UMYuR16YY5e5Zv6wlRIyxA3bu8snMIUlJsJqKlB9G/oRafCiNuuRILhFa6gsmSMPdShQ/+29ABx6em7Kn1xV29QJdScaC0q/amKwnuhgusbRUrfWfEQKf/lt2GGdsToZZvNTubQxXgca241Y3CS2Vx0P0CRrpO9Qgkc3bs6m/3DvhiSVjyx3VEB8cZhAlT6OAQ6oEt29snpnDOhncw4BjC9SxaMzBWvYwiHJOxkJhviaFeop7cDHuvaBo5PF04wDDiM/4i3wnrUaLRaHDbMKG+JggnvN+AYmDB7AiQmJQaT3K808QnxkCJwPgC4/PqfeiJce/dIYIpHyFxiBrSbXVubsBYfIP+49PRjSen3QaX/wM6dy9cHhEpkRA6V8r/dtbqlpSt2ImbDAZTzMHwT+mh3/zHGrkFyc7TZXPxTtFfGtfwhUP57FYWdZLfzwzHfyeh/Rx/VjqFlAHXLTMYMmwyGOBr2yxVVIQWFz+rWFs7NET5lrUkRM+LjhM4HcApPUgAe7JwGJ6SLHc4GYEOwg3kKePhhls1DsXHoYotvfia4kMOOOAzumHUnxMWJZ07uJUpOSwWDTvnQyoOX3XiJe5Zaj+kGYFqFhDn9OoamXcbsvfFBH81KvxFGvGGwZ8LGNwYI3yGzv6Pn73ECnMWy7CPE8nDG4GLOIRJefwwUgXKG10R8fE13s7mIJhJ7/kxhoFIjJH5e3skdkbh/g8XpjF4Ptw/vp9N27iz6uaRk+Qa8FmagPwoxxfw4Xpf8Wz0yDbHMPJH5TUCz/+ltk0WK9CiLAYOM+ASP57QGxjEG93dOBVo/QKss1/SMcXyeYcFdA3G/GQFQ1Xy8wOAqPCfE5R2aB/c+MxkCfcUv2MypcdLS9TH/UJkKzhoAp188lHZbu/8DFZPTvN8bH/L3m80r1sUAKNTzn403zAT96uJQ/k16/l7yspvNxYusVmNvxPpq9NFABP7FutyDZL+TGc3927ZF3pK+WD5Njnr+NltcMQrpgl4PRz3/U/B++tFdOGK6xWJZ/iT6AbQaJgC/F+NEvWUA66DJjW2fDlea0jTJCCRxoqIADQcEksbfuAlIAh7onA6HJBr8TeJPvGNNpoLT3SM2IwCY990YSUjvnybR3fnonTg2r59CxrI2c/EJiZCYJHxSaWM+544YBj2O7N543Ip2UOnz+1l9T/8INFVHq3nfW5OR8tf5k76Nyp97K0Tz8EU2xHp+PRFQ6CamhWYqmscLW4gdnxufozI612IxdsWe6sPbty/dFbbS6JgxKX/s+RdhFp3Q6+FI+Z9KPf+WhNNqmEgEpiPeR7VmMtC/TSLcjASA8AqlT4+LB7zudcmS5gRMOTQNiAyIy4CPc5fVhADQO4OcsyvcIwV7POruUXBot0ODTa4pXQotEKRT6ygKg2snjISMrNASG02ABJ/YTekvn4Y9k1jo6bsjEqHK37WYRASWfYEP/Ctqa6tw6IiP4hyWY4xwmNdtqPDJDH0P54bDzebiM1AZLQFYhOFYohh0kaT83eFtTgbYFIyzGn1Mu+x4BWZ1bQuKTs96X+AZMM9kJc5XFE3nuiYb4Mb24oY0OGdDac0F10I1IQCKYqcBbiFa7biC4+CU8z3OO3DNX7d9g8GgqxWgTVYGXDVOGFeCCPu1FqXvhD0KlL+zqPXb3bt/2I8K9zW0DBTgOHsO3tzn45mn0K9BH4B1AWP77ywYdQHn/Eo08auY/wAkIw/T8rcYHtMukpW/O/D1ZKDoIWybIw0GpQdA7JKBB7u0hXZIAsDxC/2/tHj9rABUm3PaJcGJGfG0K8IzAOVmV0FNCAAAa/ZeOgTxS0xKBOr9B5FUaJKUVHErBHoqWN8T+sCRJ/b1dCoawxom8ilH4IMDzfsx29N3b5uoU/7uFcBx9t1Wa9GH2G7j0Pc1GJiRMX4WALsNicGzAPAl+s3o/Xn9roJz2IZKfhXnbC5u78TtqZzHmVA2+cus1uVvxaqJHzFq5kymwk6RYvZvVrgWAmhVTYslNsnAKW2TIT9Tv7fKWoDWcZoUqJ5WAMqEVgsUNRRgt8OlvXr1SiC55Kn8tAVa8x93hCzIQB/0ycnNQXH6OfM2Cyz98Gt49ZFXYfot0+HeUffC5Gsnw2N3PQZL3lwC1h1WMBjiICExUb9CoORLrr8I82jEE0Oiyrkq/YaJfMv+iKoaaCts1Ct/T9XfsaOo1Gxe/n/44J+DxOBmi6X4NPQ0Nh9fXc2ysPeezbmtK40bK4pyLADrY7PVtU9OZskYL9VqLT4ElfyxVmvRSNw+jtuvrdal1PuH1vYj5Y8kiJb37aRT3f0e89eafyyRAVpTf+KhGU0gEX1Qyzms2l8NL+8og3s274HRf5bCJWtLYAxup/6zB77cXQU1GCc1Pg6Y6Mxd5JkSFLhCFTMUgKMWWbt2ZdM8IkcOjQTAbmf03rEjUMu/zOxMOPuKFr9BEFQW1VXV8Nm7n8Gdl90BNw27EZ574Hn4vwX/B798+wus/3U9/Pnbn/D90u9h7hNz4ebzboYXHnoebP70eYIqTX2idmo7KDxnYP1BdPynnuBT2N4D8WHfGpV+YyuF+1W/xoKEcGfv3qK91Hu3WlduJlPxzp3LVlksRWtLS7/dsSVGPsgjCk561Q+V/1KU1wm9Hm4fY3bHq356CPcl05UMAPAu6KPq1cLL1TTITYgDPX7/VNXBg1v2Qv4qM1y9vhTm/LcfPiqpgO/3VcPaAzXwHW4XWyvgtg274PTfLPB/pVWQYBA6Y79ZtS42Jgoc6mCXOTNoJAAYIERrn3vVucJ7xHa7Hb5Y/CVcf9b18MqsV+Cfv7ZgcX07W50Nvnr/a7hvzH2w27rbd2SNZ0+54BSIx7EgjWL0TL6OMTaNMYd5n3qC40pKilbqmWGEy6aef6S86hfhULXO4lHPP1yv+oUacYtl+T/oHa8WGgysJ3Zq78My0FwS3ESeo+V9R+S6v/KnvZwlNTaYsGkPDFtthQWWA7DflKoWfwAAEABJREFU1vLcWgummbhpNzyz7QDoNfGGakZDABflJNGuCH+OcxjAQQBU9SQjStVs/qclfk+94FQUJc7tsu5yKPGXZrwI+/fsD1jwjn93wNNTX4DKisqA0/qboE1WBpx82kn+Rg9VPNnT94J0a+z5e4FCBntAIJZ7/h6q2yQIh4/+tFqLH7RYivuiVSAiLQMX5aQI7A3XV//L3ZVwzhoLfFJaAXZkQPWh/v9fgBaBtyxV/icIIuawdknQxsCCSNksSeru3arjK3cOAsB5HI0JOPabRQ0gYPCwQZCcmhxACt9RN6/fDHddfpfDvO87pu+zO7Zsh4/nf+o7ksazg4bla5QgJPl6xuABwDFdvIFlTx+a/Ziq5suefzNYZIATgdbU83fW2dsWrQLuloGpGHct+rC6yzws+KOlQM9s24/m/N1QVqetDz/PUgH/VOn3FiwtFXxqWzFz2nBo61TCzKH0FQUcbIACtPiCswu0JG+SlpT/1LFTYd/ufU3Cgz0o+mQFWhDKgk3eYjrTISbodHhY1jxwVfq9zObiqRZLUdhv0hYBC30EUv5PADAc6wSdfsEs8qNTUaTYgBEg5Y8PxpiY8Bdw5VtI0GAZeMBiKe6jKJw+WBUWMtAnLQFEfN7XWd3Htu6D57eL0Qs25A/zzfpZmqnMp2SJmnBud7yj7yAAAOwE0Pjr2K0jKkAxc2VKzSXw4M0PQkW5uMXObHV18Pv/Vmuspe/kJww+3ncEcWf/QVHOiXxS6SMYLTlp9m8JodZ9vsHs/w2iIOYhhoLcXNgm/LmVQ/MhfdwLhwkcZABCPIHw3GxPFubgqjTfXA6v7ywPLrGXVP8rq3W8GeDltObgw5LjkAAZNMsBYP06dSpMUjp06J+MQx5HgMbfiUM0TyFwlMBWZ4MnJs7G3nrg4/0OAT7+bfl7i4+z2k8dffLR2oV4l/AnmvcfxBuuL7LwLuhb+0Q+70g1PUM9f2n2b4qJPHJBgHr+NlscrajY2SVY5C696udxbX+RmYRDluswQSgsA0OyxBCANeU18Ph/4nVMtZ3DFh2HAaiNB2YKsQLEVVfbeik1NQlHoVDNSw31Oa4vitHuPl/4Gfy1+i/tgjxI2LdbfIO7ZpOV3QbUDqprkNZ9V6XfE8379+ENF7Gzc7VWVof0pPyl2V8HYGNFJCl/NPvT2v56jd+R8vdrbf9ox9TVMsCYvTfiej/WSdi6ImT6NyY07/1iHgE5Guqf+s9eqEVlHVBCPyPvqsWxAD/jBhPt6DTN6tqRrd3OjsIhAH4YaPwlJiXC4X27aZQCDpP/uy8u1CzHm4Ck5ERvp4SF9zhSM5xUlg0NPX2p9AmN4LxU/sHh1mpSqWp+Z1RSUvnr0OJm84p1VuvyaWipPILIAGaheV7SCRlint8fllTAXxW1WCR9XIrC9BHcILVnSpygjwQxIgBM85hXt97dIC5OOyv58r0v4UDZAdDrp7YX2jv3WMyuvbp6DA8wME729ANErGl0qfyb4iGP3BAg5Q/AaMKf7PmDvj8iAyJy6OeRAAQmmV7xe22nmEl/3nLOTWTeTgkJj0fxPZAEaBfGu6AFADSPe3Xocoj2sqCEpR8uxf/6uaNOotEO/eST5NxDTbTR6jsADNdu69JaiihNLyf8RWnDhajYNOEPgNHDRi/lHzMT/kDcT3NHs0tynObS/FxWA/9W6bc87GEp8WCM1//RfWiSiDzYIQpjoLlh2nfKA60/mqBHi/ZoleMtfZceneGw3kJ6596ycISreSowhhTNcRT0v/jc3F1IAoJO31oTUs9fTvhrra3vR72p5y8n/PkBlMAoqupYaE7T0n30RO3kQekFWswvdun7mt6lxlRg+BdouQKNf0gi9d0DTdUsfgeSkt0sOMCAvI7aCcDanzQPEXkttWJQ4Jo7rgVDCJbrTUxOhDbt2oDWn83GJQEIDESGD3c54S8wzFpVbLw+0Nopzf6hbnRFMWh+lpkS4iBJIXUFmn4/llVrSu8rcXfs/V+YkwIG7cX0lY3jXAdaFcixp+lfWypqqiYRmLhNW+0Kz5/1/TGroNyI8SOgV79ewBhVNygRASVKb6OJ7DbkZdPcLg2CWsMGlX/hbNB/kZ/bAHRd8hvFS6cHAtLsrweq/snkPC7dv5jeY2XGeXp2e4/v6Yyer+i1i1fgqcPbQrxC/X/mKXuhYZmCWAahqlnRJKUkaa6cedtOzTLcBVBv/NYHbm38OiFj+jcMlSExSTseAExzu0Dr+DUofz5Ov+o6Vvgj5a9fFlKybgjk5g4+FM3+RZgBWgDwv3hHY/5DzeYVP4oXHQsS7Slaa5EqYMh7W3VdUOv8t1T2XqnxsOAII3RIrJ+jgBygpSSaz6eI+SYARAwBEDn7v21OWzjrsrPg2Y+eBdfliZUQEQARhAivEBFmBBQT004q/5huXu2VI+Vvt9totr9U/trhDFKC9s5Mqoceb6CF2U8LAASayEt80iVHpiXAQ12yYEFvI+S5rE/AgHlJJS44WRGTBxGAetqioWxxcZpFABewKMP46ePh+Y+fg5c+fwmuvetayMrOalqrEBGAeAGzQBnj2t+rbFr7WDsKlfK/PdaAay31oTF/u90mV/gLc4NzDpoVBJnWtVaj5Y/7tpzDYcnxsBh7+yuPMcHbvXPgfBrzd9fF+q4D5ChkvHuejtDA/xEB0DwtsqqyKvCc3VI0U9Zu5/05PGbAMWBs730WPscr0R85WuNUVQqZaKLfgghaKxj+9KFS/mT2D8HtHH5AY60E1POH+lf9OoI+PzL7n7ZzZ9HP+oiPJalMs46ptLnfhoHjkxNP6i7wdK4p6FXEnmjyb+NjToL2krrm6Hm/UgSbQdGEiGZFU1WhnQB07a1tJcHcQ0yQmu572JxzQaghcL6cCDwAFM3t4quMUXwulMo/imFqvUUn5Y89f2n2j5BLgHOu+Vl2wKb92d0ex+izfChuf+CirxG2FC8UBOCAAEJE9VCwU6z5c0givtp30in9qTxB+xP9SI8XYtDyA0lYKYAQ4RCA5psmkDJHSdxQKX9p9o+SC8K9mEbjgC6o/KXZ3x2YsB5rJwDlbgQgmOrQvLkhbYP/mJCCQ8hDslqe4M1D8KJQhYAhc8IQLQBcMwEo2VlCsjR5WkK338B+QclITk2Gc644p8W0drt2FtlSJkQy9pTsbilai+ftdkW7kBZziaoIoVT+oSDxUQV+NBSWlD9jBur562X2bzUf9hHZ3nFx2p9lO2psQtTqdXnpEOz4+bnZydAxqeXpDDbsVYvEz5MsS40QXWYnUrPNUwaBhIlawe+6SWMgM8BFdBhjMPaeseDPWgR2my2QagUVd0/pHqiuqgkqrWui2lqDvt8uds0s8vel8o/8NgprCcnsj8r/ayyEXspfjvkjuMG4hAT+L6bTRKor0ORtRRKAcgAg+P/tEw1wZ8c2AQugWf53+JGOKkmdwIAzCDDB1mrtugx5yg60ACiaFc32LTsCLL7n6NmmHLjnycmQmZ3pOYJbKK3wN+L2ETDwjIFuZzwf2gWYkTxLPhhq/s968CDIPWyYPXv2fL0vyOSxlkwq/1hrUcH1IeWPZn/q+ctX/QRjK0Lcli1FNEnMrFXWFkFr+F9pSoMb2qcD87NA9H7/iz2ywZ/5A3a0UxAJ8FN00NH+q9JOALDvvFUBsP8TdCkaEv7z1+aGPe0bGgp45M1HoP8pJwFj3pvokK6HwJRnpvhl+neWqq5Ov09AOvPYtvk/527QW6w2Meag08dQwhAof/akxbKcxvxDcd/GUNNERlXI7I/KX475R0Zz+CgF16wk1h2of377yMTvUzd3yICnDm8HhyQZvKZR8EF8XnYKLDgiB2j2v9eILifqQtDJpOw2iSFDRABAMwGgIYBd1l1ULiG+nbEd3PnIHTBn0Wy47KbL4ITBJ0D3vt3hmJOPgTMvPROmPDsFnljwBPQ9oa/f+dH4P3m/EwQZ8a/f/w4yZZNkh6tq4ZuqOujcTp0KW551AjH5C5HyL5Kv+kXp5UPKn8kx/4htvV69eiWYTIPOMhoL3wBgR4LG3w/7hbxe3ViKwVlJ8HFfFZ7r3g4uVVNhYGYiHJ2eAEPbJsEdHTPg//Dc9K5Z4E/P3ym0Fs23zn29ttZaG2yvFjEHgG1CCwCsEVHQtT+K/5hPhy6HwEWjLoK7H7sbZrwxAyY/PRlG3T0Kjup/FJD5P5By19WKY4/e8rUh+9v4h2aiS+JTAPgVAPYPKyv5LlUt+NhozL9aVYf6fs+RUsaGD4Hyp+V9pfKP1suFzP6o/OmTvnLMP6IacbghJ6dwAD6znty1K2cb5/ZPGOMjsIiaVzb9pawGau1iDXXx2MsvyEyCKZ0y4YXu2fBmrxyYfVg7uDY33ad1AOvj0dWFYKL5r+Xazf9UeGybXxQ0f5IFQPPA9e8//EYyI9bX1mqfmNdS5Tb9sQmqBCyK5JYPkgE4mzE2F6B6B95Y81U1f1in2LUMhED5S7M/RPGPev5o9l+BVeiEXg9Hs/1PkWv7+weta09fVa2lisKpbW7F1DnohbkD2MFafUD/57iWAtfYxShnX2VYVSamM8sY/EoWAMpL80cs/vfNDyBmARwqjnhfW6P/hfPDMs0wtlTxDIxwJQD7KEYtAyFQ/rLnD1H8c+n5H6JTNeRsf7+A9drT928Gt195NI/0yS7Niwo2FyoohHr/IgzzvopThRl8t0+7LuMc9mDnf4uDAOCBZs1VXVkNPyAJ8FX4cJ2zczvU1dXpmn0tDjH8svJXXfNwE+7RMtCt2xmJbvGi5TAEyl/2/KPlYvBUTqNxcFfZ8/eETGjC6nv6+WcajQWvG43WEr16+r5q83lpJdSgwvIVJ1znqkNg/l++txoq7dqHQbD3/z3ixBsIAKNXaPBYm1v2sRAx2grhIXVNVTWAzhfNb9+thorysLHTRstAWVmFVVULHMMEUUQGQqT85Zi/h9sjKoJI+TNmoweMXj1/MvufKtf2b3o5uCr90tIcM+fsU1QeI9G7fWmtaTp9jgD24zDA0t1he876rFZVCNaZ+WKP9t5/QyW+oK2DAJSU5BAbKKUALX7NT2tg4x8btYjQJW11lf4XzJeLv9Kl7EEIdSUDu5EMOCYQ5uX1I4tBEOJ0TxIC5S/N/rq3oo4Z1Jv9bbTIj17KX5r9m7Sfu3k/vEq/SdHw4JWd5aC9D4yCBDpa/a8WLc0CRTYT9WdFHfxWLmb832azfU4ZOAgAwCIsP/uUArT6919/X6sIoenp1T8yzwsV6iZszY9rYetG7e//u4kVcUhK3zGB0GZLK4lAMhAi5S/f8xdxMYVDBil/NPsXYd56Tfgj5T9UTvg7qPRV1bojHOZ9bGOfznnyzwO1sHIfrS3kDAn/ttKm7xAz1fAti7A6byktXel4X72BAJB49jH91+p/XPYjbPlb8+KCWovRmL6qokJX8z/nHD55+7PG/CJ4x5UM7DCZCuYhITgnjMMEIVD+csw/giSSGDUAABAASURBVK/HFotGZn9U/jSjXC/lT2b/Vjzbv188PgfOwOfAa25j+sYWGyfMEV7YVhYxVgCyRlTqbP7fUFkH3+8XY/5njL3nbL5GAsBYPJkE9jtPBLslhfjKrFdwyJ1gCVaKmHQcL5HKKiQAYsR5lPLdV/+DLX9FDuHxWMjmgW2Qt1yFwUvKyios+BAINRkIkfKXY/55efmHmEyFhaqaf4nRWHCDqhbeq6oFT9DiLLi/APdfxPBn8XgmXgcP4P7tRmP+BUbjwL7hHDYi5S/H/PEOFe4OKn1VTcMxffg/zOIaxiAsY/qYt5+uabTfymtgSemBpoFhOqq22wBN6LrlTpr0qe0VqM3EZGG3s/lOSY0EwGL58gBj/G3nCS3b9b+uh6JPyGqnRYr2tDVVVcBtdu2CvEioKDsA77/2oZezURMcajIglb9Ol0Z29sBcVORXolJ/Cv336MttNrYVSfkyALYAH/LPoTnsQQC4De/1Ebh/Ce5fh+E34vEEJIVTcP9xhj0ExpTfcdjogNFY8B/K+UZV8x82GgedForFqKTyx1YR6vrF5+QUnq6qBa+6Kn3Moi36qHWPbS0DmhQY7gpU6PyG2ee7q2HdAWFDDGus1mW/OzFrJAAUgA+Bl2krws+bMw/oy3giZAUjg3r/FeWav3TsM+uFL70P5fv0zcNnAcSf1JsMSOUvts0UVR10Qn3PPf9ng0HZjvcwsftbMJsT0aei1+QYgw4oYBAAm8iY/XOA6j2oSL5FP53yBsE/qfxFAdpU6eOY/mco+Vr0Uan0sdzN3O5aGzz6r2ajdTO5gQTQq381dv06maW1dnh5hzgrNudsnmv9mhCAnTtX/MI5/OIaIdj9/Xv2w5x75kAovsDnqYzVlVVgs+m3KtP3X/8A33/9P09Zx0qYOxmYq6qFZ2uYMyCVv6Arw2Qa2EtV859W1YKdAPb/4T2LPXfWD8V7/3oWnhTk4lHOSejvobyxDOvR30NDDRimyUnlrwk+TBz7Sh8r2cS9X3IAPikVpyCbCPfjoLxWzKx8T1nR6/7T/y2HfTYaBPAUI+Cw8qSkulddUzUhAA0n5jRsNW/W/rwWFr28SLOcQAVwRE7P3r/5PzO88+yCQIsVzfGJDFwNwD8uK6swY48zUDIglb/m1neM3Q5HZbuMc+UPAHYzAETCZK0eWI7pNhvbgmVbikMG5+NxwESElD+AjcYN9XrVjyb8xeB7/v3i64dm6s37sdjTB8AryoebtmUvbBHzdTwfuTQ/Re/96/nq31xLBawWZ/qnCry2devKPbTj9M0IgNVqpHkAG5wRtG4Xv7IYVn7xrVYxAaWvOFAOdrstoDT+Rt6/pwyevf8FqK4SMyPT33wjKF4m9jgDIQNS+WtovE6dCpOMxvw7cOz2X8R9IQAUQmT+6FkyGIcM3kci8JvJVHgRFpPCcOPb4fh0N1L+mJaGG3xHDu5sjCl/p9IvfAWvCzNzDM1ATJn3A2nmCuwh3/jXLqAhgUDSaYnLgcP+Ov16/0v3VMPb1motRXRPW4cduGadew836CIbY3y6e+pgj+k9/KenPA2//69x3kGwovxKZ8NGqazUxyRE3zp4espzYN1R4ldZWkEkj2SAVg9rqLtU/g1ABLFRjMbCKysr+Z+MsccwfS76aHF9OeeLkAj8rqr5NNHQw3Omviqk/PF5s4zVzzWoDxT7P0aUf2Gc0TEJ06H0dzKH0uejEKqYGdPHunh0/gT+ixaAsUgCDug46du1HOV1dWBHRu4aJmr/57JaeOS/CqHy8f56x2JZTh/+a1JMjzem2ay8hbGELelXh0r50bsehXW/rEex+rr9+/Yj0RE2ZtJYWFL+zz3wImzdtLUxTMQONswDKIfGE6J9NmEjGdi1K8diNBa+YTQWvIaNMQ7rp5Oj9/xj71U/xO1UVS1YxRinCX2H6gReKMQeAcAWqGr+cpq3AG4/qfzdAGl26Kr0eUNPn5PSb9csanQFVKDuXAzApoDA37oDtXDz37uBLAICxTYTRZP+DiABaHZCQMBqrMP9W8qhDgESIM4poooxg0esPRIAgCI0Fyh3OlOL2FYeqIRpN9wP3y+lVYdFSGwu40BZGZAFoPkZbSEHyg7Ak5Ofgb9+/1uboOapvzKbi6daLMWXJScz+nTmMCQE9NBHFtM8chSFZKLyGoF1GalfmfkciyW2lH/btidkqGrBi4jbl4jbUehjxLGTOVd+Q1I40zmJFIcIOuF49VdYV73M/rTC32nRt7a/64p8fBs72NOPdqVfhRfzJ2gZGmGz1Zms1uLheP8+hGEtvEeNMQJwP+6vhpHrS3QbDrCj6X9fbU0AJfI/6nf7a2DCpnIhH/txzRW5xNM7d37zr2uYc98LAQCwWJZ9hL03IcsDOzOrq62D2ZNmw5eL6fnmDBWzra6ugsoK8QtDWLZZYeb4R2Hzn82sJ1oLXmMwKPS6lkPOli1FVRZL8cdICK6Oj68x4Y1yIQB7FwCi3TKAVRDtqOcfW8v7mkyFhfHxSasRqevQx6KLZ4xPKCur+FVVCy+127lc4a+xlamnnz8Uyd/Lqmq1IDEibG7F0yr6aHaOnj62Ow4DJWbj8+0cq3X5vNLSb8ucleLccCfuCx3s/gN70VetLwUaFkDZwhzZlffV1Oqy6M9Hu6pgKvb8dfjS4a6kJNvD3kDwSgAoAedxZL4l5kaHQrytzgYvzngRnpryJJBZXYRQGmIo27dPhKgmMn5c9hPMuHWWLmP+yMrm7Nix7K8mGTYcbNv2fSXeKO9bLEWXIhkwcq5cBPVkQDzDgWj7kfIvug1LTfcjbqLbdepUmITK/zEkfEsBIJrN/Vh8v1xP7Fi8o2PPf6+isCiY7e+q9Mm8z75A9Eajj/aefiUq/PewjS8FSDRST99sXr6QFprDujVzVus3mzDwCfQeXbCBWyrr4OK1JfDZLnHzweiVP1r1L9gyeUpHwxUzth6Ap7bRmL+nGNrCOGfj3Wf+u0r0SQDqG4eTmcY1jZD94k+Xw91X3g2b1lH7By/SbrdD2d69eL2J0weVB6rgzafehlcfeQOqKoXyH2dFNzCWSGP/zmOv23oysOy9BjKQ07rJQGwpf6NxiFpZaS9C5X8HXgA+70U8L13LCES48ielX0DzO7Cnz3cyFpNKPwcV/kUWy/J3vSl992bE4U96Fq5zD9d6XG6zw50b98C0LXuB9rXIq7DVwQH0WmS4p6Wv+924YT/QjH/3c2KO+adWa9GbvmS1+NCxWNSZnAOZpHzJCerc9i3bYeLVE+Hlh1+CA2WBW7o5Kv99e3aDzSbmlT98EMMP3/wIU8dMgxWffRtUnfxIVMsYXOHvzeEqr3WTgdhS/jQpjrG67wHYCSB/IhCIUOXfqPRfUlVS+kDjn9TTzxZR6TDKcO3pB6z0XctNw5+KolyNYbXoXZyY3YWWA3DOaitaAyqDElhlt0GZwAV/ypCYzMEe/y0by+C/ajG6y0PF9hkMcIOH8CZBLRIAgEW2uLi6KzEVdrPxv2BHPfjPF30Bt5x/Kyx5cwlUV1b7lYOd28Gh/Ovq/IrfUqQ/f/sLHrtrDrz26FyUq+ccPD4Nx/l/aqk8LZ13JQMGQ7mRMTYc0yxEfwB9rLmidu2sd2OlxJl5UFi4nKoOGoKWHGKYncNVhhjLN8KUv0elPwYxjwGlD++jufVSu50ZA+3pY/29up07l63CjuZDXiNoPGGtsaE1YDeMWFcCNFHQX3HV2LmkSX8iHjyVdg4LrVUwYv0++BjH/O1YYX/LEWg8xmDMjh3L/2spnR8EAGDHjm+34rjO2JaEaTm/b/c+mPvEXBh71vWw+NXFQMfe5BFp2Ld7D9RpVP42ZGK/fb8aZt3+GMye9BRs/GOjtywFhfNisqgIEtYoZseOVRVmc9Fii6X4khglA4W7duXsVNWCV3NyCk8H6BffWPko2zEa868AsH+Gxc5EL512BCJE+ce60meX1Sv94gvJvF9SUhS4ybaFtrZa2QyM8jV6h9Pj389lNXDN+lK4EolA0Z4qqPOh2Wmlv711NaBVT+/BTN60VMHl6/bCizsrQODSvt4gespsLvZrCV6/CADlgmxvIW4fRq+rK9u7H9559h0Yc/oYmDFuBnz31bdNrAI2VPr7du+CYF/3IzP/vxu2wsIXF8PEq+6B5x94ETav/0fXOjUI32ww0GS+RbrZfCifGCYDtODJtYrCP6PVz6KRDBiNBeczxt7AdopaAoNljyQXZuU/3GA0Fp6C1+KLLub9GOrpuyr9ogV6KP2mF1NRXXx8zSUYthm9ru5XJAI3/b0Lhvy6Ex7Zug9oDQFXLkDv+e+tDV75U29/2d4auOefMrhk3R543VwB+22uOehVPf5Du3Yld/kr3W8CQAKxh3kvY/w92tfb2+pssGrFKnh8whNwdcHVcO+oe+GtZ96Eb79aCSU7S5CV+QcmTejb8tcWKP5kBbw041W487KJQDP7l364DGhZX73r0SAfH1T87B07ikobjkOy8UEGKkJSAP0ycSMDha8YjYNOi2TLACr/UxmDdxCSOPTSaUcA76lwzPZ3VfpWMz4Pv8Kq0KubMWLeD7XSR/RcHA5t7gbg5wGE5vVn+tre3J3lMHytFQau2gl3bNgNb+zcDz/tr4QDfipsjuW31Njhp7Jah6Ift3E/nLd2Lzz0bzn8sL8W/BSDUjS7LTYbP3/dunV+L1QQEAHA4tkV5QBN1vgJ90PmyNS//tf18P5rH8CTk5+GSSOmwK3n3w4P3DAd5tzzNDz/4Es4dv8GzJvzlkPJP3nvM/DIHY/DXZdPhPEX3QEPj38U3n52ARKKX6B8X3nIyt2QUR1aHS7ZuXP5+objsGzcyEAOKqOLsSBkJooBMsBHMWb/HC0DOEwQeWTAaMw/CfH+APFORB9yxxiDvLwc6N+/L1xyyVC45pphcOutl8LEiSMdnvYp7OKLhzri5OZmA2Ms5OUMIMMQK/8mSn8nYzxmlD5iTtfl5QfN+6Ho6WOuPhwOMazB8tCcJr8VmQ9xfp/aU2eHz3dXwqNby+CmDfth2No9MBzN9reiQp+wuQwe2FIOj/13AB7eWg5Tt5TB3Rg2+q99cObqPXD5+r0wEY/J1L/2QB0OLRAt8DtrERF3oYX59NLSFTsDERYoAQBSJIzZz8JM1qAPm6uproHtW3bA+l//hN+++x1++OYn+PaL7xxKft2q9bBp3eZQ9vC94VCHz9HLrdblNPPXW5yQh1Mb0hgRWnQuNhjKY4kMtMPegwcyUBi2Xndubn5Pxtin2Mip6EPi4uPj4IQT+sKdd46EhQsfg++/fwM++eRJePbZiTBhwki45ZZLYeTIYUAKnzztUxgRAorz6adPwbffvgYvvzwFrrvuAjj66O4QF2cISdn9yCREyn+4gSZrqmrhC6pqdVX6tGKnH8WM2Cg0Fd6h9G22OhWfARegf0d/835geGB5Psf75gpMpeuQKcr36XbX2uEPVOg/Y++lSDfgAAAQAElEQVS+eF8NfLa7Gr7eUwMr99XCKgz7p8oGOize47NMHk5WYCdz2A4v68p4iN8YFDABoJRm84oSJAFDcH8Neuk8I4DKn19Bitbz6cgIbR1kgJvxQd4wTBA6MpCX1y8FezJkZQnJhL+jj+4JM2aMg9Wr34ePPnrKQQDy84+FDh3aowIPjAMlJSVCv3494frrL4JXX50KX3zxLNx99wjo3btrOC9cnZV/U6UPYP8agNPk52hX+lXYaM2UvuuKfHg+4pzZXLQY8afhFXvEFS5yClTOmHImdjK/C6ZIQREAysiFBNDypRQk/UEE6vDCvdJsXk4TJw+GRvheczLAL+Ec8CaEiggvekvFc7EMEBkoeBnN8kMB9CUDdXXpz2HBeqPXzaHZD847bzAsXfoqfPbZ83DttedDVlZGk/zi4uIgOzsb4uPjm4QHckAyL730NJg//0F4552H4dRTTwRFUQIRoTWuTso/ppX+h/gcugJ7+kbs5Tt6+pGu9OsvkoP/cTjgNezd0rCzLmsEHMwpKvf2ITanmc3LioMtvaY72IyWgOpqVoCZI1PG/9IRAtQoZ+GF+y4dRKuvJwPLF1qtxcMZgxeitR4eyo1kAEYzxr5QVf3IgKrmX8sYH+Ehf2FB558/BJYvnwsvvHBfiz1zUtbt2rXTRAKcBe/e/VCYNetWeO+9R2Ho0P7OYD23+xShy/uS0s8fbDLlP4/m/R0QWz19V6V/Pj6H3o42pe9+IWHv9i20pA3D8Fhc4wSrFZSzMAanIjbfBZW6IZEmAkAy9u4t2muxlJ+J+y+hb+3uH8bsJ1kjbMxfS6OoasEMzuF2LTIiOK0uZEBV8/sAsGdAp99hhx2Kync2PP/8FOja9RC/c3GSALII+J3IR8RDD82FmTNvQQIyGWjfR1StpxIYY40fkAlOmLvSZ0s5Z9ejLCP6aHZk3o8ppe+pMUpKij4HUGjYOaBJbp5kxUDYbwZD3fFmc/FPWuuimQDUF2BVLZqYaKyMFEUrNdVwNMPUnohWkXX1mET/fxWVP9ZiEvrW4FzJwE6sOw4TFJwaxDAB3lOMyHCyaNBQCcItt1wO33zzCpx88tFBiXeSAINB3KS+44/vDYsWzYIRI84BKmNQBfOdKNlms78BMDzAQsey0ucfAXCneT8mevq+LwGgL9T+gNdBP67T0vQt5R8J5xmjlRgTB9DifCLKgw8rEWLqZSAJmI094AF4pPeSephFxLg6vCDvs1jUIRbLd9aIKZXGgqACnIEiWovyx6o2cdl4hMME8CUOExAZeMlo9I8MqGr+SEx7Inqhrl27THjrrVkwefJ1ms34pPzbtm0rVFmTVWHcuMvgySfvgszMdKF1bxB2oslkpQ5Gw6G3zXCDyVQwyNRo3o+lnj7/CMd8r6ytrVLRtH8e+qg37zdvRd8h9Jqb1VqOlgD2JMYM+bt2mGe4HFl6xmGv/6JgviPjrdBCCQBlgj3gH222umM4Z3PpOMb9P5xDPo6TPwig7wp/ocRRbV09/5agJTIwhrGWyUDHjgOyANhMEPzr3r0TfPXVSzB48PHCJNOEwMzMTGHynIIGDDgK3n57OnTu3N4ZJGyL99p97doN9iDYqfQLnqMxfYz3DY8Z835TpY/Di2/t3v2Dnh8rEdZe+gkii3PReCRDp2MeLa53j3Gi3a1Fa8/x2MF+CisilPQIJwBYQKBJJ1ZrEfaE2Dl4vBl9rLlaxvhjSHSOtFqLv4+lyqlqPi333Fp7/i01pU8yUFVloI+ZCH1l7LjjjnC80peXZ2ypbAGfT05OhpSUlIDTtZTAZMqG116bCn36dGspaqDn0+Li7LPqEzVR+ts5B1T6jq+fiQeqPsNQ/ceeXutV+oGAjGToy5qaeJpv8yqmE6oYUV4kuCrseDyQnMyOQ2uPLq/c60IAnMhZLEWfYOF7I1O7H8NoAQrcRL1bxpj9KLN5+V1EdKK+Ni4VqFf+bKJLkOjdV1Dg5ejpneRovx6akAGTqWAe3qw0DwarJ8YNGHCMYyGfzMwMMQI9SGnTpk3AawR4ENMsqE2bNHjxxclw7LG9mp3TFsAvV9WC+djTd1X6qjaZYU+NSh+WcM6ucpr3UbnJnr4fzbJnz9f7UM+M5lwZiNE1T4pDGRHhGONf2O28L5r8p27ZUkTXhy7l0pUAUImp8HgxT2OM0ZPgNQyL1kmCv3EO9C7tYLN5xTqsR0w51dHz11X5v2yxFF+H/h30F6D1hB7aTjKg2wUeokbKxmvjKswrwElqmMKL69v3cHjjjYcgOTnJSwwxwXhfgh5DAVQ6WkzoiSduhx49OtGhKM9Q0JXo6frBTdQ6+u65i9IvPtdqLXqzdZv3g29Lq3XZt/hcOQHvQ1ozIGqHBbCzvIox5WyzefnpJSXLNwSPiH8pdScAzmKYzUVbsIFGKYrhMGQ3L2A43QC4iWzHGPzKOTsfy36M1VpMPdfILnAQpQuR8h+LRWs005H1BDF1kgE02/Ir8PyH6KOdDGAVtDkaP3/77VmQlibePO+pZAkJCboMBVBeVIenn54AHTpgE1NA6/b0zHMqfVqcRyp9sdcDt1qL57drV4JjT/R9EPhbrHhdpf1OegY7y8eZzcto6XBdM3MKDxkBcGa4c+c3/yK7uQF7gF0A+L0YHolzBEgJvc0YG2Q2F/ezWotIMTUqLyxzzLhwKH938OrJwPK3kRCcj9cFaorWSwao1/zaaw9CdnaWO0y6HmdkZOi2sl+7dm3gscduh4SEeF3rEKHCSel/jA/3q3C8WsVrXCp9Lw0lKpi+hodj5q/hs5u+wzEc9cxSlG1HH2mOrOELSc/gdXFUOPRMyAmAswXwob8DG2k6VhzZmnIKhr+Nfh/6cDm6QL4HYLfFxcV1wHJdYTYXFQFePehj0kWC8ncHFq+LMrwuWi0ZeOihW6BnT+TG7sDofKwoCqSm6ve9osMP7wh33kmjJDpXJDLENyh9uLpB6Q/Dh/ubNF4dGcVrNaWw4zN8MT5PUL/wbozBA1jzLejD7X7Gskyw2eyHop65BMtIeiYsZQobAXCpLbdYli1FIK6wWBxfphvMGHucc/jLJY5eu0Q4lgCwMZzH5WEZTrJYiuZs3750F8T4z2gsnAmg+5h/E7M/BPhrbWTg7LML4Morzw4QJXHR09LSdLMCUCkvuugUGDJE3KuMJDOCvAelXzxfKn1/W0jfeEgC/jGbi6daLMWdObcfiblNxr7dD7gNxdcGKzCvpYzB3bjtgmVAM3/xI7SmAeYfVhcJBMAFgFW12EjLzOaiO63W4h6M2Y0I2plIBu5D4D7CiJvQ042Gm4DdTpTxLQB7EWVei7J7Y0O0RX+uxVL0itW61AKt5EfKnzE+Qcfq0oQ/TcrfvWyxTgbS01OBev/u9Q7lMWMMiATomeddd41AS4PwRRL1LLIv2fQsQvO+a09fKn1fgEXCOat1xWqLpXgGkoITccgxC4As0GwK6gcae/8Hy6iFFJBZfy3KoA/B3cO5MqBdu5IszOsUs7n4UdySfDwdGS7CCEBTUMzmFSUI2mdIBh5E4M7DRuuGnpYFzQNg/TnnF2KjXYHbsajQbkY/ET1u2TWMwcWcs1MxXh+DoTwV02EPf/kAi6XoepT5Osqmmfxk9ofW9ItG5e/ePq5kgF6bwva/Eq8DIog0d8M9elQc33XXNUDvz+tZWMQJ/vprC3z8cRE899wCmDXrVXjiiXmwcOHnsG1bPf+ldQEYY7oVw2jMguuuu0A3+SEQTEr/E8RyxEHzvlT6WnEPV/r6ZwlZoIseQh1ztsVS3AUVdorBoGAHVDkb9clIfLaMZ4xNwzLORp0yy+kxnNb9GIfhlzMGgxWF90IrNumaPijnEvQP09sJNCcB40Ski2gC4AUxTqaT/2fvTACjKLIG/GomByEHBJLpgBcquOvtiv96J8Fr8XdRVMATBVdB15NdVnHVX9TFc5UFFVxZWcWVVfFEVFwQJomosCAIGJD7CMn0JCEhdyaZ6f+9ycHkmLOrJzOTN1ZN91RXvar6OvhevaquVlXr93Z7/kd40xbi8XWbLf9VjM9hxKP1TVTyi+x263LMt5nebOdFVq9KjgXl3/mG0WNTeP/fwb+D0dFqDNALfW677erOXZP2+/vvf4T7738WTjnlasjJmQB33DEdnnzyNZg58214/vn5cN99z8JZZ10Ho0ffD+vWFUJSUpK0ursTdMMNI+Goo6LqKb7OSn8U/s0tYPd+d3c3+tNIYRcXr/yZVuOjPnkL/98yy2azTlfVvD+gTpnWFjH9MUybjfHfNlveypKS/C0A68gDEDUQotEAiBq4kdRQRcn9C1qzBrr9xRv4D4HertZjT0scPLi6Cv/H7DYG0OszEPlfiZb523iM6NeI0gt+4uLM2Ey5oaDgB7j88rvciv2995ZCeXmlzwrIULjqqvtg/vxPAUe4PvPquUh9nTDhSj0iwlEW3cAaThlqD5jNghYFs9IPB3WuI6wEotQACCujqK+MlD+A9ohxHSHlb52E8l0YIyKQ1wcNks/QMr8FjQELNioijQHa4vfaay/B5skL1dW1cPfdM2Ds2D/A+vU4KAlCtMvlQq/AP+Gtt5YEUSr4rKNGZcOgQbSZYvBlDSzRrvSFcA3CER5OGebPKi62lhlYJ4tmAj1GgA2AHkMfnootlpznjFX+ME9VrXdgbyJG+WNbOgRPYwCnCQbjHB49j7YYM/X4moHbb79W99v9sB/tYefO/XDZZZPgww+XtaeFcvLKK+/Bxo3bQykaUBnyAlx33WUB5TU4kwP/fXwuhDahsVFktCl9m62g1OB6WTwT6HECUWkA9Di1KGkAjfzRBf6gcc2lkX9ej7r9g+1byzSB9V+qmncVegZ6dJqAnr2/+uqLg+2C1/xbt+4GcuHv3n3Aa55AL5An4OWX3w00e0j5Lr/8fDCbe+R/QZ4jfXTv59PWq29VVlp9z5GE1EsuxAQil0CP/OuLXByx0zJFyZmBI5te5fYP9u55egbQGAj7NEFu7lnS3OAHDqhw/fV/grKyimAxeM3/ww9bwWYzzvudmZkO//M/J3utX/IFT6Xf7t7nkb5kyiwuqghEoQEQVXx7pLEtbn/4s4GVR7zbP9i+exoDnaYJaAV4sOICyj969EUB5fOXqampGSZPflK6sqaFgGvX0tOy/loQ+vWRI88LvbD/kujehy+EEBMTE52Z7N73D4xz9C4CbADE2P2mkb8QwG5/Hfe10zTBABTVtoCwDs+lhQsvHC5F1ty578HatT9JkdVZiKoe7Jwk9ffZZ58iVR4K8xzpo3s/7wqbzfrmvn3fyHONYCUcmEAsEIg6AyAWoBvVBxz5P4+yeeSPEGQFT8+AwxE/WNPgFjSw1uuVf9xxR6L7P1OvGFDVcvfz/LoF9ZAARRko602BmwWP9HvoLnK10UqADYBovXOd2k3KXwj4U6dkmT/R7Z83GQX22HP+WHePBtr4xW7Pe1vTxBq9DTnv2ePmSgAAEABJREFUvDP0inCX//vfF0F9fYP73IgvUtBGyPWUedZZ+tcB4N/+eh7pe1Llcybgn0CUGQD+O9Qbc7S6/Q1U/tG32t/YvwPtOL3yT5Twxr+mpiZ4990v9TbFa3khBJxzzqler8u6cPzxR+oW5XLBMbqFsAAm0MsIsAEQ5TeclD92wUC3Pyn/yNrkB/vb0+FYvQ04/vij9IqAFSvWwMGDh3TL8Sbg3HNPB9qoyNt1WelDhgzSLQptFTYAdFNkAb2NQFQZAL3t5vjrL7n9MY+Byj/yN/nB/oc70JtydGvvoUOP1t3u/Px1umV4E2AymeDRRyeD2Wz2lkVa+pAhg2XIOgJgrPGNldFSlsEEIoQAGwARciOCbUZWVvYLOOox0O1Pyr93z/l3d0+OPPLcPpieiFFXkPHmv2C3+Q2mwQ8/fDuceeaJQIZAMOVCyaso9KBFKCU7lIlLT69I6ZDCP5gAE/BJIIoMAJ/96FUXye2vaWKqcZ0mt3907fBnHIuOkjWtb9+OKcH/6tMnEWgr3OBLdiyxc2dRxwQJv0jhP/roJKAXFJE4IcjhQWfGxbi4OOQRp7sCs7k+WbcQFsAEehEBNgCi7GYrSs7T2GQD3f6k/HnOHxl3GzStQbeSSU7W/7rd5mYnHDpU3W0bQ0kUQgA9mbBkyatwzz03tosQwngDgCpLTibHCp3piYI9AHrwcdleRyBqDIBed2e66TC5/TH5YYxGhXmqGtkv9jGq44HKdTiEbk2VlKR7BgEaG2mTu0Bb3X0+s9kEDz30O5g9+2FYt+49+Oijv7nd/p65hQiPAdC3r26sIEScbu+MZ9/5nAnEOgE2AKLkDtPIn93+PX+z4uMTdG8N3NCgX3knoxehTx99hkRm5gCYMmU8jBv3G6+r/Wk74HBQr6/XjRXi40V9ONrKdTCBWCEQJQZArOAOrR9Ki9vfwJE/u/0DvTNCuGoDzestX02NnB2Fhw7V9zDCsGH+n0QIlwFQW6tfdwuh6b433u4ZpzOBWCTABkCE31VW/pF1g0ymRt1KpqGhEWgOX2/PfvOb83WJCKR8OAwAYkEvNNLVGSxcWws1eODABJhAgASiwgAIsC8xly0rK/ev2CkDR/70qB/P+SPjgENR0Xe0725TwAW8ZLTby71cCTx54sTRkJIS2rT3wIH94brrRvqtzOVy+c2jN0NpqZz39AwebJfjWtHbIS7PBKKEABsAEXqjaOSPo68/Gtc8cvvzo34h8KV3IewPoVyHIjIe4cvISIcHH7ytg9xAfzzxxN2Qmur/gQan0xmoyJDz7dlTHHJZj4LlhYWF+hdXeAjkUyYQ6wSiwACI9VvQtX+k/DHVwJE/KX9+1A8Zhxi03SEWbC+2Y8fe9nM9J5MmjYEJE64KSgQt/Bsz5tKAykSRAaD7ngQEhDMxgRgiwAZAhN1MdvtH2A3ptjliV7fJQSRu3SpPXz377BT4y1/uBXoywFcT+vVLhdmzp7kf/fOVr+0aeqAgHAbArl0H2qoM+ahpsAf4wwSYQFAEIt4ACKo3UZ45KyvnRfyfroFuf5rz5+19Q/0zOemkkxIUJfe3WP4UjLrCt9/+qKt858K3334tfP/9Qpg6dQKceuoJ0PaIYFJSH/ez/Y88MgnWrFkI48b5n/dvk01vG2w7N/K4dm2hDPHyLCoZrWEZTCAKCLABECE3qUX5wx8MbM48VWXlHyxfUvpZWSOusFhy3ywvz1QBtM9QxrkYdYUdO/aBqupfCOjZiMzMdLcBsGzZ67Bnz1ewa9dS2L17KXzxxVz31r7kAfDM7+88HAaA3V4Be/eW+GuK3+tCaFv9ZuIMTIAJdCAQ4QZAh7bG7A9W/pF1azsrfU1zLUEFcyu2sj9GKUFDn3VBwQ9SZHkTond3PYfD+DV1a9Zs9tb8INNNa4IswNmZQK8nwAZAD/8JKEr2M6gLDBz504I/Xu3v/zaPNWdm5l6gKDmzysszizQDlH7nNixevLJzUkT9bmzUvzufvw599dV3/rIEcr1aVa2FgWTkPEyACRwmENEGwOFmxuaZgsofQEwDwz6k/K2TULzxD3NjJdEXDit9RbGXmExaAfbhPoyZGA0PK1asBlnPwMtuLLn/jd4D4ODBQ7B69SYJTddo9M9/4xJIsojeRYANgB663+T2B0OVPy34401+oNOnxb2f/b8WS84/LRZ7abiVvmdzaAe8Tz9d4ZkUMecNDbTfkbHNWbr0Wyk7IgohVhnbUpbOBGKTQAQbALEJnHpFI392+xOJcMXDI/0W9774XAiYgDEdevgzb96HUpSg7G7U1+vfm99Xm5xOF7z//jJfWQK+JoSghZkB5+eMTIAJtBBgA6CFQ9i+SfmDoSN/dvuD+3NY6feEe9/dhAC+9u4thkjzApD7v7m5OYDWh57lyy9Xwb59ttAFHC5ZXFJiXXf4J58xASYQKIGINQAC7UA05VOUnJfAUOXfu93+Le79nMuR8/yedu9DEJ/Zs98Bo+fbg2gO1NUZu6U+jf7nz/80mCb5yrsEL9L2zHjgwASYQDAEotYAGDx4eF9FyT4W53LPtVhyL/GMtJp70KDsEy2WixWA3LhggBiVV3Erf5hilHyU20uf8x8en5XVovTLyjJtOLXyBbKYKAT0uHsf2xFQ+PnnPbBgQWR4sckQMdoA+PDD5SBp/3/QNNNHAUHmTEyACXQhYOqSEhEJ7Y0Qgwfn/jIrK3ucomQ/pSg5H6HC34rHGqczpRZA7ML/0X8rhLbMM9LCLpdLFArRbFMUrQnzl2BcgXLmKkr2/VlZublkQECYPgorf8mkDyt9RUmJSqXfGcgzz/wDysrkvBWvs+xgfpPy19CKCqZMMHnLyw/Bq6++H0wRX3n32u0rl/nKwNeYABPwTiDiDAAFR/WKknu7ouQsxFjidGpbNE28ByAeBYCrUeH/Ao/JGIMJWZh5BMq5E0D8Df8HtxINiApFyf4G4zPkPTDKU4DyZwIAj/wRgr4wPB49OyMVJWe+p9JHmQMwRn04dKgannhibo/2A/9dQG0t2tUGtmLmzHegulrOFIOmwRvYVH78DyFwYAKhEIgIAyAj4/zBCo7MMX4DIHYCaPMA4AaM6MLHb2NCAoA4H+M08h5YLJo9KytngaLkjKK5ZJDwQcPiWQDxABj2oQV/sbzJj+dCvpQi9Ox8iSgnYowJpY/96BAWLfoPUOyQGMYftaj8jXz5D23688UX+E9cTp+anU7zfDmiWAoT6J0EetIAMKGCHK0o2cvN5rj9gCNzjKiQQUAPfNCzkI4jivFY9eLy8sy9OE0wPSPjwkH4O6SA/ZqJhsVDIRUOrBDO+VvvwKwxNgJqH+m/oSh2Oyr9ts15LNjXmA/Tps2EnTvxn0OYe0pz/zU1NYbVunv3AXjyydelycd/q5+Ul6/Q/xpBaS1iQUwg+giE3QBQlMuSs7Ky71aUnJ9RQX4MIC4GAI924K+eD1noDn3cbDbtwXa+M2jQhWcG0SShKNno9hcGjvxptX8svdjHU+mn2FDp00j/NmQekyN97JfXUFtbDxMnPgY0JeA1kwEXqqqqDHsSoaqqBqZO/RvU10vbWlgDMP3FAAwskgn0KgJhVLzD4xUl516Axj2aJl5BykMxRnrAaQK40eUyrbVYchYNHjyC1h/4ajMpf3rUj5W/L0rua8PjLZYRv1GU3H8oSu9W+m4cHl/btu2B8eMfhoYGaQrTQ3rXU3runxb/db2iP4X6cN99LwB5APRLa5fwid2+Uu77lNtF8wkT6D0EwmIAWCzZ1+D/5H9CrLMxZmD0GiL0ghACxjidrs2ksLxMDbDy93vzOij9EiFcSwG032GxaB/p06o2qc+j01vy7rhjOpByRj6GBfR0QWVlpSHym5qa4cEHZ8HGjdtlytdcLu0pmQJZFhPorQQMNQBwHn0Ijvq/FkJ8iICHYYz2EEcKC6cGChUlmxSXaO0QKv9cdvu3wuh4yI3zGOl7Kv2BHfNF3a86TYMPhNCuA0i0qGreKCHgbZm9WLbsO7jppmlQU0P2hUzJh2WR698II4PafO+9z8E332w4XJmcs3+XluavlyOKpTCB3k3AZFD3hcWScxeOLjah/IswBhiiJlt/AIGu6+xlFstFx6NXAJW/dj8Y95mHCmYyise5T/yO+EBKP/syRcmZpyiaTRwe6ceU0rfb88babPnvq+p/3M/ONTe7puGtqcIoLeTnr4Nrr51iyB4BDQ0Nhjz2V1ZWCZMmzYA1a8jpJw0FCapCL9xUOuHIBJiAfgLSDQByjytK9jIcDc3B5qVgjOEgLhbCuRW9Aqz8obPSF1/hjb8dY0wrfexfeygrK0APB0hfnPbjjz/DpZfeAd9/v7G9Lr0ntNd/RUWFXjFdyq9btwW9Fo/A1q27u1zTnyAeJ8b65bAEJsAEiICJvmRFHAmfg+7xtdCysh+C/URpfpwWMKzlET7yj12lL4T2IUa3e7/zSN/X3R4woHQWXpenqVEYhZKSMhgzZgrQewNwFExJIUeXywXl5eWAHrqQZXQuSG36xz8+gTvvnAGlpfINC6xvg6oCLR7GUw5MgAnIICDNAECX/3gcCa/ARg3GyEE3gUjd5Mdzcx6tSIiYGek34C1bgkrxVqezOQtd+2Mwtrv38VpAobCw0CGE6wbMLP19us3NTnj66XkwcuRkWLeuEKsIPrQpf6fTGXxhLyW2bNkNEyY8DnPmvA9kCHjJpie5QdNctwJYjX1FoZ4WclkmEIUEZBgAAl3+M4WABdj/JIwhBi7mQQBH/pG0yQ+N9HMuVZSc1xXFTs/pF2Bb78OoYIzmUC9wpI+G6/UAiRmqmjfKbs9fUFa2qlpPp2y2AtLOtB5AjxivZTdt2g6jRt0DDz74EpSUlHrN1/mCpmlw8OBBaU8WqGo5PPXUPBg//jH46aednauT9hvv0VS7vUC6V0VaA1kQE4hSAjoNgLFmRcl5Awzd7hZ62weVfyRs8uOp9DWa2/4P3og7MEbjY5zY7PbQrvRdLmGx2fLHqGr+e20L+dpz6TxBY+Jl1Le0oZFOSd0Xp5H8ggWL4de/vhH+9KcXYe/e4u4ztqZSfnL7OxyO1pTQD0VFdnjyyXlohEyBjz9eadgGQq0tXIL3iNYTtf7kAxNgArIIhGwA0H75OBpciA2hvdnxoC9waSIg3kDFcSee9dBq/87ufYgVpe/p3ldQobiVfmmp1bi9b9GtkJDguBk9Y9vwfhoWmpqa4O23P4Nzz70ZrrzyHvc5PYLnWSG5+/Uq/8ZGByxfvhruv/8FuOaaP8Inn6yE5mbDPfI7hXDRjpA99O/BkyKfM4HYIxCiATDWXF6e8T7iGIeRgxwCOPLvCbc/jfRzL0FPzt/RoIsx9z58BCBuwJF+JhpWUtz7EMSnqOi7g83NzlFY5CBGQwON8Nes2ez2Bpx22jXoln8YXnvtfVi/fgvY7fag3f4kb+vWPWhQfA733vs8jBgxGaccZkFBwXpU/E5D+0X2jo0AABAASURBVNIqvNzl0i632QoCn+NoLcgHJsAEAiMQkgGAigJdcuKqwKoIJFfweUw4tFISTDAsyQxnpMTDOWnxcGH/BBieGg+/7BsHQ/qYIdEkIEo+qPzD6fYfa7ZY2pQ+ufe1ZchpEsYMjNEc0L3frvTRvZ93rapa3zV4pO+TV1nZN9vwT3UMZmrCGJZQV9cAtInQ9Olz4PLL74Kzz74Frr9+mluBv/LKe/Dmm4vhww+/BnozH8UPPljuTqNrtHPfdddNg/POmwg33vhnmDnzHVi1akPYtiVuBdTocsHVpaX5UrcQbJXNBybABFoJBG0AWCw5j2FZUhZ4CE8gNT4sKR6uV5Lh8SEpMO+ENPj81P6w8MT+8NoJ/eDF41NhxrGpMP2YFHj+uFR4dVgavPGLfpgn3Z2H0m4f1BfOQuMgAo2CMCl/T6Vvxzn92FH6+Ff4McYbXe45/Z5X+tiWDsFmy1uJMwLjMdFwnznW0SU4HE2wbds+twt//vxPYfbsd2HGjDfg0UfnuOPTT893p9E1cvNv374PqEwXQeFJaBZC3FxamkcLTcNTI9fCBHopgaAMAFT+44WAJ2Sz6k4eKf3hqQnwxLH9If/MLPjkNAs8NqQ/XJOZBkOT4iABG9JdOc80kkFeAvIK3GDpA8+hcbD4lP7wwvFp8Jv0BOhrphyeJcJ+brDyH2tWlBEXK0rua+i18VT6mWHvqdwK6RG7dqWvqnnXYPx3qbFz+rp6QAsNAQQZAWHxn0N0flD5w402m/WD6Gw+t5oJRBeBgA0AVCKnoM59DbtnqNYkpTxxUAosPUOBBSdlwhhLMgyIN2O1LSEO3foDE/uAWZhaEoL8jsNOnJkSBw8enQIfnNQfHjo62T1dEKQYGdkNUv4dlT6AazmARtsIR7vSb0DobqXvdDYrqPAjXuljezsEFacjMIGNAITQTUDlr91ks+Ut6uYaJzEBJmAAgYC0qKJcloxK5H2svy9GyaFFXGqcgLuPTIPlZ2TB1KP7wZGJcS0Xuvk2oxIfmJAAcSEaAW0iaTrgsvRE95TCEzi1MAw9C23XDD5KVv4xrfQ/wXtxIyp9euGOW+mX6XxOH+X1WFDVvH8DmK7FBrjfH4BHDgD0NMY1Nls+/T+GeTABJhAmAgEZAEI0zsX2nIhRehAo8bcZfWHJaVnw+yNSoV9cQE0CExoBA9AIIGMARegKJOuCfgkwZ1gq3H9EMqSYqVW6RPoq7EJj6mXMoPPRJlL62RehZ8bt3ofYGumj0tdualX6V5PSjGalj/e6Q1DVlZ+aTK5sTDyAsVcHTYMil0tciPf4s14NgjvPBHqAgF9ta7HkjsZ/pOS2lN68wQlmmH9iBjx3fDpkxPttSpf6SXGnoxFAxy4XQ0ggOVdmJMJbv+wHOf0TQpAQUBET8vwnQG5cQLk7ZGpR+llZ2XNxTr8YQHwNsePe76T08xfGktKHTp+SkoIfmpvNZ+Pfwg+dLvWmn/91uZrPLi21buhNnea+MoFIIWDy1ZCMjPNThdBm+8oT6rWL0vvAh6dZ4NdpiaGKcJejaYD0eLnKuj96If7vmBR4AL0BgSw2dDckiC8hxHBFgQC3iu2q9DVN0GZBliCqjMSsNKffq5R+55tQXr7iQFpa3/MAxCxASw5jbwnk/ZqZmtr3QjTy0JDtLd3mfjKByCLg0wAwm81PYnOPwigtkHP9j0enwewTBkKa2Wf1AdcZbzJBP8lGAFU+Cr0BLw9Lg8wQvBNU3nfUHrFYLjiu+zyxrPS1TzVNu/mwez+2R/rd39/DqTt2fNmoqtYHhIArMFXFGOvBpmmmy1U17w/U91jvLPePCUQyAa8a2GIZcTqAuBckfuJNAp5Fd/9tg1KBDAGJoiHJbIa+cYefFpAle2iSGcgIOKaPdNl9hDC/eLidY81ZWTkjMM5pc+/Hzki/Rek3NTUoqpo/2m7PfwdHfrpeuHOYW2yc2Wx5X2paHP6bA9pem0bIsdGxw73APol3AJpOt9tXfnU4mc+YABPoKQJeDQAhnDOwUdK0HrnSXz5hANCCP5TrDrK/UuPiwSxkmxbg9gDMGprq3mFQcptHK0rOlFalf0DTYAXGu7COGHDvd1X6Bw+ursK+cfBCwG7/WsWR8U1CmEZgls0YYyVsdLkgR1WtN6vqt/ZY6RT3gwlEO4FuDQCLJedcAEEuSZDxMaNO/uuwAXBhvz4yxHmVIUBAfwOmAqjCVLMJnj0uBQzwBLzUqvQVqieKI83pLyb3vudIn5V+8HfUZluZp6o1Z2LJ+zGWYIzWUCyEdo+qiuGlvLNftN5DbncMEzB11zccRP+lu/RQ0gQW+r8h6XBxemfljxcMCLQeoK85zgDJAGQE0LbCtLugIRVEn9BGbPISVPq3OhzxWaqadxW591npIxXdYV0T8pw9cGDpEOQ7GY3EIt0iwydgP4D2QHy8Y6jNlv8qgLVHtkAOX3e5JiYQnQS6GACZmbkXYFcuwiglTBiUAmMsfaXIClRISnyce5+AQPMHk48eV3xySCrQlEYw5WIoLyl9HOmL8TjSp8153G/Zq6hYfiiG+hgxXSksLHSgUfV6WlrfoahUb8e4OmIa17Uh32P7fodGy1BVzZ9VVPQdbdncNRenMAEmEBEEuhgAJpP2e1ktOyMlAe4/Mq1bcUYmmnAqICXOGC8AtZsWBv7+iCQ67S2xXenjSF/BkSmO9K3/4pF++G4/rZhHpfoGxnM0zXU6KtpXsPYyjD0dsA3a3wDEqfh3cS62bz4ZLcAfJsAEIp6AybOFFsvFNA9N25R6Jod0noZz5n8dlg608j8kAToL0TSAGecydIrxWnzUwD5Gbhbktd4wXiCl/xm6nm/xVPo80g/jHfBSld1esBEV7b2qaslyuSAb79EL+Ke+zUt2I5ILsc7ncbCQQ23AtkxRVWssLVo0ghnLZAIRR6CDASBE8++whQkYdYcHjkqDQQneRuG6xQckwEgvADXgviP6Gr1tMFUTzthZ6V9pt+e9zUo/nLcgmLoWOWlxHd6jB222vF+YzdrRaAiMw/gSeghWoSQZ7xuoQll5QogXAcQNJpN5iKrmnYx1PlRSkp8PsMgJ/GECTCAqCZg6tXpip98h/TwlOQHGhmnevwGHQNvqmuCHagesw7i/wQkuHJ5Qw5PMxq0FIPm0Y+DvssK7voHqlRxZ6UsG2lPiiovz96MhsAjjH3FUfgEq6hRNi8vSNO18TRO0nfef8ficpsEcIWABtpPevEdxHp6/junkSXgIUNFTGaez+QiUkY6ycm0261RVtb5bUrJiL/CHCTCBmCDQbgC0bPwDQ/X2ilb9P3ZsPzDh/2G8ydKT7tQAvqlshMd3V8IVG1U4678lcPUmO4wvLIVbMI780QYj1ttgxp5KUB1OICNAT33+yv52YAKE8S2C/poT6PVGzNi2ep/m9Hmkj0BiMdDeAnZ7/rd2u/Vfqpr3DB6n2e15d9tsebfi73GtcRIeJ2M6eRKeV1HRU5myslW0Ta8rFrlwn5gAEwBoNwBMJpeUuf8L+ycCeQBkw21Cxb9QrYWRG2ww+ecy+MBeC3vqmwGTu1RV1uQCyvu/P9pheQXpui5ZpCWQoXOTJTyPOOpstBNduegW1h4wm8WRqprHq/d1AuXiTIAJMIFoJtBuAKD77xoZHbl9cJofMcFfXouu/dE42p+Bo/piHNUHKoGmBx7dVQkflzkCLRJSvgv6J8CxfcwhlTW4kNND6WehKxfdwvmzioutZQbXy+KZABNgAkwgwgm4DYBBgy46Btt5MkZdYXhqAlDUJcSjMI3uXztQDbdtKYU9DaHvJTK3uAZ+rAm9vEeTuj0VmDouM2K8AGTtuN37jY0ig5U+3hwOTIAJMAEm0IWA2wBwOpsv6HIlhISrM5P9lgo0Ay3km47z/C8XVQHN+wdarrt8VH5OcW374sDu8uhNy0EvQF8zmQJ6JYVUvn2kL4Sr3b1fWWmtDEkaF2ICTIAJMIGYJ+A2AEwmcb7eniaaBFySLm9znGf2HgKa59fbrrbyO+qdUFiHerItQfKR+n9hWrxkqT7FYWc095w+Kv1BbSN9m62g1GcpvsgEmAATYAJMAAm4DQBNA90GwEXpfSA1zt8IGGsMIJDip0V8AWQNKsvqqqag8geb+eL0xGCLBJsf3fva50JoEzzd+6z0g8XI+ZkAE2ACTMA0ePBwepD9FL0oLugvZw58H871P42jf73t6a58SRALCLsr7y/ttJR4IE+Av3xBXkelD1+0Kn0FR/q/tdny32L3fpAUOTsTYAJMgAl0IGBqbqaXjBx+HLDD1SB+/DrN/+g3EHGk/BtdtPwvkNzB5ak3SG5bK+LRAXJKspTdD1uVvpiYmOjMUtW8K2ys9Nsw85EJMAEmwAQkEDDh5xd65RyZGAeDE/Q/BrepxgEFlQ16m+O1fGa8/jZ6Fd564Qz0ArSehnzQNG1Ti9K3vrlv3zcVIQvigkyACTABJsAEvBAwaZrQbQCcnBzI4jcvLfBIfstW4/FL/ulJckbnPhs2LEm/kSGEOMZnJXyRCTABJsAEmIBOAiYA7VidMuDYJP1u7xqnC1ZUGDf6J/d8dj856xR88ToqUb8BgPIzMjNzU/DIgQkwASbABJiAIQTIABioV/KQPv49AP7q+G9VIxg1909135SVAhkSpilIlq9oQUsjQQhfWQK6ZjazFyAgUJyJCTABJsAEQiKABgD0B52fwRJGvT9UG/eI3lD0UNx1RCqEY58eEyp/JYGw6oMqhFO3YaavBVyaCTABJsAEYpkAaioxQG8HU/1qVv817GowxgA4DpX/nF9kQIrZBAL/898S/TmSJfDQNEjR3xKWwASYABNgAkygewImTE7DqCvI2AJXbXTpakPnwvEmAdcrybDwJAsc0eqhEJ0zGfRbhgGATWMDACFwYAJMgAkwAWMIkAGgW3Iyjq59CQnkWr2m3wA4MTkeRg5IgoeO6Qdfnm6Bx4b077A7oRDhMQGSJFBlD0AgfzWchwkwASbABEIlQKpK92vymiVssJOMI/ZQO9FWbvYJA+HFYQPglqwUGJTQ9ckEY7YXgi6fJgkVaZowZk6kS2s5gQkwASbABHojARMOip16O15Lr9vzKiSwC0ckdlXYgZVsyRWPg/vMeLJnWn53962BBM3cneBOafW6iZJArZa+OTIBJsAEmAATMIKASdNA90izToIH4Hydz+ifg+Xj0ZrxCSk8+h9kbDmsaaY6n33hi0yACTABJsAEdBAgA6BcR3l30Ypm70Ned4YAvi4b0Af6xfkewfsSM9aS7Ouy+5ozTB6Aymb96xkA2APgvmn8xQSYABNgAoYQoCmAYr2S9zboNwDSUPnffWRoDyTQi4guTve/y5/TZbwLgDYzKm/WX4/ZbDqo975weSbABJgAE2AC3gjQkLvE28VA03fXe5tFCFRCS74blWQYlZHU8iPA78EJZnhxaHpAuV1h8ADsb3SBC+dVAmqQj0xOp7bx7ZI5AAALbklEQVTXx2W+xASYABNgAkxAFwGcAhC6PQC76nU/SODuhMDvGccNgImDUgLasueMlARYeHImDAjwLX9OCYoZm+gz7G/U7w3BCuylpVZj34yElXBgAkyACTCB3kuAPAA79HZ/Y60Dmrpxr4cilzbRm3p0P3jvFAuMSE+C7vbVP7FvAsw4Ph3ePikDMtEDEEg95JRvcsmYm/dd26YaKcbQHt+18FUmwASYABNgAvoImIRw/ahPBECdU4PNtXKmAdracnJyPLxywgD49qxB8C6O8ul8wYkZsOJXWfDBqZkwOqMvYOPbsvs9OiVsNOS3EsywQQ4H3UYZNoUDE2ACTIAJMAGvBEyqmk+jzSqvOQK8sLqqsVNOOT+TTAJORVc/eQOGpyWCEuCIv3PtDjRSOqfJ/l3e5IJ9EhZEYrvWYuTABJgAE2ACTMAwAjQFoAkBG/XW8HVFvV4RhpZ3aFLm5n22cdWhJinLDDUNvvdZEV9kAkyACTABJqCTABkAJGINfemJhej63uGxGFCPLCPKOsIw/7+sUooXpCkhwbHBCAYskwkwASbABJhAGwG3AeB0imVtCXqOi0sjc/O6Jk3Oo3m+2BxodMGWWikLADcUFX0X2e4UXyD4GhNgAkyACUQFAbcBEB9fnY+tbcCoK3xSVgu0EQ6ALjHSCzc4jXf/f1beIMX9j9MxS6UDYIFMgAkwASbABDoRcBsAxcXrcOiurep0LeiftAjugwj0AhhtAFQ5NVhSLsX9D0KIxUGD5wJMgAkwASbABIIk4DYAWsqIz1uO+r7nF1dDk0ZP3euTI6t0I879Ow1uzyJ7g5QXAGGfi0tKrOvwyIEJMAEmwASYgKEE2g0Ap9P1Ltak21duczjhHVvkvMm2rlnu/gTIqEMoa3LBJ+j+75AY+o8lWDRyrCdsDAcmwASYABOITQLtBkBZWUGJENpy/d0EmHOgGlQ0BGTI0iODRv7kAdAjw1/ZOQfq3Bsh+csXyHV0VLwZSD7OwwSYABNgAkxAL4F2A4AEoQJaQEe9sdbpguf3HtIrRnf52mYpq/K9tmNddRPkHXJ4vR7khU12e953QZbh7EyACTABJsAEQiLQwQAwm2s/QSm6XkOL5d1h6cF6WFJW5z7viS+n5sJ5eeMMgENODZ7fXyuza/NkCmNZTIAJMAEmwAR8EehgANDTAELAq74KBHPtiT2VsKfBOCXsqy3VOPpHj4avLCFfo0n65/bWAs3/hyykY8Haxkbxdsck/sUEmAATYAJMwDgCHQyAlmpcL+MxxKE7lvQI9JKgP2w/CDQl4JFs+Cnt+mfko3/vqA2wulqa6x+E0OZWVlorDQfDFTABJsAEmAATaCXQxQCw2QpKAbT5rdd1H36ua4J7th2EJho265bmXwBVU23gyv/lFQ540ybFPmrrTENzs/ZS2w8+MgEmwASYABMIB4EuBgBVajLF/RWPQe8MiGW6DWuqGuHhnRXgMson71ErLfxrcrk8UuSdrq5qwnn/Gik7/rW1Cqdc5pSVFZS0/eYjE2ACTIAJMIFwEOjWACgpWbEXK5+JUVr4srwOHtxZiZ4AGqNLE9tBECn+WoNG/wWVDpi+pwaccptf7XSKFzp0gn8wASbABJgAEwgDgW4NAKrX5RJP4zGIkSnm9hPICJi0tRxqnPJH6BqOyyubHPjtpxEhXF56sBGe2lcDDskeDBQ3vbTUaguhSVyECTABJsAEmIAuAl4NAFRMNeiefkSX9G4K03TALYVl0p8OqGxqwtG53OF5M2roVw/UwQv7a1F2N53Rl7TZbhez9Yng0kyACTABJsAEQiPg1QAgcTZb3luoAwvo3F8M5jotDBy3uRQ+l7RPAC36a3Tq3sW4QxdsDhfct6MaPiqTthTCU75mMml3A1h75hlJz5bwORNgAkyACfRKAj4NACTiEkK7FY/VGKUGejTwwZ0VMHVHBdh1bBtc52wGWvgnq3EudCJ8jEp/0rZD8HOdMfpZ02BuSUl+vqw2sxwmwASYABNgAsES8GcAgKrm7wbQHvAtOPSrtC7gtxvt8GZJTdALBOtdTqhC13/otXcs+VNtM/x+exW8gm7/Wsmr/Txq+ikhwTHV4zefMgEmwASYABMIOwG/BgC1CI0A2heAtgmmn9JjrdMFL+w7BCM3qPCOWguNNAz3U0s9jvyrHA4/uQK7vLG2CR7aVY0u/yrYXm/MqL+1JTifoN1QVPRdfetvPjABJsAEmAAT6BECARkA1DKHI34CHrdg7BJkJdhwKuDpPZVw6QYbvLSvCnZ4Ucbk8j+EI39NR8W1OML/4mCjW+lPwbn+tdVNOqQFVlTTxBQ0pjYFlptzMQEmwASYABMwjkDABkBFxfJDLpe4Epsi5WVBKMdrKG9ywRsl1XDVRhXGbCqFuQeq4YdqBzjQM0AL/ih6LezjQgkaGF+i0n9iTw2M+akSXtxfC+T291FE4iUxy263viZRIItiAkyACTABJhAygYANAKqhtNS6A8A0Ds89/OT4y8Cwpc4BrxRVwfjCUjh3XQnc9XMFzCqqA1qotwZH7dvrnbC/0el+MQ+9oY+U/Hb0HGysaYb/VDSiIVEH0/fWwI1bKuHmLYfgr6j08w+hMaHp8R8E3eHPVDXzj0GX4gJMgAkwASbABAwiEJQBQG1Q1ZVfa5qYiOcujGENDegBWF/TBIvLG4AW6j2M8/Z3bjsEE7YegusKK+GazRVuJX/ntiqYsrMKnttXCwvtDUC7+KmOsDe3jc1a9JzcCLBI7nOKbdL5yASYABNgAkwgBAJBGwBUB7qy/yWEdhueuzBy8EJACFgfFxc3Ej0nNV6ycDITYAJMgAkwgR4hEJIBQC212fLfAtDuwPMeG1pj3REbWpS/45IDB74uj9hGcsOYABNgAkyg1xII2QAgYqqaP1/TNJoOkPM8HgmNjfhtQ4O4qKjoO8MXTMYGLu4FE2ACTIAJhJuALgOAGmu35y/QNNNFeF6GkQNO9sfHOy6prLRWMgwmwASYABNgApFKQJcB0NYpu33lKiFcOfh7D8beGtAZAo+rat51OPKv760QuN9MgAkwASYQHQSkGADUVZutoDAx0Xkmzn1/RL97WTyI2n+M3Z73JPY7rM8XYn0cmAATYAJMgAkETUCHAdC1rn37vqmw2fKuRWVILxCq65ojJlNWxsWJ03EqpDcaPjF5Q7lTTIAJMIHeQECqAdAGDJXhAgBxNgB8jzFWQwOAeBhd/pccOGAtAv4wASbABJgAE4giAiEbAP76qKrWzaqad16rNyDWFgguN5vFr1TV+ixy4McgEQIHJsAEmAATiC4ChhkArRg08gYI4ToJf7+OsQljNIftQmhXqGrepcXF1q3R3BFuOxNgAkyACfRuAiEaAMFBs9kKSlFpTjabm4diydkYGzFGU9iFnozJqipOstnyv4imhnNbmQATYAJMgAl0RyAsBkBbxcXFq/ahIXC/pplP1jTxKqYfwhjJYQOAuAHbPAw9GejBsIbtJUjAHybABJgAE2ACBhIIyQDQ2x67fcVOu916T1KSyBICxgFoq/TKlFiejJLXXS5xISp+mud/F2XzPD9C4MAEmAATYAKxQ6BHDIA2fHv2WBtstrxFqpp/gdls+iXOr0/Da/TkQLgVbikaIm9jHEdGCSr+yaWl1m+wLRyYABNgAkyACcQkgRAMAGM4FBev/Bnn159D5Xuu0+k6EqcIxmsazMHa0A0PTjzKDKTwlwohngAwnYN1ZqEhcgvGRWSUyKyIZTEBJsAEmAATiEQCEWMAeMIpKysowSmCf9nteXejcv4VuuP7ozFwHsZbhICnMO+/W6cNNuH5XkyvwCOF+tZzegnPLkxYi/k+xePLWO4hTRNXm83a0SjTgsr+cpvNOl1VV67G6+H2OGCVHJgAE2ACTIAJ9ByB/wcAAP//+17o7AAAAAZJREFUAwCQHx0nRj638AAAAABJRU5ErkJggg==;" vertex="1" parent="1">
          <mxGeometry x="899.1" y="510.5" width="69.5" height="69.5" as="geometry" />
        </mxCell>
      </root>
    </mxGraphModel>
  </diagram>
</mxfile>
